<?xml version="1.0" standalone="no"?>
<!DOCTYPE svg PUBLIC "-//W3C//DTD SVG 1.1//EN" "http://www.w3.org/Graphics/SVG/1.1/DTD/svg11.dtd" >
<svg>
<metadata>
Created by FontForge 20090914 at Mon Nov  3 17:57:44 2014
 By www-data
(c) 1997, 2000 Nick Curtis. All Rights Reserved. Generated by Fontographer 3.52 
</metadata>
<defs>
<font id="BeautySchoolDropoutII" horiz-adv-x="200" >
  <font-face 
    font-family="BeautySchoolDropoutII"
    font-weight="400"
    font-stretch="normal"
    units-per-em="1000"
    panose-1="0 0 0 0 0 0 0 0 0 0"
    ascent="800"
    descent="-200"
    x-height="749.999"
    cap-height="752.002"
    bbox="-106.998 -249.14 977 997"
    underline-thickness="50"
    underline-position="-55"
    unicode-range="U+0020-U+F002"
  />
<missing-glyph 
 />
    <glyph glyph-name=".notdef" 
 />
    <glyph glyph-name="space" unicode=" " 
 />
    <glyph glyph-name="space" unicode="&#xa0;" 
 />
    <glyph glyph-name="exclam" unicode="!" horiz-adv-x="122" 
d="M116 47c0 -14.667 -5.33301 -27.334 -16 -38.001s-23.667 -16 -39 -16s-28.333 5.33301 -39 16s-16 23.334 -16 38.001c0 15.333 5.33301 28.333 16 39s23.667 16 39 16s28.333 -5.33301 39 -16s16 -23.667 16 -39v0zM75 56c0 7.33301 -2.33301 13.333 -7 18
s-10.334 7 -17.001 7s-12.334 -2.33301 -17.001 -7s-7 -10.667 -7 -18c0 -6.66699 2.33301 -12.334 7 -17.001s10.334 -7 17.001 -7s12.334 2.33301 17.001 7s7 10.334 7 17.001v0zM61 56c0 -2.66699 -0.833008 -4.83398 -2.5 -6.50098s-4.16699 -2.5 -7.5 -2.5
c-2.66699 0 -5 0.833008 -7 2.5s-3 3.83398 -3 6.50098c0 3.33301 1 5.83301 3 7.5s4.33301 2.5 7 2.5c3.33301 0 5.83301 -0.833008 7.5 -2.5s2.5 -4.16699 2.5 -7.5v0zM99 181c0 -13.333 -4 -23.333 -12 -30s-16.667 -10 -26 -10s-18 3.33301 -26 10s-12 16.667 -12 30
v529c0 13.333 4 23.333 12 30s16.667 10 26 10s18 -3.33301 26 -10s12 -16.667 12 -30v-529v0zM57 191v530v0.5v1.5c0 1.33301 -0.5 2.5 -1.5 3.5s-2.83301 1.5 -5.5 1.5c-3.33301 0 -5.5 -0.5 -6.5 -1.5s-1.5 -2.16699 -1.5 -3.5v-1.5v-0.5v-530v-0.5v-1.5
c0 -1.33301 0.5 -2.5 1.5 -3.5s3.16699 -1.5 6.5 -1.5c2.66699 0 4.5 0.5 5.5 1.5s1.5 2.16699 1.5 3.5v1.5v0.5v0z" />
    <glyph glyph-name="quotedbl" unicode="&#x22;" horiz-adv-x="213" 
d="M109 698l-23 -76.998c-2.66699 -9.33301 -7.16699 -16.333 -13.5 -21s-12.833 -7.33398 -19.5 -8.00098h-2h-2h-5.5c-1.66699 0 -3.16699 0.333008 -4.5 1c-8 2.66699 -14.667 7.16699 -20 13.5s-8 14.166 -8 23.499c0 2 0.166992 4 0.5 6s0.833008 4 1.5 6l22 77
c2.66699 9.33301 7.16699 16.5 13.5 21.5s12.833 7.83301 19.5 8.5h2h2c1.33301 0 2.33301 -0.166992 3 -0.5s1.66699 -0.5 3 -0.5c0.666992 0 1.5 -0.166992 2.5 -0.5s1.83301 -0.5 2.5 -0.5c7.33301 -2 13.833 -6.33301 19.5 -13s8.5 -14.667 8.5 -24
c0 -2 -0.166992 -4 -0.5 -6s-0.833008 -4 -1.5 -6v0zM71 720.002v0.499023c0 0.333008 0.333008 0.833008 1 1.5v0.5v1.5c0 1.33301 -0.5 2.33301 -1.5 3s-2.5 1.33398 -4.5 2.00098h-0.5c-0.333008 0 -0.5 0.333008 -0.5 1h-1.5h-0.5c-1.33301 0 -2.33301 -0.333008 -3 -1
s-1.33398 -1.66699 -2.00098 -3l-0.5 -0.5c-0.333008 -0.333008 -0.5 -0.833008 -0.5 -1.5l-22 -77v-0.5v-1.5c-0.666992 0 -1 -0.166992 -1 -0.5v-1.5c0 -0.666992 0.5 -1.5 1.5 -2.5s2.5 -1.83301 4.5 -2.5h0.5h1.5c0 -0.666992 0.166992 -1 0.5 -1h0.5
c1.33301 0 2.33301 0.333008 3 1s1.33398 1.66699 2.00098 3l0.5 1l0.5 1l22 77v0zM209 698.001l-23 -76.998c-2.66699 -9.33301 -7.16699 -16.333 -13.5 -21s-12.833 -7.33398 -19.5 -8.00098h-2h-2h-5.5c-1.66699 0 -3.16699 0.333008 -4.5 1
c-8 2.66699 -14.667 7.16699 -20 13.5s-8 14.166 -8 23.499c0 2 0.166992 4 0.5 6s0.833008 4 1.5 6l22 77c2.66699 9.33301 7.16699 16.5 13.5 21.5s12.833 7.83301 19.5 8.5h2h2c1.33301 0 2.33301 -0.166992 3 -0.5s1.66699 -0.5 3 -0.5
c0.666992 0 1.5 -0.166992 2.5 -0.5s1.83301 -0.5 2.5 -0.5c7.33301 -2 13.833 -6.33301 19.5 -13s8.5 -14.667 8.5 -24c0 -2 -0.166992 -4 -0.5 -6s-0.833008 -4 -1.5 -6v0zM171 720.003v0.499023c0 0.333008 0.333008 0.833008 1 1.5v0.5v1.5
c0 1.33301 -0.5 2.33301 -1.5 3s-2.5 1.33398 -4.5 2.00098h-0.5c-0.333008 0 -0.5 0.333008 -0.5 1h-1.5h-0.5c-1.33301 0 -2.33301 -0.333008 -3 -1s-1.33398 -1.66699 -2.00098 -3l-0.5 -0.5c-0.333008 -0.333008 -0.5 -0.833008 -0.5 -1.5l-22 -77v-0.5v-1.5
c-0.666992 0 -1 -0.166992 -1 -0.5v-1.5c0 -0.666992 0.5 -1.5 1.5 -2.5s2.5 -1.83301 4.5 -2.5h0.5h1.5c0 -0.666992 0.166992 -1 0.5 -1h0.5c1.33301 0 2.33301 0.333008 3 1s1.33398 1.66699 2.00098 3l0.5 1l0.5 1l22 77v0z" />
    <glyph glyph-name="numbersign" unicode="#" horiz-adv-x="500" 
 />
    <glyph glyph-name="dollar" unicode="$" horiz-adv-x="461" 
d="M440 712c0 -9.33301 -3.33496 -17.9971 -10.002 -25.9971s-16.667 -12 -30 -12h-123v-280c42.667 -21.333 80.334 -46.833 113.001 -76.5s49 -72.5 49 -128.5c0 -46.667 -15.667 -87.834 -47 -123.501s-69.666 -56.834 -114.999 -63.501v-58
c0 -12.667 -4 -22.334 -12 -29.001s-16.667 -10 -26 -10s-18 3.33301 -26 10s-12 16.667 -12 30v55h-140c-13.333 0 -23.333 4 -30 12s-10 16.667 -10 26s3.33301 18 10 26s16.667 12 30 12h140v271c-45.333 23.333 -86.333 50 -123 80s-55 74.667 -55 134
c0 49.333 17.333 92.5 52 129.5s76.667 56.833 126 59.5v10c0 13.333 4 23.333 12 30s16.667 10 26 10s18 -3.33301 26 -10s12 -16.667 12 -30v-10h123c13.333 0 23.333 -4 30 -12s10 -16.667 10 -26v0zM397.998 199.003c0 50 -16.6699 88.3311 -50.0029 114.998
s-70.666 50.334 -111.999 71.001v329h155h0.5h1.5c1.33301 0 2.5 0.5 3.5 1.5s1.5 2.83301 1.5 5.5c0 3.33301 -0.5 5.5 -1.5 6.5s-2.16699 1.5 -3.5 1.5h-1.5h-0.5h-155v41v0.5v1.5c0 1.33301 -0.5 2.5 -1.5 3.5s-2.83301 1.5 -5.5 1.5s-4.5 -0.5 -5.5 -1.5
s-1.5 -2.16699 -1.5 -3.5v-1.5v-0.5v-41h-20c-42.667 0 -79.667 -15.667 -111 -47s-47 -68.666 -47 -111.999c0 -51.333 17.667 -90.333 53 -117s74.333 -51 117 -73c0.666992 0 1.33398 -0.166992 2.00098 -0.5s1.33398 -0.833008 2.00098 -1.5l0.5 -0.5
c0.333008 -0.333008 0.833008 -0.5 1.5 -0.5s1.16699 -0.166992 1.5 -0.5l0.5 -0.5v-321h-171h-0.5h-1.5c-1.33301 0 -2.5 -0.5 -3.5 -1.5s-1.5 -2.83301 -1.5 -5.5c0 -3.33301 0.5 -5.5 1.5 -6.5s2.16699 -1.5 3.5 -1.5h1.5h0.5h171v-87c0 0.666992 0 0.833984 0 0.500977
v-1.5c0 -1.33301 0.5 -2.5 1.5 -3.5s2.83301 -1.5 5.5 -1.5s4.5 0.5 5.5 1.5s1.5 2.16699 1.5 3.5v1.5v0.5v86h4c43.333 0 80.5 15.667 111.5 47s46.5 68.666 46.5 111.999v0zM383.995 199.001c0 -39.333 -14.168 -73.166 -42.501 -101.499s-62.166 -42.5 -101.499 -42.5h-4
v314c38.667 -19.333 73 -41.333 103 -66s45 -59.334 45 -104.001v0zM361.994 189.001c0 27.333 -8.16699 50.167 -24.5 68.5s-36.5 34.833 -60.5 49.5v-227c24.667 6 45 19.167 61 39.5s24 43.5 24 69.5v0zM221.994 392.002c-40.667 20.667 -78.168 43.6689 -112.501 69.002
s-51.5 61.666 -51.5 108.999c0 39.333 14.333 73.166 43 101.499s62.334 42.5 101.001 42.5h20v-322v0zM200.993 433.004l0.000976562 240c-28.667 -2.66699 -52.834 -14.667 -72.501 -36s-29.5 -46.666 -29.5 -75.999c0 -30.667 10 -55.834 30 -75.501s44 -37.167 72 -52.5
v0z" />
    <glyph glyph-name="percent" unicode="%" horiz-adv-x="500" 
 />
    <glyph glyph-name="ampersand" unicode="&#x26;" horiz-adv-x="584" 
d="M558 38c0 -9.33301 -3.33594 -17.998 -10.0029 -25.998s-16.667 -12 -30 -12c-30.667 0 -59.167 7 -85.5 21s-48.166 32.333 -65.499 55c-17.333 -22.667 -39.166 -41 -65.499 -55s-54.833 -21 -85.5 -21c-52 0 -96.5 18.5 -133.5 55.5s-55.5 81.5 -55.5 133.5v74
c0 32 7.33301 61.667 22 89s34.334 49.333 59.001 66c-20.667 17.333 -37.5 38.666 -50.5 63.999s-19.5 52.333 -19.5 81c0 51.333 18.5 95.333 55.5 132s80.833 55 131.5 55c37.333 0 71.666 -10.5 102.999 -31.5s54.333 -48.5 69 -82.5
c1.33301 -2.66699 2.33301 -5.5 3 -8.5s1 -6.16699 1 -9.5c0 -10.667 -4.16699 -19.5 -12.5 -26.5s-17.5 -10.5 -27.5 -10.5h-2.5h-2.5c-6 1.33301 -11.5 4 -16.5 8s-9.16699 9.66699 -12.5 17c-8.66699 20 -22.334 36.333 -41.001 49s-39 19 -61 19
c-30 0 -55.833 -11 -77.5 -33s-32.5 -48 -32.5 -78s10.833 -55.833 32.5 -77.5s47.5 -32.5 77.5 -32.5h104v40c0 13.333 4 23.333 12 30s16.667 10 26 10s18 -3.33301 26 -10s12 -16.667 12 -30v-40h32c12.667 0 22.334 -3.83301 29.001 -11.5
s10.334 -15.834 11.001 -24.501v-1.5v-1.5c0 -9.33301 -3.33301 -18 -10 -26s-16.667 -12 -30 -12h-32v-187c0 -30.667 11.167 -57.167 33.5 -79.5s48.833 -33.5 79.5 -33.5c13.333 0 23.333 -4 30 -12s10 -16.667 10 -26v0zM514.997 48.002
c0 3.33301 -0.667969 5.33301 -2.00098 6s-3 1 -5 1c-40.667 0 -74.834 14.333 -102.501 43s-41.5 62.667 -41.5 102v217h63c2 0 3.83301 0.333008 5.5 1s2.5 2.66699 2.5 6s-0.833008 5.33301 -2.5 6s-3.5 1 -5.5 1h-63v72v0.5v1.5c0 1.33301 -0.5 2.5 -1.5 3.5
s-2.83301 1.5 -5.5 1.5s-4.5 -0.5 -5.5 -1.5s-1.5 -2.16699 -1.5 -3.5v-1.5v-0.5v-72h-134c-38.667 0 -72 14 -100 42s-42 61.333 -42 100s14 71.834 42 99.501s61.333 41.5 100 41.5c28 0 54 -7.83301 78 -23.5s41.333 -36.5 52 -62.5
c0.666992 -0.666992 1 -1.16699 1 -1.5s0.333008 -0.833008 1 -1.5c0 -0.666992 0.333008 -1.16699 1 -1.5s1.66699 -0.5 3 -0.5h2c0.666992 0 1.33398 0.333008 2.00098 1c2 1.33301 3.33301 2.5 4 3.5s1 1.83301 1 2.5l-0.5 0.5
c-0.333008 0.333008 -0.5 0.833008 -0.5 1.5l-0.5 0.5l-0.5 0.5c-12 29.333 -31 52.666 -57 69.999s-54.667 26 -86 26c-42.667 0 -79.334 -15.333 -110.001 -46s-46 -67.334 -46 -110.001c0 -34 9.83301 -64.333 29.5 -91s44.834 -45.334 75.501 -56.001
c-33.333 -9.33301 -61.166 -28.166 -83.499 -56.499s-33.5 -60.5 -33.5 -96.5v-74c0 -43.333 15.667 -80.666 47 -111.999s68.333 -47 111 -47c35.333 0 66.833 10.667 94.5 32s46.5 48 56.5 80c10 -32 29 -58.667 57 -80s59.333 -32 94 -32c2 0 3.66699 0.333008 5 1
s2 3 2 7v0zM349.996 199.002c0 -39.333 -14.166 -73.165 -42.499 -101.498s-62.166 -42.5 -101.499 -42.5c-38.667 0 -72.334 14.167 -101.001 42.5s-43 62.166 -43 101.499v74c0 39.333 14.167 73.166 42.5 101.499s62.166 42.5 101.499 42.5h144v-218v0zM328.997 189.003
v187h-113c-30.667 0 -57.167 -11 -79.5 -33s-33.5 -48.667 -33.5 -80v-74c0 -30.667 11.167 -57.167 33.5 -79.5s48.833 -33.5 79.5 -33.5s57.167 11.167 79.5 33.5s33.5 48.833 33.5 79.5v0z" />
    <glyph glyph-name="quotesingle" unicode="'" horiz-adv-x="109" 
d="M103 698l-23 -76.998c-2.66699 -9.33301 -7.16699 -16.333 -13.5 -21s-12.833 -7.33398 -19.5 -8.00098h-2h-2h-5.5c-1.66699 0 -3.16699 0.333008 -4.5 1c-8 2.66699 -14.667 7.16699 -20 13.5s-8 14.166 -8 23.499c0 2 0.166992 4 0.5 6s0.833008 4 1.5 6l22 77
c2.66699 9.33301 7.16699 16.5 13.5 21.5s12.833 7.83301 19.5 8.5h2h2c1.33301 0 2.33301 -0.166992 3 -0.5s1.66699 -0.5 3 -0.5c0.666992 0 1.5 -0.166992 2.5 -0.5s1.83301 -0.5 2.5 -0.5c7.33301 -2 13.833 -6.33301 19.5 -13s8.5 -14.667 8.5 -24
c0 -2 -0.166992 -4 -0.5 -6s-0.833008 -4 -1.5 -6v0zM65 720.002v0.499023c0 0.333008 0.333008 0.833008 1 1.5v0.5v1.5c0 1.33301 -0.5 2.33301 -1.5 3s-2.5 1.33398 -4.5 2.00098h-0.5c-0.333008 0 -0.5 0.333008 -0.5 1h-1.5h-0.5c-1.33301 0 -2.33301 -0.333008 -3 -1
s-1.33398 -1.66699 -2.00098 -3l-0.5 -0.5c-0.333008 -0.333008 -0.5 -0.833008 -0.5 -1.5l-22 -77v-0.5v-1.5c-0.666992 0 -1 -0.166992 -1 -0.5v-1.5c0 -0.666992 0.5 -1.5 1.5 -2.5s2.5 -1.83301 4.5 -2.5h0.5h1.5c0 -0.666992 0.166992 -1 0.5 -1h0.5
c1.33301 0 2.33301 0.333008 3 1s1.33398 1.66699 2.00098 3l0.5 1l0.5 1l22 77v0z" />
    <glyph glyph-name="parenleft" unicode="(" horiz-adv-x="153" 
d="M146 -68c0 -8.66699 -3.33301 -16.998 -10 -24.998s-16.667 -12 -30 -12c-26.667 0 -49.834 9.66699 -69.501 29s-29.5 42.666 -29.5 69.999v657c0 27.333 9.83301 50.666 29.5 69.999s42.834 29 69.501 29c13.333 0 23.333 -4 30 -12s10 -16.667 10 -26
s-3.33301 -18 -10 -26s-16.667 -12 -30 -12c-6 0 -11.333 -2.33301 -16 -7s-7 -10 -7 -16v-658c0 -6 2.33301 -11.167 7 -15.5s10 -6.5 16 -6.5c13.333 0 23.333 -4 30 -12s10 -16.667 10 -26v-1zM104 -58.998c0 4.66699 -0.833008 7.33301 -2.5 8s-3.5 1 -5.5 1
c-14.667 0 -27.167 5.16699 -37.5 15.5s-15.5 22.5 -15.5 36.5v658c0 15.333 5.16699 28.166 15.5 38.499s22.833 15.5 37.5 15.5c2 0 3.83301 0.333008 5.5 1s2.5 2.66699 2.5 6c0 4 -0.833008 6.33301 -2.5 7s-3.5 1 -5.5 1c-18.667 0 -34.667 -6.66699 -48 -20
s-20 -29.666 -20 -48.999v-658c0 -18 6.66699 -33.667 20 -47s29.333 -20 48 -20c2 0 3.83301 0.333008 5.5 1s2.5 2.66699 2.5 6v-1z" />
    <glyph glyph-name="parenright" unicode=")" horiz-adv-x="153" 
d="M146 -7c0 -26.667 -9.66699 -49.668 -29 -69.001s-42.666 -29 -69.999 -29c-13.333 0 -23.333 4 -30 12s-10 16.667 -10 26s3.33301 18 10 26s16.667 12 30 12c6 0 11.333 2.16699 16 6.5s7 9.83301 7 16.5v657c0 6 -2.33301 11.333 -7 16s-10 7 -16 7
c-13.333 0 -23.333 4 -30 12s-10 16.667 -10 26s3.33301 18 10 26s16.667 12 30 12c27.333 0 50.666 -9.66699 69.999 -29s29 -42.666 29 -69.999v-658v0zM105 1.99902v658c0 19.333 -6.5 35.666 -19.5 48.999s-29.167 20 -48.5 20h-0.5h-1.5
c-1.33301 0 -2.5 -0.5 -3.5 -1.5s-1.5 -3.16699 -1.5 -6.5c0 -2.66699 0.5 -4.5 1.5 -5.5s2.16699 -1.5 3.5 -1.5h1.5h0.5c15.333 0 28.166 -5.16699 38.499 -15.5s15.5 -23.166 15.5 -38.499v-658c0 -14 -5.16699 -26.167 -15.5 -36.5s-23.166 -15.5 -38.499 -15.5h-0.5
h-1.5c-1.33301 0 -2.5 -0.5 -3.5 -1.5s-1.5 -3.16699 -1.5 -6.5c0 -2.66699 0.5 -4.5 1.5 -5.5s2.16699 -1.5 3.5 -1.5h1.5h0.5c19.333 0 35.5 6.66699 48.5 20s19.5 29 19.5 47v0z" />
    <glyph glyph-name="asterisk" unicode="*" horiz-adv-x="296" 
d="M278 528c-3.33301 -5.33301 -7.67285 -10.001 -13.0059 -14.001s-11.666 -6 -18.999 -6c-3.33301 0 -6.83301 0.5 -10.5 1.5s-7.5 2.83301 -11.5 5.5l-38 22v-44c0 -13.333 -4 -23.333 -12 -30s-16.667 -10 -26 -10s-18 3.33301 -26 10s-12 16.667 -12 30v43l-37 -22
c-4 -2 -7.83301 -3.5 -11.5 -4.5s-7.16699 -1.5 -10.5 -1.5c-6.66699 0 -12.834 1.83301 -18.501 5.5s-10.167 8.16699 -13.5 13.5c-1.33301 2 -2.5 4.16699 -3.5 6.5s-1.5 4.83301 -1.5 7.5c-0.666992 1.33301 -1 2.5 -1 3.5v3.5c0 6 1.83301 11.833 5.5 17.5
s8.83398 10.5 15.501 14.5l38 22l-38 22c-7.33301 4 -12.666 9 -15.999 15s-5 12.333 -5 19c0 1.33301 0.166992 2.83301 0.5 4.5s0.833008 3.5 1.5 5.5c0 1.33301 0.5 2.83301 1.5 4.5s1.83301 3.16699 2.5 4.5c3.33301 5.33301 7.83301 10 13.5 14s11.834 6 18.501 6
c3.33301 0 6.83301 -0.5 10.5 -1.5s7.5 -2.83301 11.5 -5.5l37 -21v43c0 13.333 4 23.333 12 30s16.667 10 26 10s18 -3.33301 26 -10s12 -16.667 12 -30v-44l38 22c4 2 7.83301 3.5 11.5 4.5s7.16699 1.5 10.5 1.5c6.66699 0 12.834 -1.83301 18.501 -5.5
s9.83398 -8.16699 12.501 -13.5c1.33301 -2 2.5 -4.16699 3.5 -6.5s1.5 -4.83301 1.5 -7.5c0.666992 -1.33301 1 -2.5 1 -3.5v-3.5c0 -6 -1.66699 -11.833 -5 -17.5s-8.66602 -10.5 -15.999 -14.5l-37 -22l37 -21c6 -3.33301 10.667 -7.33301 14 -12s5.33301 -9.66699 6 -15
c0.666992 -1.33301 1 -2.5 1 -3.5v-3.5c0 -3.33301 -0.5 -6.66602 -1.5 -9.99902s-2.16699 -6.33301 -3.5 -9v0zM239.993 553.999c0 0.666992 0.166992 1.1709 0.5 1.50391s0.5 0.833008 0.5 1.5v0.5v1.5c0 1.33301 -0.333008 2.33301 -1 3s-1.66699 1.33398 -3 2.00098
l-84 48l84 48l0.5 0.5l0.5 0.5c1.33301 0.666992 2.33301 1.33398 3 2.00098s0.666992 1.66699 0 3v2c0 0.666992 -0.333008 1.33398 -1 2.00098c-0.666992 1.33301 -1.5 2.33301 -2.5 3s-2.16699 1 -3.5 1h-0.5h-1.5c-0.666992 -0.666992 -1.16699 -1 -1.5 -1h-0.5l-85 -49
v97c0 2 -0.333008 3.83301 -1 5.5s-2.66699 2.5 -6 2.5s-5.33301 -0.833008 -6 -2.5s-1 -3.5 -1 -5.5v-96l-84 48l-0.5 0.5c-0.333008 0.333008 -0.833008 0.5 -1.5 0.5c-0.666992 0.666992 -1.16699 1 -1.5 1h-0.5c-0.666992 0 -1.16699 -0.166992 -1.5 -0.5l-0.5 -0.5
c-0.666992 -0.666992 -1.16699 -1.33398 -1.5 -2.00098s-0.833008 -1.33398 -1.5 -2.00098s-1.16699 -1.5 -1.5 -2.5s-0.5 -1.83301 -0.5 -2.5s0.5 -1.33398 1.5 -2.00098s1.83301 -1.33398 2.5 -2.00098l85 -49l-85 -49c-0.666992 -0.666992 -1.5 -1.33398 -2.5 -2.00098
s-1.5 -1.66699 -1.5 -3c0 -0.666992 0.166992 -1.33398 0.5 -2.00098l1.5 -3c0.666992 -0.666992 1.16699 -1.33398 1.5 -2.00098s0.833008 -1 1.5 -1c0 -0.666992 0.166992 -1 0.5 -1h1.5h0.5c0.333008 0 0.833008 0.333008 1.5 1c0.666992 0 1.16699 0.166992 1.5 0.5
l0.5 0.5l84 48v-96c0 -2 0.333008 -3.83301 1 -5.5s2.66699 -2.5 6 -2.5s5.33301 0.833008 6 2.5s1 3.5 1 5.5v97l85 -49l0.5 -0.5c0.333008 -0.333008 0.833008 -0.5 1.5 -0.5c0.666992 -0.666992 1.16699 -1 1.5 -1h0.5c1.33301 0 2.5 0.5 3.5 1.5
s1.83301 2.16699 2.5 3.5v0z" />
    <glyph glyph-name="plus" unicode="+" horiz-adv-x="500" 
 />
    <glyph glyph-name="comma" unicode="," horiz-adv-x="125" 
d="M114 23l-35.0049 -75c-4 -8 -9 -13.833 -15 -17.5s-12.667 -5.5 -20 -5.5c-1.33301 0 -2.66602 0.166992 -3.99902 0.5s-2.66602 0.5 -3.99902 0.5c-1.33301 0.666992 -2.66602 1.16699 -3.99902 1.5s-2.66602 0.833008 -3.99902 1.5c-6.66699 2.66699 -12 7 -16 13
s-6 13 -6 21c0 2.66699 0.333008 5.5 1 8.5s1.66699 6.16699 3 9.5l14 28c-4.66699 5.33301 -8.33398 11.5 -11.001 18.5s-4 13.833 -4 20.5c0 2 0.166992 3.83301 0.5 5.5s0.5 3.5 0.5 5.5c0.666992 2 1.33398 3.83301 2.00098 5.5s1.33398 3.5 2.00098 5.5
c5.33301 10.667 12.5 18.667 21.5 24s18.833 8 29.5 8c4 0 8 -0.5 12 -1.5s7.66699 -2.16699 11 -3.5c10 -4.66699 17.667 -11.5 23 -20.5s8 -18.833 8 -29.5c0 -4 -0.333008 -8 -1 -12s-2 -8 -4 -12v0zM76.9951 46c0 0.666992 0.168945 1.50293 0.501953 2.50293
s0.5 1.83301 0.5 2.5c0.666992 0.666992 1 1.5 1 2.5v2.5c0 4.66699 -1.16699 9 -3.5 13s-5.83301 7 -10.5 9c-0.666992 0.666992 -1.5 1.16699 -2.5 1.5s-1.83301 0.5 -2.5 0.5c-1.33301 0.666992 -2.33301 1 -3 1h-3c-4.66699 -0.666992 -8.83398 -2.16699 -12.501 -4.5
s-6.5 -5.5 -8.5 -9.5c-0.666992 -1.33301 -1.16699 -3 -1.5 -5s-0.5 -4 -0.5 -6c0 -4.66699 1.16699 -9 3.5 -13s5.83301 -7 10.5 -9c1.33301 -0.666992 2.83301 -1.16699 4.5 -1.5s3.16699 -0.5 4.5 -0.5l-25 -55c-0.666992 -0.666992 -1.16699 -1.33398 -1.5 -2.00098
s-0.5 -1.33398 -0.5 -2.00098c0 -1.33301 0.5 -2.33301 1.5 -3s2.16699 -1.33398 3.5 -2.00098c0.666992 0 1.16699 -0.166992 1.5 -0.5s0.833008 -0.5 1.5 -0.5h0.5h1.5c1.33301 0 2.16602 0.5 2.49902 1.5s0.833008 2.16699 1.5 3.5l36 74v0zM63.9971 52.0029
l-1.99805 -3.99902c-0.666992 0 -1.33398 -0.166992 -2.00098 -0.5l-1 -0.5c-0.666992 -0.666992 -1.33398 -1 -2.00098 -1h-2h-1.5c-0.333008 0 -1.16602 0.333008 -2.49902 1c-2 1.33301 -3.5 2.83301 -4.5 4.5s-1.5 3.5 -1.5 5.5v0.5c0 0.333008 0.333008 0.833008 1 1.5
v1.5v0.5c1.33301 1.33301 2.66602 2.5 3.99902 3.5s3 1.5 5 1.5h0.5h1.5c0.666992 0 1.16699 -0.166992 1.5 -0.5l0.5 -0.5c2 -0.666992 3.5 -1.83398 4.5 -3.50098s1.5 -3.5 1.5 -5.5v-0.5v-1.5c0 -0.666992 -0.166992 -1.16699 -0.5 -1.5l-0.5 -0.5v0z" />
    <glyph glyph-name="hyphen" unicode="-" horiz-adv-x="227" 
d="M217 375c0 -9.33301 -3.33301 -18 -10 -26s-16.667 -12 -30 -12h-127c-12.667 0 -22.5 4 -29.5 12s-10.5 16.667 -10.5 26s3.5 18 10.5 26s16.833 12 29.5 12h127c13.333 0 23.333 -4 30 -12s10 -16.667 10 -26v0zM174 385c0 3.33301 -0.666992 5.33301 -2 6s-3 1 -5 1
h-126c-2 0 -3.83301 -0.333008 -5.5 -1s-2.5 -2.66699 -2.5 -6c0 -4 0.833008 -6.33301 2.5 -7s3.5 -1 5.5 -1h126c2 0 3.66699 0.333008 5 1s2 3 2 7v0z" />
    <glyph glyph-name="period" unicode="." horiz-adv-x="122" 
d="M116 47c0 -14.667 -5.33301 -27.334 -16 -38.001s-23.667 -16 -39 -16s-28.333 5.33301 -39 16s-16 23.334 -16 38.001c0 15.333 5.33301 28.333 16 39s23.667 16 39 16s28.333 -5.33301 39 -16s16 -23.667 16 -39v0zM75 56c0 7.33301 -2.33301 13.333 -7 18
s-10.334 7 -17.001 7s-12.334 -2.33301 -17.001 -7s-7 -10.667 -7 -18c0 -6.66699 2.33301 -12.334 7 -17.001s10.334 -7 17.001 -7s12.334 2.33301 17.001 7s7 10.334 7 17.001v0zM61 56c0 -2.66699 -0.833008 -4.83398 -2.5 -6.50098s-4.16699 -2.5 -7.5 -2.5
c-2.66699 0 -5 0.833008 -7 2.5s-3 3.83398 -3 6.50098c0 3.33301 1 5.83301 3 7.5s4.33301 2.5 7 2.5c3.33301 0 5.83301 -0.833008 7.5 -2.5s2.5 -4.16699 2.5 -7.5v0z" />
    <glyph glyph-name="slash" unicode="/" horiz-adv-x="500" 
 />
    <glyph glyph-name="zero" unicode="0" horiz-adv-x="416" 
d="M397 189c0 -52 -18.5 -96.5 -55.5 -133.5s-81.5 -55.5 -133.5 -55.5c-51.333 0 -95.666 18.5 -132.999 55.5s-56 81.5 -56 133.5v372c0 51.333 18.667 95.666 56 132.999s81.666 56 132.999 56c52 0 96.5 -18.667 133.5 -56s55.5 -81.666 55.5 -132.999v-372v0zM357 199
v371c0 43.333 -15.667 80.666 -47 111.999s-68.666 47 -111.999 47c-42.667 0 -79.667 -15.667 -111 -47s-47 -68.666 -47 -111.999v-371c0 -43.333 15.667 -80.666 47 -111.999s68.333 -47 111 -47c43.333 0 80.666 15.667 111.999 47s47 68.666 47 111.999v0zM342 199
c0 -39.333 -14.167 -73.166 -42.5 -101.499s-62.166 -42.5 -101.499 -42.5c-38.667 0 -72.167 14.167 -100.5 42.5s-42.5 62.166 -42.5 101.499v371c0 39.333 14.167 73.166 42.5 101.499s61.833 42.5 100.5 42.5c39.333 0 73.166 -14.167 101.499 -42.5
s42.5 -62.166 42.5 -101.499v-371v0zM321 189v372c0 30.667 -11 57.167 -33 79.5s-48.667 33.5 -80 33.5c-30.667 0 -57.167 -11.167 -79.5 -33.5s-33.5 -48.833 -33.5 -79.5v-372c0 -30.667 11.167 -57.167 33.5 -79.5s48.833 -33.5 79.5 -33.5c31.333 0 58 11.167 80 33.5
s33 48.833 33 79.5v0z" />
    <glyph glyph-name="one" unicode="1" horiz-adv-x="185" 
d="M166 38c0 -13.333 -4 -23.166 -12 -29.499s-16.667 -9.5 -26 -9.5s-18 3.16699 -26 9.5s-12 16.166 -12 29.499v636h-42c-12.667 0 -22.5 4 -29.5 12s-10.5 16.667 -10.5 26s3.5 18 10.5 26s16.833 12 29.5 12h118v-712v0zM126 48v673c0 2 -0.833008 3.83301 -2.5 5.5
s-3.5 2.5 -5.5 2.5h-79c-2 0 -3.83301 -0.333008 -5.5 -1s-2.5 -3 -2.5 -7c0 -3.33301 0.833008 -5.33301 2.5 -6s3.5 -1 5.5 -1h72v-666c0 -2 0.333008 -3.83301 1 -5.5s2.66699 -2.5 6 -2.5c4 0 6.33301 0.833008 7 2.5s1 3.5 1 5.5v0z" />
    <glyph glyph-name="two" unicode="2" horiz-adv-x="416" 
d="M397 414c0 -25.333 -6.49902 -46.5029 -19.499 -63.5029s-27.167 -32.5 -42.5 -46.5c-2 -1.33301 -3.83301 -2.66602 -5.5 -3.99902s-3.16699 -2.66602 -4.5 -3.99902l-4 -4c-2 -2 -5 -4.66699 -9 -8l-141 -127c-12 -10.667 -21.167 -22.834 -27.5 -36.501
s-10.5 -28.5 -12.5 -44.5h221c13.333 0 23.333 -4 30 -12s10 -16.667 10 -26s-3.33301 -18 -10 -26s-16.667 -12 -30 -12h-299v38c0 34 4.66699 65.833 14 95.5s27 56.167 53 79.5l141 128c0.666992 0.666992 2.5 2.33398 5.5 5.00098s6.16699 5.33398 9.5 8.00098l3.5 3.5
c1 1 2.16699 1.83301 3.5 2.5c9.33301 8.66699 18 17.5 26 26.5s12 18.167 12 27.5v148c0 31.333 -11 58 -33 80s-48.667 33 -80 33c-30.667 0 -57.167 -11 -79.5 -33s-33.5 -48.667 -33.5 -80v-69c0 -13.333 -4 -23.333 -12 -30s-16.667 -10 -26 -10s-18 3.33301 -26 10
s-12 16.667 -12 30v69c0 52 18.667 96.5 56 133.5s81.666 55.5 132.999 55.5c52 0 96.5 -18.5 133.5 -55.5s55.5 -81.5 55.5 -133.5v-148v0zM357.001 423.997l0.000976562 148.002c0 43.333 -15.667 80.5 -47 111.5s-68.666 46.5 -111.999 46.5
c-42.667 0 -79.667 -15.5 -111 -46.5s-47 -68.167 -47 -111.5v-69c0 -2 0.333008 -3.83301 1 -5.5s2.66699 -2.5 6 -2.5c4 0 6.33301 0.833008 7 2.5s1 3.5 1 5.5v69c0 39.333 14.167 73.166 42.5 101.499s61.833 42.5 100.5 42.5c39.333 0 73.166 -14.167 101.499 -42.5
s42.5 -62.166 42.5 -101.499v-148c0 -16.667 -5.33301 -31.334 -16 -44.001s-22.334 -24.667 -35.001 -36c-0.666992 -0.666992 -1.5 -1.33398 -2.5 -2.00098s-1.83301 -1.33398 -2.5 -2.00098c-1.33301 -0.666992 -2.66602 -1.66699 -3.99902 -3l-3 -3l-3.5 -3.5l-3.5 -3.5
l-141 -127c-22.667 -20.667 -37.834 -43.834 -45.501 -69.501s-11.5 -53.167 -11.5 -82.5c0 -2 0.5 -3.66699 1.5 -5s2.16699 -2.33301 3.5 -3h1.5h0.5h261c2 0 3.66699 0.333008 5 1s2 3 2 7c0 3.33301 -0.666992 5.33301 -2 6s-3 1 -5 1h-254
c0.666992 26 4.5 50.333 11.5 73s20.833 43 41.5 61l140 128c2 2 3.83301 3.5 5.5 4.5s3.16699 2.16699 4.5 3.5c0.666992 0.666992 1.5 1.33398 2.5 2.00098s1.83301 1.33398 2.5 2.00098c2 1.33301 3.83301 2.83301 5.5 4.5l5.5 5.5
c12.667 11.333 24.167 23.833 34.5 37.5s15.5 29.5 15.5 47.5v0z" />
    <glyph glyph-name="three" unicode="3" horiz-adv-x="426" 
d="M407 750l-137.001 -228.999c37.333 -12.667 68 -35.667 92 -69s36 -70 36 -110v-153c0 -52 -18.667 -96.5 -56 -133.5s-81.666 -55.5 -132.999 -55.5s-95.833 18.667 -133.5 56s-56.5 81.666 -56.5 132.999c0 13.333 4 23.333 12 30s17 10 27 10
c9.33301 0 18 -3.33301 26 -10s12 -16.667 12 -30c0 -30.667 11.167 -57.167 33.5 -79.5s48.833 -33.5 79.5 -33.5s57 11.167 79 33.5s33 48.833 33 79.5v153c0 30.667 -11 57.167 -33 79.5s-48.333 33.5 -79 33.5h-68l131 219h-177c-12.667 0 -22.334 4 -29.001 12
s-10 16.667 -10 26s3.33301 18 10 26s16.334 12 29.001 12h312v0zM356.999 199.001l-0.000976562 152.997c0 40.667 -14 76.334 -42 107.001s-62.667 47.334 -104 50.001l125 209c0.666992 0.666992 1 1.33398 1 2.00098v2l-0.5 0.5
c-0.333008 0.333008 -0.5 0.833008 -0.5 1.5c-0.666992 1.33301 -1.5 2.5 -2.5 3.5s-2.16699 1.5 -3.5 1.5h-244c-2 0 -3.66699 -0.333008 -5 -1s-2 -3 -2 -7c0 -3.33301 0.666992 -5.33301 2 -6s3 -1 5 -1h231l-124 -208c-0.666992 -0.666992 -1 -1.16699 -1 -1.5v-1.5
c0 -2 0.666992 -3.83301 2 -5.5s3 -2.5 5 -2.5c39.333 0 73.166 -14 101.499 -42s42.5 -61.667 42.5 -101v-153c0 -39.333 -14.167 -73.166 -42.5 -101.499s-62.166 -42.5 -101.499 -42.5s-73.166 14.167 -101.499 42.5s-42.5 62.166 -42.5 101.499v0.5v1.5
c0 1.33301 -0.5 2.5 -1.5 3.5s-2.83301 1.5 -5.5 1.5s-4.5 -0.5 -5.5 -1.5s-1.5 -2.16699 -1.5 -3.5v-1.5v-0.5c0 -43.333 15.5 -80.666 46.5 -111.999s68.167 -47 111.5 -47s80.5 15.667 111.5 47s46.5 68.666 46.5 111.999v0z" />
    <glyph glyph-name="four" unicode="4" horiz-adv-x="441" 
d="M421 257c0 -9.33301 -3.33203 -18 -9.99902 -26s-16.667 -12 -30 -12h-36v-181c0 -13.333 -4 -23.166 -12 -29.499s-16.667 -9.5 -26 -9.5s-18 3.16699 -26 9.5s-12 16.166 -12 29.499v181h-249v340c0 52 18.667 96.667 56 134s81.666 56 132.999 56h136v-454h36
c13.333 0 23.333 -4 30 -12s10 -16.667 10 -26v0zM379.001 267c0 3.33301 -0.833984 5.33301 -2.50098 6s-3.5 1 -5.5 1h-66v446c0 2 -0.666992 3.66699 -2 5s-3 2 -5 2h-98c-43.333 0 -80.666 -15.5 -111.999 -46.5s-47 -68.167 -47 -111.5v-302
c0 -2 0.833008 -3.83301 2.5 -5.5s3.5 -2.5 5.5 -2.5h241v-211c0 -2 0.333008 -3.83301 1 -5.5s3 -2.5 7 -2.5c3.33301 0 5.33301 0.833008 6 2.5s1 3.5 1 5.5v211h66c2 0 3.83301 0.333008 5.5 1s2.5 3 2.5 7v0zM290 274l-233.999 0.000976562v295
c0 39.333 14.167 73.166 42.5 101.499s62.166 42.5 101.499 42.5h90v-439v0zM269.001 295.001v377h-60c-30.667 0 -57.167 -11 -79.5 -33s-33.5 -48.667 -33.5 -80v-264h173v0z" />
    <glyph glyph-name="five" unicode="5" horiz-adv-x="365" 
d="M349 189c0 -51.333 -18.667 -95.668 -56 -133.001s-82 -56 -134 -56h-103c-12.667 0 -22.334 4 -29.001 12s-10 16.667 -10 26s3.33301 18 10 26s16.334 12 29.001 12h103c31.333 0 58 11.167 80 33.5s33 48.833 33 79.5v153c0 30.667 -11 57.167 -33 79.5
s-48.667 33.5 -80 33.5h-141v74v74v73v74h206c13.333 0 23.166 -4 29.499 -12s9.5 -16.667 9.5 -26s-3.16699 -18 -9.5 -26s-16.166 -12 -29.499 -12h-129v-143h64c52 0 96.667 -18.667 134 -56s56 -81.666 56 -132.999v-153v0zM308 198.998v153
c0 43.333 -15.5 80.5 -46.5 111.5s-68.167 46.5 -111.5 46.5h-96v204h160h0.5h1.5c1.33301 0 2.5 0.5 3.5 1.5s1.5 2.83301 1.5 5.5c0 3.33301 -0.5 5.5 -1.5 6.5s-2.16699 1.5 -3.5 1.5h-1.5h-0.5h-167c-2 0 -3.66699 -0.833008 -5 -2.5s-2 -3.5 -2 -5.5v-218
c0 -2 0.666992 -3.83301 2 -5.5s3 -2.5 5 -2.5h103c39.333 0 73.166 -14 101.499 -42s42.5 -61.667 42.5 -101v-153c0 -39.333 -14.167 -73.166 -42.5 -101.499s-62.166 -42.5 -101.499 -42.5h-103c-2 0 -3.66699 -0.333008 -5 -1s-2 -2.66699 -2 -6
c0 -4 0.666992 -6.33301 2 -7s3 -1 5 -1h103c43.333 0 80.5 15.667 111.5 47s46.5 68.666 46.5 111.999v0z" />
    <glyph glyph-name="six" unicode="6" horiz-adv-x="416" 
d="M397 189c0 -52 -18.4961 -96.5 -55.4961 -133.5s-81.5 -55.5 -133.5 -55.5c-51.333 0 -95.666 18.5 -132.999 55.5s-56 81.5 -56 133.5v372c0 51.333 18.667 95.666 56 132.999s81.666 56 132.999 56c25.333 0 49.666 -4.83301 72.999 -14.5s43.666 -23.5 60.999 -41.5
c2 -2 3.83301 -4.16699 5.5 -6.5s3.16699 -4.83301 4.5 -7.5c0.666992 -2.66699 1.33398 -5.16699 2.00098 -7.5s1 -4.5 1 -6.5c-0.666992 -4.66699 -2 -9.5 -4 -14.5s-4.66699 -9.16699 -8 -12.5s-7.33301 -6 -12 -8s-9.66699 -3 -15 -3c-4.66699 0 -9.33398 1 -14.001 3
s-9.33398 5 -14.001 9c-10.667 11.333 -22.834 19.833 -36.501 25.5s-28.167 8.5 -43.5 8.5c-30.667 0 -57.167 -11.167 -79.5 -33.5s-33.5 -48.833 -33.5 -79.5v-68c16 12 33.667 21.333 53 28s39.333 10 60 10c52 0 96.5 -18.667 133.5 -56s55.5 -81.666 55.5 -132.999
v-153v0zM357.004 199v152.998c0 43.333 -15.667 80.5 -47 111.5s-68.666 46.5 -111.999 46.5c-31.333 0 -59.833 -8.66699 -85.5 -26s-44.834 -39.666 -57.501 -66.999v153c0 39.333 14.167 73.166 42.5 101.499s61.833 42.5 100.5 42.5c19.333 0 37.833 -3.66699 55.5 -11
s33.167 -17.666 46.5 -30.999l1.5 -1.5c0.333008 -0.333008 0.833008 -0.5 1.5 -0.5c0 -0.666992 0.166992 -1 0.5 -1h1.5c0.666992 0 1.5 0.333008 2.5 1s1.83301 1.33398 2.5 2.00098c1.33301 1.33301 2.16602 2.5 2.49902 3.5s0.5 1.83301 0.5 2.5
c0 1.33301 -0.166992 2.16602 -0.5 2.49902s-1.16602 0.833008 -2.49902 1.5c-14.667 15.333 -31.667 27 -51 35s-39.666 12 -60.999 12c-42.667 0 -79.667 -15.667 -111 -47s-47 -68.666 -47 -111.999v-371c0 -43.333 15.667 -80.666 47 -111.999s68.333 -47 111 -47
c43.333 0 80.666 15.667 111.999 47s47 68.666 47 111.999v0zM342.004 198.998c0 -39.333 -14.167 -73.166 -42.5 -101.499s-62.166 -42.5 -101.499 -42.5c-38.667 0 -72.167 14.167 -100.5 42.5s-42.5 62.166 -42.5 101.499v76.5v76.5c0 39.333 14.167 73 42.5 101
s61.833 42 100.5 42c39.333 0 73.166 -14 101.499 -42s42.5 -61.667 42.5 -101v-153v0zM321.004 188.998v153c0 30.667 -11 57.167 -33 79.5s-48.667 33.5 -80 33.5c-30.667 0 -57.167 -11.167 -79.5 -33.5s-33.5 -48.833 -33.5 -79.5v-153
c0 -30.667 11.167 -57.167 33.5 -79.5s48.833 -33.5 79.5 -33.5c31.333 0 58 11.167 80 33.5s33 48.833 33 79.5v0z" />
    <glyph glyph-name="seven" unicode="7" horiz-adv-x="442" 
d="M422 750l-328.004 -728c-4 -8.66699 -9 -14.667 -15 -18s-12.667 -5 -20 -5c-1.33301 0 -2.66602 0.166992 -3.99902 0.5s-2.66602 0.5 -3.99902 0.5s-2.66602 0.166992 -3.99902 0.5s-2.66602 0.833008 -3.99902 1.5c-6.66699 2.66699 -12.167 7 -16.5 13
s-6.5 13 -6.5 21c0 2 0.166992 4 0.5 6s0.833008 4 1.5 6c0 0.666992 0.166992 1.66699 0.5 3s0.833008 2.33301 1.5 3l280 620h-234c-12.667 0 -22.5 4 -29.5 12s-10.5 16.667 -10.5 26s3.5 18 10.5 26s16.833 12 29.5 12h352v0zM359.996 718
c0.666992 1.33301 0.99707 2.5 0.99707 3.5v2.5c0 1.33301 -0.5 2.5 -1.5 3.5s-3.16699 1.5 -6.5 1.5h-292c-2 0 -3.83301 -0.333008 -5.5 -1s-2.5 -3 -2.5 -7c0 -3.33301 0.833008 -5.33301 2.5 -6s3.5 -1 5.5 -1h281l-299 -663c0 -0.666992 -0.166992 -1.16699 -0.5 -1.5
l-0.5 -0.5c-0.666992 -0.666992 -1 -1.16699 -1 -1.5v-1.5c0 -0.666992 0.166992 -1.16699 0.5 -1.5l0.5 -0.5c0.666992 -0.666992 1.33398 -1.16699 2.00098 -1.5s1.33398 -0.833008 2.00098 -1.5c1.33301 -0.666992 2.33301 -1 3 -1h2c1.33301 0 2.33301 0.5 3 1.5
s1.33398 2.16699 2.00098 3.5l304 673v0z" />
    <glyph glyph-name="eight" unicode="8" horiz-adv-x="416" 
d="M397 189c0 -52 -18.501 -96.5 -55.501 -133.5s-81.5 -55.5 -133.5 -55.5c-51.333 0 -95.666 18.5 -132.999 55.5s-56 81.5 -56 133.5v153c0 32.667 7.83301 62.834 23.5 90.501s35.834 49.834 60.501 66.501c-12.667 13.333 -23 28.833 -31 46.5s-12 36.5 -12 56.5
c0 40.667 14.5 75.5 43.5 104.5s63.833 43.5 104.5 43.5s75.5 -14.5 104.5 -43.5s43.5 -63.833 43.5 -104.5c0 -20 -3.83301 -38.833 -11.5 -56.5s-18.167 -33.167 -31.5 -46.5c25.333 -16.667 45.666 -38.834 60.999 -66.501s23 -57.834 23 -90.501v-153v0zM356.999 199
l0.000976562 153c0 35.333 -11 67.166 -33 95.499s-49.667 47.166 -83 56.499c21.333 8.66699 39 22.667 53 42s21 41.333 21 66c0 32 -11.5 59.5 -34.5 82.5s-50.5 34.5 -82.5 34.5c-31.333 0 -58.5 -11.5 -81.5 -34.5s-34.5 -50.5 -34.5 -82.5c0 -24.667 7 -46.667 21 -66
s31.667 -33.333 53 -42c-33.333 -9.33301 -61 -28.166 -83 -56.499s-33 -60.166 -33 -95.499v-153c0 -43.333 15.667 -80.666 47 -111.999s68.333 -47 111 -47c43.333 0 80.666 15.667 111.999 47s47 68.666 47 111.999v0zM342 199
c0 -39.333 -14.167 -73.166 -42.5 -101.499s-62.166 -42.5 -101.499 -42.5c-38.667 0 -72.167 14.167 -100.5 42.5s-42.5 62.166 -42.5 101.499v153c0 39.333 14.167 73 42.5 101s61.833 42 100.5 42c39.333 0 73.166 -14 101.499 -42s42.5 -61.667 42.5 -101v-153v0z
M321 189v153c0 30.667 -11 57.167 -33 79.5s-48.667 33.5 -80 33.5c-30.667 0 -57.167 -11.167 -79.5 -33.5s-33.5 -48.833 -33.5 -79.5v-153c0 -30.667 11.167 -57.167 33.5 -79.5s48.833 -33.5 79.5 -33.5c31.333 0 58 11.167 80 33.5s33 48.833 33 79.5v0zM301 612
c0 -28 -10.167 -52 -30.5 -72s-44.5 -30 -72.5 -30c-27.333 0 -51.166 10 -71.499 30s-30.5 44 -30.5 72s10.167 52 30.5 72s44.166 30 71.499 30c28 0 52.167 -10 72.5 -30s30.5 -44 30.5 -72v0zM279 602c0 19.333 -7 36.166 -21 50.499s-30.667 21.5 -50 21.5
s-36 -7.16699 -50 -21.5s-21 -31.166 -21 -50.499s7 -36 21 -50s30.667 -21 50 -21s36 7 50 21s21 30.667 21 50v0z" />
    <glyph glyph-name="nine" unicode="9" horiz-adv-x="416" 
d="M397 189c0 -51.333 -18.668 -95.666 -56.001 -132.999s-81.666 -56 -132.999 -56c-24.667 0 -48.667 4.83301 -72 14.5s-44 23.167 -62 40.5c-4.66699 4.66699 -7.83398 9.5 -9.50098 14.5s-2.5 9.83301 -2.5 14.5c0 5.33301 1 10.333 3 15s4.66699 8.66699 8 12
s7.5 6 12.5 8s10.167 3 15.5 3c1.33301 0 2.83301 -0.166992 4.5 -0.5s3.16699 -0.5 4.5 -0.5c3.33301 -1.33301 6.5 -2.83301 9.5 -4.5s5.83301 -4.16699 8.5 -7.5c11.333 -10.667 23.833 -18.834 37.5 -24.501s27.834 -8.5 42.501 -8.5c30.667 0 57.167 11.167 79.5 33.5
s33.5 48.833 33.5 79.5v68c-16 -12 -33.5 -21.333 -52.5 -28s-39.167 -10 -60.5 -10c-51.333 0 -95.666 18.5 -132.999 55.5s-56 81.5 -56 133.5v153c0 51.333 18.667 95.666 56 132.999s81.666 56 132.999 56c52 0 96.5 -18.667 133.5 -56s55.5 -81.666 55.5 -132.999v-372
v0zM356.999 199l0.000976562 370.997c0 43.333 -15.667 80.666 -47 111.999s-68.666 47 -111.999 47c-42.667 0 -79.667 -15.667 -111 -47s-47 -68.666 -47 -111.999v-153c0 -42.667 15.667 -79.667 47 -111s68.333 -47 111 -47c32 0 60.833 8.83301 86.5 26.5
s44.834 39.834 57.501 66.501v-153c0 -39.333 -14.167 -73.166 -42.5 -101.499s-62.166 -42.5 -101.499 -42.5c-18.667 0 -36.834 3.66699 -54.501 11s-33.167 17.666 -46.5 30.999l-1.5 1.5l-0.5 0.5c-0.666992 0.666992 -1.16699 1 -1.5 1h-1.5
c-0.666992 0 -1.33398 -0.166992 -2.00098 -0.5s-1.66699 -1.16602 -3 -2.49902c-0.666992 -1.33301 -1.33398 -2.5 -2.00098 -3.5s-1 -1.83301 -1 -2.5s0.166992 -1.16699 0.5 -1.5l1.5 -1.5l0.5 -0.5l0.5 -0.5c14.667 -14.667 31.667 -26.167 51 -34.5
s39.333 -12.5 60 -12.5c43.333 0 80.666 15.833 111.999 47.5s47 68.834 47 111.501v0zM342 416.997c0 -38.667 -14.167 -72.167 -42.5 -100.5s-62.166 -42.5 -101.499 -42.5c-38.667 0 -72.167 14.167 -100.5 42.5s-42.5 61.833 -42.5 100.5v153
c0 39.333 14.167 73.166 42.5 101.499s61.833 42.5 100.5 42.5c39.333 0 73.166 -14.167 101.499 -42.5s42.5 -62.166 42.5 -101.499v-153v0zM321 407.997v76.5v76.5c0 30.667 -11 57.167 -33 79.5s-48.667 33.5 -80 33.5c-30.667 0 -57.167 -11.167 -79.5 -33.5
s-33.5 -48.833 -33.5 -79.5v-153c0 -30.667 11.167 -57.167 33.5 -79.5s48.833 -33.5 79.5 -33.5c31.333 0 58 11.167 80 33.5s33 48.833 33 79.5v0z" />
    <glyph glyph-name="colon" unicode=":" horiz-adv-x="122" 
d="M116 47c0 -14.667 -5.33301 -27.334 -16 -38.001s-23.667 -16 -39 -16s-28.333 5.33301 -39 16s-16 23.334 -16 38.001c0 15.333 5.33301 28.333 16 39s23.667 16 39 16s28.333 -5.33301 39 -16s16 -23.667 16 -39v0zM75 56c0 7.33301 -2.33301 13.333 -7 18
s-10.334 7 -17.001 7s-12.334 -2.33301 -17.001 -7s-7 -10.667 -7 -18c0 -6.66699 2.33301 -12.334 7 -17.001s10.334 -7 17.001 -7s12.334 2.33301 17.001 7s7 10.334 7 17.001v0zM61 56c0 -2.66699 -0.833008 -4.83398 -2.5 -6.50098s-4.16699 -2.5 -7.5 -2.5
c-2.66699 0 -5 0.833008 -7 2.5s-3 3.83398 -3 6.50098c0 3.33301 1 5.83301 3 7.5s4.33301 2.5 7 2.5c3.33301 0 5.83301 -0.833008 7.5 -2.5s2.5 -4.16699 2.5 -7.5v0zM116 237c0 -14.667 -5.33301 -27.5 -16 -38.5s-23.667 -16.5 -39 -16.5s-28.333 5.5 -39 16.5
s-16 23.833 -16 38.5c0 15.333 5.33301 28.333 16 39s23.667 16 39 16s28.333 -5.33301 39 -16s16 -23.667 16 -39v0zM75 246c0 7.33301 -2.33301 13.333 -7 18s-10.334 7 -17.001 7s-12.334 -2.33301 -17.001 -7s-7 -10.667 -7 -18c0 -6.66699 2.33301 -12.334 7 -17.001
s10.334 -7 17.001 -7s12.334 2.33301 17.001 7s7 10.334 7 17.001v0zM61 246c0 -2.66699 -0.833008 -4.83398 -2.5 -6.50098s-4.16699 -2.5 -7.5 -2.5c-2.66699 0 -5 0.833008 -7 2.5s-3 3.83398 -3 6.50098c0 3.33301 1 5.83301 3 7.5s4.33301 2.5 7 2.5
c3.33301 0 5.83301 -0.833008 7.5 -2.5s2.5 -4.16699 2.5 -7.5v0z" />
    <glyph glyph-name="semicolon" unicode=";" horiz-adv-x="125" 
d="M114 23l-35.0049 -75c-4 -8 -9 -13.833 -15 -17.5s-12.667 -5.5 -20 -5.5c-1.33301 0 -2.66602 0.166992 -3.99902 0.5s-2.66602 0.5 -3.99902 0.5c-1.33301 0.666992 -2.66602 1.16699 -3.99902 1.5s-2.66602 0.833008 -3.99902 1.5c-6.66699 2.66699 -12 7 -16 13
s-6 13 -6 21c0 2.66699 0.333008 5.5 1 8.5s1.66699 6.16699 3 9.5l14 28c-4.66699 5.33301 -8.33398 11.5 -11.001 18.5s-4 13.833 -4 20.5c0 2 0.166992 3.83301 0.5 5.5s0.5 3.5 0.5 5.5c0.666992 2 1.33398 3.83301 2.00098 5.5s1.33398 3.5 2.00098 5.5
c5.33301 10.667 12.5 18.667 21.5 24s18.833 8 29.5 8c4 0 8 -0.5 12 -1.5s7.66699 -2.16699 11 -3.5c10 -4.66699 17.667 -11.5 23 -20.5s8 -18.833 8 -29.5c0 -4 -0.333008 -8 -1 -12s-2 -8 -4 -12v0zM76.9951 46c0 0.666992 0.168945 1.50293 0.501953 2.50293
s0.5 1.83301 0.5 2.5c0.666992 0.666992 1 1.5 1 2.5v2.5c0 4.66699 -1.16699 9 -3.5 13s-5.83301 7 -10.5 9c-0.666992 0.666992 -1.5 1.16699 -2.5 1.5s-1.83301 0.5 -2.5 0.5c-1.33301 0.666992 -2.33301 1 -3 1h-3c-4.66699 -0.666992 -8.83398 -2.16699 -12.501 -4.5
s-6.5 -5.5 -8.5 -9.5c-0.666992 -1.33301 -1.16699 -3 -1.5 -5s-0.5 -4 -0.5 -6c0 -4.66699 1.16699 -9 3.5 -13s5.83301 -7 10.5 -9c1.33301 -0.666992 2.83301 -1.16699 4.5 -1.5s3.16699 -0.5 4.5 -0.5l-25 -55c-0.666992 -0.666992 -1.16699 -1.33398 -1.5 -2.00098
s-0.5 -1.33398 -0.5 -2.00098c0 -1.33301 0.5 -2.33301 1.5 -3s2.16699 -1.33398 3.5 -2.00098c0.666992 0 1.16699 -0.166992 1.5 -0.5s0.833008 -0.5 1.5 -0.5h0.5h1.5c1.33301 0 2.16602 0.5 2.49902 1.5s0.833008 2.16699 1.5 3.5l36 74v0zM63.9971 52.0029
l-1.99805 -3.99902c-0.666992 0 -1.33398 -0.166992 -2.00098 -0.5l-1 -0.5c-0.666992 -0.666992 -1.33398 -1 -2.00098 -1h-2h-1.5c-0.333008 0 -1.16602 0.333008 -2.49902 1c-2 1.33301 -3.5 2.83301 -4.5 4.5s-1.5 3.5 -1.5 5.5v0.5c0 0.333008 0.333008 0.833008 1 1.5
v1.5v0.5c1.33301 1.33301 2.66602 2.5 3.99902 3.5s3 1.5 5 1.5h0.5h1.5c0.666992 0 1.16699 -0.166992 1.5 -0.5l0.5 -0.5c2 -0.666992 3.5 -1.83398 4.5 -3.50098s1.5 -3.5 1.5 -5.5v-0.5v-1.5c0 -0.666992 -0.166992 -1.16699 -0.5 -1.5l-0.5 -0.5v0zM115.999 237.004
c0 -14.667 -5.33301 -27.5 -16 -38.5s-23.667 -16.5 -39 -16.5s-28.333 5.5 -39 16.5s-16 23.833 -16 38.5c0 15.333 5.33301 28.333 16 39s23.667 16 39 16s28.333 -5.33301 39 -16s16 -23.667 16 -39v0zM74.999 246.004c0 7.33301 -2.33301 13.333 -7 18
s-10.334 7 -17.001 7s-12.334 -2.33301 -17.001 -7s-7 -10.667 -7 -18c0 -6.66699 2.33301 -12.334 7 -17.001s10.334 -7 17.001 -7s12.334 2.33301 17.001 7s7 10.334 7 17.001v0zM60.999 246.004c0 -2.66699 -0.833008 -4.83398 -2.5 -6.50098s-4.16699 -2.5 -7.5 -2.5
c-2.66699 0 -5 0.833008 -7 2.5s-3 3.83398 -3 6.50098c0 3.33301 1 5.83301 3 7.5s4.33301 2.5 7 2.5c3.33301 0 5.83301 -0.833008 7.5 -2.5s2.5 -4.16699 2.5 -7.5v0z" />
    <glyph glyph-name="less" unicode="&#x3c;" horiz-adv-x="500" 
 />
    <glyph glyph-name="equal" unicode="=" horiz-adv-x="500" 
 />
    <glyph glyph-name="greater" unicode="&#x3e;" horiz-adv-x="500" 
 />
    <glyph glyph-name="question" unicode="?" horiz-adv-x="350" 
d="M230 47c0 -14.667 -5.33301 -27.334 -16 -38.001s-23.667 -16 -39 -16c-14.667 0 -27.5 5.33301 -38.5 16s-16.5 23.334 -16.5 38.001c0 15.333 5.5 28.333 16.5 39s23.833 16 38.5 16c15.333 0 28.333 -5.33301 39 -16s16 -23.667 16 -39v0zM190 56
c0 7.33301 -2.33301 13.333 -7 18s-10.334 7 -17.001 7s-12.5 -2.33301 -17.5 -7s-7.5 -10.667 -7.5 -18c0 -6.66699 2.5 -12.334 7.5 -17.001s10.833 -7 17.5 -7s12.334 2.33301 17.001 7s7 10.334 7 17.001v0zM175 56c0 -2.66699 -0.833008 -4.83398 -2.5 -6.50098
s-3.83398 -2.5 -6.50098 -2.5s-5 0.833008 -7 2.5s-3 3.83398 -3 6.50098c0 3.33301 1 5.83301 3 7.5s4.33301 2.5 7 2.5s4.83398 -0.833008 6.50098 -2.5s2.5 -4.16699 2.5 -7.5v0zM334 596l0.000976562 -7.50195c0 -2.33301 -0.333008 -4.83301 -1 -7.5
c-1.33301 -17.333 -5.5 -34.666 -12.5 -51.999s-16.167 -33.333 -27.5 -48l-83 -114v-184c0 -13.333 -4 -23.333 -12 -30s-16.667 -10 -26 -10c-10 0 -19 3.33301 -27 10s-12 16.667 -12 30v194v3.5c0 1 0.333008 2.16699 1 3.5c0 3.33301 0.666992 6.66602 2 9.99902
s3 6.33301 5 9l91 123c8 11.333 14.167 22.833 18.5 34.5s6.5 23.5 6.5 35.5c0 22 -8.16699 40.333 -24.5 55s-35.166 22 -56.499 22c-22.667 0 -42.334 -8 -59.001 -24s-25 -35.667 -25 -59c0 -11.333 2.16699 -22.166 6.5 -32.499s10.5 -19.5 18.5 -27.5
c2 -2 3.83301 -4.16699 5.5 -6.5s3.16699 -4.83301 4.5 -7.5c0.666992 -2.66699 1.33398 -5.16699 2.00098 -7.5s1 -4.5 1 -6.5c-0.666992 -4.66699 -2 -9.5 -4 -14.5s-4.66699 -9.16699 -8 -12.5s-7.33301 -6.16602 -12 -8.49902s-9.66699 -3.5 -15 -3.5
c-4.66699 0 -9.33398 1 -14.001 3s-9.33398 5.33301 -14.001 10c-14 14 -25 30 -33 48s-12.667 36.667 -14 56v4.5v5.5c0 44 15.667 81.667 47 113s69 47 113 47c42.667 0 79.667 -14.833 111 -44.5s47 -66.167 47 -109.5v0zM293.001 605.998
c0 34.667 -12.501 63.6621 -37.501 86.9951s-54.5 35 -88.5 35c-35.333 0 -65.833 -12.667 -91.5 -38s-38.5 -55.666 -38.5 -90.999c0 -16.667 3.16699 -32.834 9.5 -48.501s15.833 -29.834 28.5 -42.501l1.5 -1.5c0.333008 -0.333008 0.833008 -0.5 1.5 -0.5
c0 -0.666992 0.166992 -1 0.5 -1h1.5c0.666992 0 1.5 0.333008 2.5 1s1.83301 1.33398 2.5 2.00098c1.33301 1.33301 2.16602 2.5 2.49902 3.5s0.5 1.83301 0.5 2.5s-0.166992 1.33398 -0.5 2.00098s-1.16602 1.33398 -2.49902 2.00098c-10 10 -17.667 21.167 -23 33.5
s-8.66602 24.833 -9.99902 37.5v5.5v4.5c0 31.333 11.167 58.333 33.5 81s49.5 34 81.5 34c30 0 56.167 -10.333 78.5 -31s33.5 -46.334 33.5 -77.001c0 -15.333 -2.83301 -30.666 -8.5 -45.999s-13.5 -29.666 -23.5 -42.999l-91 -123
c0 -0.666992 -0.166992 -1.16699 -0.5 -1.5l-0.5 -0.5v-1.5v-1.5v-196c0 -2 0.333008 -3.66699 1 -5s2.66699 -2 6 -2s5.33301 0.666992 6 2s1 3 1 5v194l90 122c10.667 14.667 19 30.334 25 47.001s9 33.334 9 50.001v0z" />
    <glyph glyph-name="at" unicode="@" horiz-adv-x="416" 
d="M397 262c0 -23.333 -8.16797 -43.335 -24.501 -60.002s-36.166 -25 -59.499 -25c-9.33301 0 -18.333 1.66699 -27 5s-16.667 7.33301 -24 12c-7.33301 -4.66699 -15.666 -8.66699 -24.999 -12s-19 -5 -29 -5c-26.667 0 -49.5 9.5 -68.5 28.5s-28.5 41.833 -28.5 68.5v202
c0 26.667 9.5 49.334 28.5 68.001s41.833 28 68.5 28c6.66699 0 13 -0.5 19 -1.5s12 -2.83301 18 -5.5c3.33301 2.66699 6.83301 4.5 10.5 5.5s7.5 1.5 11.5 1.5c9.33301 0 18 -3.33301 26 -10s12 -16.667 12 -30v-270c0 -2.66699 0.666992 -4.66699 2 -6s3.33301 -2 6 -2
c2 0 3.83301 0.666992 5.5 2s2.5 3.33301 2.5 6v299c0 30.667 -11 57.167 -33 79.5s-48.667 33.5 -80 33.5c-30.667 0 -57.167 -11.167 -79.5 -33.5s-33.5 -48.833 -33.5 -79.5v-372c0 -30.667 11.167 -57.167 33.5 -79.5s48.833 -33.5 79.5 -33.5
c19.333 0 37.666 5 54.999 15s31.333 23.333 42 40c4 7.33301 9 12.5 15 15.5s12.333 4.5 19 4.5c1.33301 0 2.83301 -0.166992 4.5 -0.5s3.5 -0.5 5.5 -0.5c1.33301 -0.666992 2.83301 -1.33398 4.5 -2.00098s3.16699 -1.66699 4.5 -3
c5.33301 -3.33301 9.83301 -7.66602 13.5 -12.999s5.5 -11.666 5.5 -18.999c0 -3.33301 -0.5 -6.83301 -1.5 -10.5s-2.83301 -7.5 -5.5 -11.5c-16.667 -28 -39.5 -50.167 -68.5 -66.5s-60.167 -24.5 -93.5 -24.5c-51.333 0 -95.666 18.5 -132.999 55.5s-56 81.5 -56 133.5
v372c0 51.333 18.667 95.666 56 132.999s81.666 56 132.999 56c52 0 96.5 -18.667 133.5 -56s55.5 -81.666 55.5 -132.999v-299v0zM356.999 270.998l-0.00195312 298.999c0 43.333 -15.667 80.666 -47 111.999s-68.666 47 -111.999 47c-42.667 0 -79.667 -15.667 -111 -47
s-47 -68.666 -47 -111.999v-371c0 -43.333 15.667 -80.666 47 -111.999s68.333 -47 111 -47c27.333 0 53.166 7 77.499 21s43.833 32.667 58.5 56l0.5 0.5c0.333008 0.333008 0.5 0.833008 0.5 1.5c0.666992 0.666992 1 1.16699 1 1.5v0.5c0 1.33301 -0.5 2.5 -1.5 3.5
s-2.16699 1.83301 -3.5 2.5c-0.666992 0 -1.16699 0.166992 -1.5 0.5l-0.5 0.5h-1.5h-1.5c-0.666992 0 -1.5 -0.333008 -2.5 -1s-1.83301 -1.66699 -2.5 -3c-12.667 -21.333 -30 -38.166 -52 -50.499s-45.667 -18.5 -71 -18.5c-38.667 0 -72.167 14.167 -100.5 42.5
s-42.5 62.166 -42.5 101.499v371c0 39.333 14.167 73.166 42.5 101.499s61.833 42.5 100.5 42.5c39.333 0 73.166 -14.167 101.499 -42.5s42.5 -62.166 42.5 -101.499v-299c0 -10.667 -3.66699 -19.834 -11 -27.501s-16.666 -11.5 -27.999 -11.5
c-10.667 0 -19.834 3.83301 -27.501 11.5s-11.5 16.834 -11.5 27.501v271v0.5v1.5c0 1.33301 -0.5 2.5 -1.5 3.5s-2.83301 1.5 -5.5 1.5s-4.5 -0.5 -5.5 -1.5s-1.5 -2.16699 -1.5 -3.5v-1.5v-0.5v-16c-6 7.33301 -13.5 13.333 -22.5 18s-18.833 7 -29.5 7
c-18 0 -33.333 -6.5 -46 -19.5s-19 -28.5 -19 -46.5v-201c0 -18 6.33301 -33.5 19 -46.5s28 -19.5 46 -19.5c12 0 23 3 33 9s17.667 13.667 23 23c4.66699 -9.33301 11.334 -17 20.001 -23s18.334 -9 29.001 -9c14.667 0 27.334 5.16699 38.001 15.5s16 22.833 16 37.5v0z
M249.997 283.997c0 -14 -5.16699 -26.167 -15.5 -36.5s-22.5 -15.5 -36.5 -15.5s-26 5 -36 15s-15 22.333 -15 37v201c0 14.667 5 27 15 37s22 15 36 15c14.667 0 27 -5 37 -15s15 -22.333 15 -37v-201v0zM227.997 273.997v202c0 5.33301 -2 10 -6 14s-8.66699 6 -14 6
s-10 -2 -14 -6s-6 -8.66699 -6 -14v-202c0 -5.33301 2 -10 6 -14s8.66699 -6 14 -6s10 2 14 6s6 8.66699 6 14v0z" />
    <glyph glyph-name="A" unicode="A" horiz-adv-x="490" 
d="M456 38c0 -12.667 -3.83105 -22.167 -11.498 -28.5s-15.834 -9.83301 -24.501 -10.5h-1.5h-1.5c-9.33301 0 -18 3.16699 -26 9.5s-12 16.166 -12 29.499v181h-224v-181c0 -13.333 -4 -23.166 -12 -29.499s-16.667 -9.5 -26 -9.5s-18 3.16699 -26 9.5
s-12 16.166 -12 29.499v181h-17c-12.667 0 -22.5 3.83301 -29.5 11.5s-10.5 15.834 -10.5 24.501v1.5v1.5c0 9.33301 3.33301 17.833 10 25.5s16.667 11.5 30 11.5h17v267c0 51.333 18.5 95.5 55.5 132.5s81.167 55.5 132.5 55.5s95.666 -18.5 132.999 -55.5
s56 -81.167 56 -132.5v-524v0zM413.002 45v524c0 43.333 -15.333 80.333 -46 111s-67.667 46 -111 46c-42.667 0 -79.5 -15.333 -110.5 -46s-46.5 -67.667 -46.5 -111v-298h-49h-0.5h-1.5c-1.33301 0 -2.5 -0.5 -3.5 -1.5s-1.5 -2.83301 -1.5 -5.5s0.5 -4.5 1.5 -5.5
s2.16699 -1.5 3.5 -1.5h1.5h0.5h49v-212v-0.5v-1.5c0 -1.33301 0.5 -2.5 1.5 -3.5s2.83301 -1.5 5.5 -1.5s4.5 0.5 5.5 1.5s1.5 2.16699 1.5 3.5v1.5v0.5v212h286v-212v-0.5v-1.5c0 -1.33301 0.5 -2.5 1.5 -3.5s2.83301 -1.5 5.5 -1.5s4.5 0.5 5.5 1.5s1.5 2.16699 1.5 3.5
v1.5v0.5v0zM399.002 271h-286v298c0 39.333 14.167 73 42.5 101s61.833 42 100.5 42c39.333 0 73 -14 101 -42s42 -61.667 42 -101v-298v0zM379.002 295v267c0 30.667 -11 57 -33 79s-48.333 33 -79 33s-57 -11 -79 -33s-33 -48.333 -33 -79v-267h224v0z" />
    <glyph glyph-name="B" unicode="B" horiz-adv-x="484" 
d="M459 147c0 -40 -14.5 -74.501 -43.5 -103.501s-63.833 -43.5 -104.5 -43.5h-232v219h-17c-12.667 0 -22.334 3.83301 -29.001 11.5s-10.334 15.834 -11.001 24.501v1.5v1.5c0.666992 9.33301 4.33398 17.833 11.001 25.5s16.334 11.5 29.001 11.5h17v455h196
c50.667 0 94 -18 130 -54s54 -79.333 54 -130v-200c0 -20.667 -4.33301 -40.5 -13 -59.5s-20.667 -35.5 -36 -49.5c15.333 -14 27.333 -30.5 36 -49.5s13 -39.167 13 -60.5v0zM420 159.999c0 24.667 -7.33203 46.998 -21.999 66.998s-33 34 -55 42
c22 8.66699 40.333 22.834 55 42.501s22 41.834 22 66.501v201c0 41.333 -15 77 -45 107s-66 45 -108 45h-158c-1.33301 0 -2.83301 -0.5 -4.5 -1.5s-2.83398 -2.16699 -3.50098 -3.5v-1.5v-0.5v-448h-42c-2 0 -3.83301 -0.333008 -5.5 -1s-2.5 -2.66699 -2.5 -6
s0.833008 -5.33301 2.5 -6s3.5 -1 5.5 -1h42v-212v-0.5v-1.5l2.5 -2.5l2.5 -2.5h1.5h0.5h195c32 0 59.5 11.5 82.5 34.5s34.5 50.5 34.5 82.5v0zM405.001 159.997c0 -28 -9.99902 -52.167 -29.999 -72.5s-44 -30.5 -72 -30.5h-188l1 205h93.5h93.5
c27.333 0 51.166 -10 71.499 -30s30.5 -44 30.5 -72v0zM382.002 146.997c0 19.333 -7 36.167 -21 50.5s-30.667 21.5 -50 21.5h-156v-143h156c19.333 0 36 7.16699 50 21.5s21 30.833 21 49.5v0zM405.002 377.998c0 -27.333 -10 -51.168 -30 -71.501s-44 -30.5 -72 -30.5
h-187v441h151c38 0 70.5 -13.667 97.5 -41s40.5 -59.666 40.5 -96.999v-100.5v-100.5v0zM382.002 365.996l0.000976562 200.001c0 29.333 -10.5 54.666 -31.5 75.999s-46.167 32 -75.5 32h-120v-379h155c19.333 0 36.166 6.83301 50.499 20.5s21.5 30.5 21.5 50.5v0z" />
    <glyph glyph-name="C" unicode="C" horiz-adv-x="425" 
d="M406 189c0 -52 -18.5 -96.5 -55.5 -133.5s-81.5 -55.5 -133.5 -55.5c-51.333 0 -95.666 18.5 -132.999 55.5s-56 81.5 -56 133.5v372c0 51.333 18.667 95.666 56 132.999s81.666 56 132.999 56c52 0 96.5 -18.667 133.5 -56s55.5 -81.666 55.5 -132.999v-132
c0 -12.667 -4 -22.334 -12 -29.001s-16.667 -10 -26 -10s-18 3.33301 -26 10s-12 16.334 -12 29.001v132c0 30.667 -11 57.167 -33 79.5s-48.667 33.5 -80 33.5c-30.667 0 -57.167 -11.167 -79.5 -33.5s-33.5 -48.833 -33.5 -79.5v-372c0 -30.667 11.167 -57.167 33.5 -79.5
s48.833 -33.5 79.5 -33.5s57.167 11.167 79.5 33.5s33.5 48.833 33.5 79.5c0 13.333 4 23.333 12 30s16.667 10 26 10s18 -3.33301 26 -10s12 -16.667 12 -30v0zM364 200v0.5v1.5c0 1.33301 -0.5 2.5 -1.5 3.5s-2.83301 1.5 -5.5 1.5s-4.5 -0.5 -5.5 -1.5
s-1.5 -2.16699 -1.5 -3.5v-1.5v-0.5c0 -39.333 -14.167 -73.166 -42.5 -101.499s-62.166 -42.5 -101.499 -42.5s-73.166 14.167 -101.499 42.5s-42.5 62.166 -42.5 101.499v371c0 39.333 14.167 73.166 42.5 101.499s62.166 42.5 101.499 42.5s73.166 -14.167 101.499 -42.5
s42.5 -62.166 42.5 -101.499v-131v-0.5v-1.5c0 -1.33301 0.5 -2.5 1.5 -3.5s2.83301 -1.5 5.5 -1.5s4.5 0.5 5.5 1.5s1.5 2.16699 1.5 3.5v1.5v0.5v131c0 43.333 -15.5 80.666 -46.5 111.999s-68.167 47 -111.5 47s-80.5 -15.667 -111.5 -47s-46.5 -68.666 -46.5 -111.999
v-371c0 -43.333 15.5 -80.666 46.5 -111.999s68.167 -47 111.5 -47s80.5 15.667 111.5 47s46.5 68.666 46.5 111.999v0z" />
    <glyph glyph-name="D" unicode="D" horiz-adv-x="425" 
d="M402 189c0 -52 -18.5 -96.501 -55.5 -133.501s-81.5 -55.5 -133.5 -55.5h-189v750h189c52 0 96.5 -18.667 133.5 -56s55.5 -81.666 55.5 -132.999v-372v0zM360 199.999v371.002c0 43.333 -15.5 80.666 -46.5 111.999s-68.167 47 -111.5 47h-151
c-2 0 -3.66699 -0.833008 -5 -2.5s-2 -3.5 -2 -5.5v-673c0 -2 0.666992 -3.83301 2 -5.5s3 -2.5 5 -2.5h151c43.333 0 80.5 15.667 111.5 47s46.5 68.666 46.5 111.999v0zM346 200.001c0 -39.333 -14.167 -73.168 -42.5 -101.501s-62.166 -42.5 -101.499 -42.5h-144v659h144
c39.333 0 73.166 -14.167 101.499 -42.5s42.5 -62.166 42.5 -101.499v-371v0zM326 188.999v372c0 30.667 -11 57.167 -33 79.5s-48.667 33.5 -80 33.5h-113v-598h113c31.333 0 58 11.167 80 33.5s33 48.833 33 79.5v0z" />
    <glyph glyph-name="E" unicode="E" horiz-adv-x="445" 
d="M425 257c0 -9.33301 -3.33301 -17.999 -10 -25.999s-16.667 -12 -30 -12h-231v-100c0 -11.333 4.33301 -21.333 13 -30s18.667 -13 30 -13h143c13.333 0 23.333 -4 30 -12s10 -16.667 10 -26s-3.33301 -18 -10 -26s-16.667 -12 -30 -12h-143
c-32.667 0 -60.667 11.667 -84 35s-35 51.333 -35 84v100h-18c-12.667 0 -22.5 4 -29.5 12s-10.5 16.667 -10.5 26s3.5 18 10.5 26s16.833 12 29.5 12h18v335c0 33.333 11.667 61.666 35 84.999s51.333 35 84 35h143c13.333 0 23.333 -4 30 -12s10 -16.667 10 -26
s-3.33301 -18 -10 -26s-16.667 -12 -30 -12h-143c-11.333 0 -21.333 -4.33301 -30 -13s-13 -19 -13 -31v-335h231c13.333 0 23.333 -4 30 -12s10 -16.667 10 -26v0zM381 268.001c0 2.66699 -0.5 4.5 -1.5 5.5s-2.16699 1.5 -3.5 1.5h-1.5h-0.5h-262v366
c0 20.667 7.33301 38.167 22 52.5s32 21.5 52 21.5h143h0.5h1.5c1.33301 0 2.5 0.5 3.5 1.5s1.5 2.83301 1.5 5.5c0 3.33301 -0.5 5.5 -1.5 6.5s-2.16699 1.5 -3.5 1.5h-1.5h-0.5h-143c-24 0 -44.667 -8.83301 -62 -26.5s-26 -38.5 -26 -62.5v-366h-49
c-2 0 -3.66699 -0.333008 -5 -1s-2 -2.66699 -2 -6c0 -4 0.666992 -6.33301 2 -7s3 -1 5 -1h49v-130c0 -24 8.66699 -44.833 26 -62.5s38 -26.5 62 -26.5h143h0.5h1.5c1.33301 0 2.5 0.5 3.5 1.5s1.5 3.16699 1.5 6.5c0 2.66699 -0.5 4.5 -1.5 5.5s-2.16699 1.5 -3.5 1.5
h-1.5h-0.5h-143c-20 0 -37.333 7.16699 -52 21.5s-22 31.833 -22 52.5v130h262h0.5h1.5c1.33301 0 2.5 0.5 3.5 1.5s1.5 3.16699 1.5 6.5v0z" />
    <glyph glyph-name="F" unicode="F" horiz-adv-x="445" 
d="M425 257c0 -9.33301 -3.33301 -17.999 -10 -25.999s-16.667 -12 -30 -12h-231v-181c0 -13.333 -4 -23.166 -12 -29.499s-16.667 -9.5 -26 -9.5s-18 3.16699 -26 9.5s-12 16.166 -12 29.499v181h-18c-12.667 0 -22.5 4 -29.5 12s-10.5 16.667 -10.5 26s3.5 18 10.5 26
s16.833 12 29.5 12h18v335c0 33.333 11.667 61.666 35 84.999s51.333 35 84 35h143c13.333 0 23.333 -4 30 -12s10 -16.667 10 -26s-3.33301 -18 -10 -26s-16.667 -12 -30 -12h-143c-11.333 0 -21.333 -4.33301 -30 -13s-13 -19 -13 -31v-335h231c13.333 0 23.333 -4 30 -12
s10 -16.667 10 -26v0zM381 268.001c0 2.66699 -0.5 4.5 -1.5 5.5s-2.16699 1.5 -3.5 1.5h-1.5h-0.5h-262v366c0 20.667 7.33301 38.167 22 52.5s32 21.5 52 21.5h143h0.5h1.5c1.33301 0 2.5 0.5 3.5 1.5s1.5 2.83301 1.5 5.5c0 3.33301 -0.5 5.5 -1.5 6.5
s-2.16699 1.5 -3.5 1.5h-1.5h-0.5h-143c-24 0 -44.667 -8.83301 -62 -26.5s-26 -38.5 -26 -62.5v-366h-49c-2 0 -3.66699 -0.333008 -5 -1s-2 -2.66699 -2 -6c0 -4 0.666992 -6.33301 2 -7s3 -1 5 -1h49v-211c0 -2 0.333008 -3.83301 1 -5.5s2.66699 -2.5 6 -2.5
s5.33301 0.833008 6 2.5s1 3.5 1 5.5v211h262h0.5h1.5c1.33301 0 2.5 0.5 3.5 1.5s1.5 3.16699 1.5 6.5v0z" />
    <glyph glyph-name="G" unicode="G" horiz-adv-x="416" 
d="M397 189c0 -52 -18.5 -96.5 -55.5 -133.5s-81.5 -55.5 -133.5 -55.5c-51.333 0 -95.666 18.5 -132.999 55.5s-56 81.5 -56 133.5v372c0 51.333 18.667 95.666 56 132.999s81.666 56 132.999 56c52 0 96.5 -18.667 133.5 -56s55.5 -81.666 55.5 -132.999v-132
c0 -12.667 -4 -22.334 -12 -29.001s-16.667 -10 -26 -10s-18 3.33301 -26 10s-12 16.334 -12 29.001v132c0 30.667 -11 57.167 -33 79.5s-48.667 33.5 -80 33.5c-30.667 0 -57.167 -11.167 -79.5 -33.5s-33.5 -48.833 -33.5 -79.5v-372c0 -30.667 11.167 -57.167 33.5 -79.5
s48.833 -33.5 79.5 -33.5c31.333 0 58 11.167 80 33.5s33 48.833 33 79.5v30h-139c-13.333 0 -23.333 4 -30 12s-10 16.667 -10 26s3.33301 18 10 26s16.667 12 30 12h215v-106v0zM355 200l-0.000976562 68v0.5v1.5c-0.666992 1.33301 -1.66699 2.5 -3 3.5
s-2.66602 1.5 -3.99902 1.5h-178h-0.5h-1.5c-1.33301 0 -2.5 -0.5 -3.5 -1.5s-1.5 -2.83301 -1.5 -5.5c0 -3.33301 0.5 -5.5 1.5 -6.5s2.16699 -1.5 3.5 -1.5h1.5h0.5h171v-60c0 -39.333 -14.167 -73.166 -42.5 -101.499s-62.166 -42.5 -101.499 -42.5
s-73.166 14.167 -101.499 42.5s-42.5 62.166 -42.5 101.499v371c0 39.333 14.167 73.166 42.5 101.499s62.166 42.5 101.499 42.5s73.166 -14.167 101.499 -42.5s42.5 -62.166 42.5 -101.499v-131v-0.5v-1.5c0 -1.33301 0.5 -2.5 1.5 -3.5s2.83301 -1.5 5.5 -1.5
s4.5 0.5 5.5 1.5s1.5 2.16699 1.5 3.5v1.5v0.5v131c0 43.333 -15.5 80.666 -46.5 111.999s-68.167 47 -111.5 47s-80.5 -15.667 -111.5 -47s-46.5 -68.666 -46.5 -111.999v-371c0 -43.333 15.5 -80.666 46.5 -111.999s68.167 -47 111.5 -47s80.5 15.667 111.5 47
s46.5 68.666 46.5 111.999v0z" />
    <glyph glyph-name="H" unicode="H" horiz-adv-x="471" 
d="M449 38c0 -13.333 -4 -23.166 -12 -29.499s-16.667 -9.5 -26 -9.5s-18 3.16699 -26 9.5s-12 16.166 -12 29.499v181h-220v-181c0 -13.333 -4 -23.166 -12 -29.499s-16.667 -9.5 -26 -9.5c-10 0 -19 3.16699 -27 9.5s-12 16.166 -12 29.499v181h-15
c-12.667 0 -22.5 4 -29.5 12s-10.5 16.667 -10.5 26s3.5 18 10.5 26s16.833 12 29.5 12h15v417c0 13.333 4 23.333 12 30s17 10 27 10c9.33301 0 18 -3.33301 26 -10s12 -16.667 12 -30v-417h220v417c0 13.333 4 23.333 12 30s16.667 10 26 10s18 -3.33301 26 -10
s12 -16.667 12 -30v-674v0zM407 49v673c0 2 -0.333008 3.83301 -1 5.5s-2.66699 2.5 -6 2.5s-5.33301 -0.833008 -6 -2.5s-1 -3.5 -1 -5.5v-448c-0.666992 0.666992 -1.16699 1 -1.5 1h-2.5h-278v447c0 2 -0.333008 3.83301 -1 5.5s-3 2.5 -7 2.5
c-3.33301 0 -5.33301 -0.833008 -6 -2.5s-1 -3.5 -1 -5.5v-447h-46h-0.5h-1.5c-1.33301 0 -2.5 -0.5 -3.5 -1.5s-1.5 -2.83301 -1.5 -5.5c0 -3.33301 0.5 -5.5 1.5 -6.5s2.16699 -1.5 3.5 -1.5h1.5h0.5h46v-211c0 -2 0.333008 -3.83301 1 -5.5s2.66699 -2.5 6 -2.5
c4 0 6.33301 0.833008 7 2.5s1 3.5 1 5.5v211h278h2.5c0.333008 0 0.833008 0.333008 1.5 1v-212c0 -2 0.333008 -3.83301 1 -5.5s2.66699 -2.5 6 -2.5s5.33301 0.833008 6 2.5s1 3.5 1 5.5v0z" />
    <glyph glyph-name="I" unicode="I" horiz-adv-x="139" 
d="M108 38c0 -12.667 -3.83301 -22.1641 -11.5 -28.4971s-15.834 -9.83301 -24.501 -10.5h-1.5h-1.5c-9.33301 0 -18 3.16699 -26 9.5s-12 16.166 -12 29.499v674c0 13.333 4 23.333 12 30s16.667 10 26 10h1.5h1.5c8.66699 -0.666992 16.834 -4.33398 24.501 -11.001
s11.5 -16.334 11.5 -29.001v-674v0zM65 49.0029v673c0 2 -0.333008 3.83301 -1 5.5s-2.66699 2.5 -6 2.5s-5.33301 -0.833008 -6 -2.5s-1 -3.5 -1 -5.5v-673c0 -2 0.333008 -3.83301 1 -5.5s2.66699 -2.5 6 -2.5s5.33301 0.833008 6 2.5s1 3.5 1 5.5v0z" />
    <glyph glyph-name="J" unicode="J" horiz-adv-x="252" 
d="M241 122c0 -51.333 -18.834 -95.665 -56.501 -132.998s-82.167 -56 -133.5 -56c-12.667 0 -22.5 4 -29.5 12s-10.5 17 -10.5 27c0 9.33301 3.5 17.833 10.5 25.5s16.833 11.5 29.5 11.5c31.333 0 58 11.167 80 33.5s33 48.833 33 79.5v590c0 13.333 4 23.333 12 30
s16.667 10 26 10h1.5h1.5c8.66699 -0.666992 16.834 -4.33398 24.501 -11.001s11.5 -16.334 11.5 -29.001v-590v0zM197.999 132.001l-0.000976562 590c0 2 -0.333008 3.83301 -1 5.5s-2.66699 2.5 -6 2.5s-5.33301 -0.833008 -6 -2.5s-1 -3.5 -1 -5.5v-590
c0 -38.667 -14.167 -72.167 -42.5 -100.5s-62.166 -42.5 -101.499 -42.5h-0.5h-1.5c-1.33301 0 -2.5 -0.5 -3.5 -1.5s-1.5 -2.83301 -1.5 -5.5s0.5 -4.5 1.5 -5.5s2.16699 -1.5 3.5 -1.5h1.5h0.5c43.333 0 80.5 15.5 111.5 46.5s46.5 67.833 46.5 110.5v0z" />
    <glyph glyph-name="K" unicode="K" horiz-adv-x="464" 
d="M443 38c0 -12.667 -3.83105 -22.1641 -11.498 -28.4971s-15.834 -9.83301 -24.501 -10.5h-1.5h-1.5c-9.33301 0 -18 3.16699 -26 9.5s-12 16.166 -12 29.499v70c0 30 -11 56 -33 78s-48.333 33 -79 33h-92v-181c0 -13.333 -4 -23.166 -12 -29.499s-16.667 -9.5 -26 -9.5
s-18 3.16699 -26 9.5s-12 16.166 -12 29.499v181h-25c-13.333 0 -23.333 4 -30 12s-10 16.667 -10 26s3.33301 18 10 26s16.667 12 30 12h25v417c0 13.333 4 23.333 12 30s16.667 10 26 10s18 -3.33301 26 -10s12 -16.667 12 -30v-417h40.5h40.5
c33.333 0 62.166 12.167 86.499 36.5s36.5 53.166 36.5 86.499v294c0 13.333 4 23.333 12 30s16.667 10 26 10s18 -3.33301 26 -10s12 -16.667 12 -30v-294c0 -32 -7.16699 -61.833 -21.5 -89.5s-33.5 -50.5 -57.5 -68.5c24 -16.667 43.333 -38.334 58 -65.001
s22 -55.667 22 -87v-70v0zM400.002 49.0029v69.001c0 35.333 -10.833 67.166 -32.5 95.499s-49.167 46.833 -82.5 55.5c33.333 11.333 60.833 31.5 82.5 60.5s32.5 61.833 32.5 98.5v294c0 2 -0.333008 3.83301 -1 5.5s-2.66699 2.5 -6 2.5s-5.33301 -0.833008 -6 -2.5
s-1 -3.5 -1 -5.5v-294c0 -42 -15.167 -78 -45.5 -108s-66.5 -45 -108.5 -45h-112v447c0 2 -0.333008 3.83301 -1 5.5s-2.66699 2.5 -6 2.5s-5.33301 -0.833008 -6 -2.5s-1 -3.5 -1 -5.5v-447h-56c-2 0 -3.66699 -0.333008 -5 -1s-2 -2.66699 -2 -6
c0 -4 0.666992 -6.33301 2 -7s3 -1 5 -1h56l-1 -211c0 -2 0.333008 -3.83301 1 -5.5s3 -2.5 7 -2.5c3.33301 0 5.33301 0.833008 6 2.5s1 3.5 1 5.5v211h123c39.333 0 73 -13.833 101 -41.5s42 -61.167 42 -100.5v-69c0 -2 0.333008 -3.83301 1 -5.5s2.66699 -2.5 6 -2.5
s5.33301 0.833008 6 2.5s1 3.5 1 5.5v0z" />
    <glyph glyph-name="L" unicode="L" horiz-adv-x="348" 
d="M330 38c0 -9.33301 -3.33301 -18 -10 -26s-16.667 -12 -30 -12h-152c-32.667 0 -60.667 11.667 -84 35s-35 51.333 -35 84v593c0 13.333 4 23.333 12 30s16.667 10 26 10s18 -3.33301 26 -10s12 -16.667 12 -30v-593c0 -11.333 4.33301 -21.333 13 -30s18.667 -13 30 -13
h152c13.333 0 23.333 -4 30 -12s10 -16.667 10 -26v0zM286 49c0 3.33301 -0.666992 5.33301 -2 6s-3 1 -5 1h-152c-20.667 0 -38.167 7.16699 -52.5 21.5s-21.5 31.833 -21.5 52.5v592c0 2 -0.333008 3.83301 -1 5.5s-2.66699 2.5 -6 2.5c-4 0 -6.33301 -0.833008 -7 -2.5
s-1 -3.5 -1 -5.5v-592c0 -24 8.83301 -44.833 26.5 -62.5s38.5 -26.5 62.5 -26.5h152c2 0 3.66699 0.333008 5 1s2 3 2 7v0z" />
    <glyph glyph-name="M" unicode="M" horiz-adv-x="503" 
d="M480 38c0 -13.333 -3.99902 -23.166 -11.999 -29.499s-16.667 -9.5 -26 -9.5s-18 3.16699 -26 9.5s-12 16.166 -12 29.499v636c-32 0 -59 -11.167 -81 -33.5s-33 -49.5 -33 -81.5v-302c0 -12.667 -3.83301 -22.334 -11.5 -29.001s-15.834 -10.334 -24.501 -11.001h-1.5
h-1.5c-9.33301 0.666992 -18 4.33398 -26 11.001s-12 16.334 -12 29.001v305c0 31.333 -11.167 57.833 -33.5 79.5s-49.166 32.5 -80.499 32.5v-636c0 -13.333 -4 -23.166 -12 -29.499s-16.667 -9.5 -26 -9.5s-18 3.16699 -26 9.5s-12 16.166 -12 29.499v712h79
c30 0 58.167 -6.83301 84.5 -20.5s47.833 -31.834 64.5 -54.501c17.333 22.667 39.166 40.834 65.499 54.501s54.5 20.5 84.5 20.5h79v-712v0zM438.001 49v674c0 1.33301 -0.333008 2.5 -1 3.5s-1.66699 1.83301 -3 2.5c-0.666992 0.666992 -1.16699 1 -1.5 1h-1.5h-41
c-34.667 0 -65.834 -10.5 -93.501 -31.5s-46.5 -47.5 -56.5 -79.5c-10 32 -28.667 58.5 -56 79.5s-58.666 31.5 -93.999 31.5h-40c-2 0 -3.66699 -0.833008 -5 -2.5s-2 -3.5 -2 -5.5v-673c0 -2 0.333008 -3.83301 1 -5.5s2.66699 -2.5 6 -2.5s5.33301 0.833008 6 2.5
s1 3.5 1 5.5v666h33c39.333 0 73 -13.833 101 -41.5s42 -61.167 42 -100.5v-305c0 -2 0.333008 -3.83301 1 -5.5s2.66699 -2.5 6 -2.5s5.33301 0.833008 6 2.5s1 3.5 1 5.5v305c0 39.333 14.167 72.833 42.5 100.5s61.833 41.5 100.5 41.5h33v-666
c0 -2 0.333008 -3.83301 1 -5.5s3 -2.5 7 -2.5c3.33301 0 5.33301 0.833008 6 2.5s1 3.5 1 5.5v0z" />
    <glyph glyph-name="N" unicode="N" horiz-adv-x="370" 
d="M348 712l-1 -671.999c0 -13.333 -4 -23.333 -12 -30s-16.667 -10 -26 -10s-18 3.33301 -26 10s-12 16.667 -12 30v428c0 49.333 -16.167 93.333 -48.5 132s-72.833 62.667 -121.5 72v-632c0 -12.667 -3.83301 -22.334 -11.5 -29.001s-15.834 -10.334 -24.501 -11.001
h-1.5h-1.5c-9.33301 0 -18 3.33301 -26 10s-12 16.667 -12 30v673v39h38c41.333 0 80 -8.33301 116 -25s67 -39.334 93 -68.001v53c0 12.667 3.83301 22.334 11.5 29.001s15.834 10.334 24.501 11.001h1.5h1.5c9.33301 0 18 -3.33301 26 -10s12 -16.667 12 -30v0z
M306 49.001l0.000976562 673.002c0 2 -0.333008 3.83301 -1 5.5s-2.66699 2.5 -6 2.5c-4 0 -6.33301 -0.833008 -7 -2.5s-1 -3.5 -1 -5.5v-163c-17.333 49.333 -47.833 90.166 -91.5 122.499s-92.834 48.5 -147.501 48.5h-0.5h-1.5
c-1.33301 -0.666992 -2.5 -1.83398 -3.5 -3.50098s-1.5 -3.16699 -1.5 -4.5v-673c0 -2 0.333008 -3.83301 1 -5.5s2.66699 -2.5 6 -2.5s5.33301 0.833008 6 2.5s1 3.5 1 5.5v666c64 -2 118.667 -26.5 164 -73.5s68 -102.167 68 -165.5v-427c0 -2 0.333008 -3.83301 1 -5.5
s3 -2.5 7 -2.5c3.33301 0 5.33301 0.833008 6 2.5s1 3.5 1 5.5v0z" />
    <glyph glyph-name="O" unicode="O" horiz-adv-x="427" 
d="M404 189c0 -52 -18.5 -96.5 -55.5 -133.5s-81.5 -55.5 -133.5 -55.5c-51.333 0 -95.666 18.5 -132.999 55.5s-56 81.5 -56 133.5v372c0 51.333 18.667 95.666 56 132.999s81.666 56 132.999 56c52 0 96.5 -18.667 133.5 -56s55.5 -81.666 55.5 -132.999v-372v0zM362 200
v371c0 43.333 -15.5 80.666 -46.5 111.999s-68.167 47 -111.5 47s-80.5 -15.667 -111.5 -47s-46.5 -68.666 -46.5 -111.999v-371c0 -43.333 15.5 -80.666 46.5 -111.999s68.167 -47 111.5 -47s80.5 15.667 111.5 47s46.5 68.666 46.5 111.999v0zM348 200
c0 -39.333 -14.167 -73.166 -42.5 -101.499s-62.166 -42.5 -101.499 -42.5s-73.166 14.167 -101.499 42.5s-42.5 62.166 -42.5 101.499v371c0 39.333 14.167 73.166 42.5 101.499s62.166 42.5 101.499 42.5s73.166 -14.167 101.499 -42.5s42.5 -62.166 42.5 -101.499v-371v0
zM328 189v372c0 30.667 -11 57.167 -33 79.5s-48.667 33.5 -80 33.5c-30.667 0 -57.167 -11.167 -79.5 -33.5s-33.5 -48.833 -33.5 -79.5v-372c0 -30.667 11.167 -57.167 33.5 -79.5s48.833 -33.5 79.5 -33.5c31.333 0 58 11.167 80 33.5s33 48.833 33 79.5v0z" />
    <glyph glyph-name="P" unicode="P" horiz-adv-x="447" 
d="M426 402c0 -50 -17.999 -93.001 -53.999 -129.001s-79 -54 -129 -54h-92v-181c0 -13.333 -4 -23.166 -12 -29.499s-16.667 -9.5 -26 -9.5h-1.5h-1.5c-8.66699 0.666992 -16.834 4.16699 -24.501 10.5s-11.5 15.833 -11.5 28.5l1 181h-15c-12.667 0 -22.5 4 -29.5 12
s-10.5 16.667 -10.5 26s3.5 18 10.5 26s16.833 12 29.5 12h15v455h168c50 0 93 -18 129 -54s54 -79.333 54 -130v-164v0zM384.001 412.999v164.002c0 41.333 -15 77.166 -45 107.499s-65.667 45.5 -107 45.5h-130c-2 0 -3.66699 -0.833008 -5 -2.5s-2 -3.5 -2 -5.5v-447h-46
c-2 0 -3.66699 -0.333008 -5 -1s-2 -2.66699 -2 -6c0 -4 0.666992 -6.33301 2 -7s3 -1 5 -1h46l-1 -211c0 -2 0.333008 -3.83301 1 -5.5s3 -2.5 7 -2.5c3.33301 0 5.33301 0.833008 6 2.5s1 3.5 1 5.5v211h123c41.333 0 77 15.167 107 45.5s45 66.166 45 107.499v0z
M370.001 413.001c0 -38 -13.667 -70.5 -41 -97.5s-59.666 -40.5 -96.999 -40.5h-123v440h123c37.333 0 69.666 -13.5 96.999 -40.5s41 -59.5 41 -97.5v-164v0zM350.001 402.001v164.001c0 29.333 -10.5 54.666 -31.5 75.999s-46.167 32 -75.5 32h-92v-379h92
c29.333 0 54.5 10.667 75.5 32s31.5 46.333 31.5 75v0z" />
    <glyph glyph-name="Q" unicode="Q" horiz-adv-x="440" 
d="M478 -46c0 -8.66699 -3.33301 -16.999 -10 -24.999s-16.667 -12 -30 -12l-108 -1c-29.333 0.666992 -56.166 9 -80.499 25s-42.833 36.333 -55.5 61c-46 6 -84.833 26.833 -116.5 62.5s-47.5 77.167 -47.5 124.5v372c0 51.333 18.667 95.666 56 132.999s82 56 134 56
c51.333 0 95.666 -18.667 132.999 -56s56 -81.666 56 -132.999v-372c0 -40.667 -12 -77.334 -36 -110.001s-54.333 -55.667 -91 -69c6.66699 -5.33301 14.167 -9.33301 22.5 -12s16.833 -4 25.5 -4l108 -1c13.333 0.666992 23.333 -3 30 -11s10 -17 10 -27v-1zM434 -34.999
c0 3.33301 -0.501953 5.49805 -1.50195 6.49805s-2.16699 1.5 -3.5 1.5h-1.5h-0.5l-108 -1c-22.667 0.666992 -43.167 7.33398 -61.5 20.001s-31.166 29.334 -38.499 50.001c41.333 2.66699 76.333 19.334 105 50.001s43 66.667 43 108v371
c0 43.333 -15.667 80.666 -47 111.999s-68.666 47 -111.999 47c-42.667 0 -79.667 -15.667 -111 -47s-47 -68.666 -47 -111.999v-371c0 -42.667 15.167 -79.334 45.5 -110.001s66.5 -46.667 108.5 -48c8 -24.667 22.5 -44.667 43.5 -60s44.833 -23 71.5 -23l108 -1
c0 0.666992 0.166992 1 0.5 1h1.5c1.33301 0 2.5 0.5 3.5 1.5s1.5 2.83301 1.5 5.5v-1zM351.998 199.999h-33c-32.667 0 -61 -11.833 -85 -35.5s-36 -52.167 -36 -85.5c0 -4 0.166992 -8 0.5 -12s0.833008 -7.66699 1.5 -11c-37.333 2 -69.166 17 -95.499 45
s-39.5 61 -39.5 99v371c0 39.333 14.167 73.166 42.5 101.499s61.833 42.5 100.5 42.5c39.333 0 73.166 -14.167 101.499 -42.5s42.5 -62.166 42.5 -101.499v-371v0zM331.998 219.999l-0.000976562 340.999c0 30.667 -11 57.167 -33 79.5s-48.333 33.5 -79 33.5
s-57.167 -11.167 -79.5 -33.5s-33.5 -48.833 -33.5 -79.5v-372c0 -23.333 6.83301 -44.666 20.5 -63.999s30.834 -33 51.501 -41c4 38 20.5 70.167 49.5 96.5s62.833 39.5 101.5 39.5h2v0zM351.997 184.998c-4 -34.667 -18.999 -64.5 -44.999 -89.5
s-56.667 -38.167 -92 -39.5c-0.666992 3.33301 -1.33398 7 -2.00098 11s-1 8 -1 12c0 29.333 10.667 54.333 32 75s46.333 31 75 31h33v0zM322.998 142.998c-16.667 -1.33301 -31.1699 -7.66699 -43.5029 -19s-20.166 -25.333 -23.499 -42
c14.667 5.33301 27.834 13.333 39.501 24s20.834 23 27.501 37v0z" />
    <glyph glyph-name="R" unicode="R" horiz-adv-x="448" 
d="M427 38c0 -12.667 -3.83105 -22.167 -11.498 -28.5s-15.834 -9.83301 -24.501 -10.5h-1.5h-1.5c-9.33301 0.666992 -17.833 4.16699 -25.5 10.5s-11.5 15.833 -11.5 28.5v70c0 30 -11 56 -33 78s-48.333 33 -79 33h-87v-181c0 -12.667 -3.83301 -22.167 -11.5 -28.5
s-15.834 -9.83301 -24.501 -10.5h-1.5h-1.5c-9.33301 0.666992 -17.833 4.16699 -25.5 10.5s-11.5 15.833 -11.5 28.5v181h-16c-12.667 0 -22.334 3.83301 -29.001 11.5s-10.334 15.834 -11.001 24.501v1.5v1.5c0.666992 9.33301 4.33398 17.833 11.001 25.5
s16.334 11.5 29.001 11.5h16v455h168c50 0 93 -18 129 -54s54 -79.333 54 -130v-164c0 -29.333 -6.66699 -56.833 -20 -82.5s-31 -46.834 -53 -63.501c22 -17.333 39.667 -39 53 -65s20 -53.667 20 -83v-70v0zM385.002 49v69.001c0 34.667 -10.333 65.5 -31 92.5
s-46.667 45.833 -78 56.5c31.333 9.33301 57.333 27.5 78 54.5s31 57.5 31 91.5v164c0 41.333 -15 77.166 -45 107.499s-65.667 45.5 -107 45.5h-130c-2 0 -3.66699 -0.833008 -5 -2.5s-2 -3.5 -2 -5.5v-447h-47c-2 0 -3.66699 -0.333008 -5 -1s-2 -2.66699 -2 -6
c0 -4 0.666992 -6.33301 2 -7s3 -1 5 -1h47l-1 -211c0 -2 0.333008 -3.83301 1 -5.5s3 -2.5 7 -2.5c3.33301 0 5.33301 0.833008 6 2.5s1 3.5 1 5.5v211h118c39.333 0 73 -13.833 101 -41.5s42 -61.167 42 -100.5v-69c0 -2 0.333008 -3.83301 1 -5.5s2.66699 -2.5 6 -2.5
s5.33301 0.833008 6 2.5s1 3.5 1 5.5v0zM371.002 413.001c0 -39.333 -14.166 -72.167 -42.499 -98.5s-61.833 -39.5 -100.5 -39.5h-118v440h123c37.333 0 69.666 -13.5 96.999 -40.5s41 -59.5 41 -97.5v-164v0zM351.003 402v164.001c0 29.333 -10.5 54.666 -31.5 75.999
s-46.167 32 -75.5 32h-92v-379h92c29.333 0 54.5 10.667 75.5 32s31.5 46.333 31.5 75v0z" />
    <glyph glyph-name="S" unicode="S" horiz-adv-x="421" 
d="M400 405c0 -12.667 -3.99902 -22.3301 -11.999 -28.9971s-16.667 -10 -26 -10s-18 3.33301 -26 10s-12 16.334 -12 29.001v156c0 30.667 -11 57.167 -33 79.5s-48.667 33.5 -80 33.5c-30.667 0 -57.167 -11.167 -79.5 -33.5s-33.5 -48.833 -33.5 -79.5v-172
c0 -12 4.33301 -21.833 13 -29.5s18 -13.834 28 -18.501c1.33301 -0.666992 2.83301 -1.33398 4.5 -2.00098s3.16699 -1.33398 4.5 -2.00098l109 -45c33.333 -13.333 64 -32.5 92 -57.5s42 -57.167 42 -96.5c0 -40.667 -14.833 -73.834 -44.5 -99.501
s-64.167 -38.5 -103.5 -38.5h-175c-12.667 0 -22.5 4 -29.5 12s-10.5 16.667 -10.5 26s3.5 18 10.5 26s16.833 12 29.5 12h175c18.667 0 35.167 5.33301 49.5 16s21.5 26 21.5 46c0 16.667 -6 30.667 -18 42s-25 21 -39 29c-5.33301 2.66699 -10.333 5 -15 7s-9 4 -13 6
l-110 45c-26.667 10.667 -49.5 26 -68.5 46s-28.5 45.333 -28.5 76v172c0 51.333 18.667 95.666 56 132.999s81.666 56 132.999 56c52 0 96.5 -18.667 133.5 -56s55.5 -81.666 55.5 -132.999v-156v0zM358.001 416.004l0.00195312 155c0 43.333 -15.5 80.666 -46.5 111.999
s-68.167 47 -111.5 47c-42.667 0 -79.667 -15.667 -111 -47s-47 -68.666 -47 -111.999v-171c0 -24 7.83301 -43.5 23.5 -58.5s33.5 -26.833 53.5 -35.5l110 -45c3.33301 -1.33301 6.66602 -2.83301 9.99902 -4.5s6.66602 -3.16699 9.99902 -4.5
c21.333 -10 40.833 -23.333 58.5 -40s26.5 -38 26.5 -64c0 -28 -10.167 -50.333 -30.5 -67s-44.166 -25 -71.499 -25h-175c-2 0 -3.66699 -0.333008 -5 -1s-2 -2.66699 -2 -6c0 -4 0.666992 -6.33301 2 -7s3 -1 5 -1h175c31.333 0 58.5 9.83301 81.5 29.5
s34.5 45.5 34.5 77.5c0 29.333 -10 53.5 -30 72.5s-42 34.5 -66 46.5c-2.66699 1.33301 -5.5 2.5 -8.5 3.5s-5.83301 2.16699 -8.5 3.5l-110 45c-17.333 7.33301 -33.166 17.5 -47.499 30.5s-21.5 29.833 -21.5 50.5v171c0 39.333 14.167 73.166 42.5 101.499
s62.166 42.5 101.499 42.5s73.166 -14.167 101.499 -42.5s42.5 -62.166 42.5 -101.499v-155c0 -2 0.333008 -3.66699 1 -5s2.66699 -2 6 -2s5.33301 0.666992 6 2s1 3 1 5v0z" />
    <glyph glyph-name="T" unicode="T" horiz-adv-x="395" 
d="M377 712c0 -9.33301 -3.33203 -18.001 -9.99902 -26.001s-16.667 -12 -30 -12h-101v-636c0 -13.333 -4 -23.166 -12 -29.499s-16.667 -9.5 -26 -9.5h-1.5h-1.5c-8.66699 0.666992 -16.834 4.16699 -24.501 10.5s-11.5 15.833 -11.5 28.5v636h-101
c-13.333 0 -23.333 4 -30 12s-10 16.667 -10 26s3.33301 18 10 26s16.667 12 30 12h279c13.333 0 23.333 -4 30 -12s10 -16.667 10 -26v0zM333.001 721.999c0 4 -0.666992 6.33301 -2 7s-3 1 -5 1h-279c-2 0 -3.66699 -0.333008 -5 -1s-2 -3 -2 -7
c0 -3.33301 0.666992 -5.33301 2 -6s3 -1 5 -1h132v-666c0 -2 0.333008 -3.83301 1 -5.5s3 -2.5 7 -2.5c3.33301 0 5.33301 0.833008 6 2.5s1 3.5 1 5.5v666h132c2 0 3.66699 0.333008 5 1s2 2.66699 2 6v0z" />
    <glyph glyph-name="U" unicode="U" horiz-adv-x="419" 
d="M398 188c0 -51.333 -18.5 -95.5 -55.5 -132.5s-81.167 -55.5 -132.5 -55.5s-95.5 18.5 -132.5 55.5s-55.5 81.167 -55.5 132.5v524c0 13.333 4 23.333 12 30s16.667 10 26 10s18 -3.33301 26 -10s12 -16.667 12 -30v-524c0 -30.667 11 -57 33 -79s48.333 -33 79 -33
s57 11 79 33s33 48.333 33 79v524c0 13.333 4 23.333 12 30s16.667 10 26 10s18 -3.33301 26 -10s12 -16.667 12 -30v-524v0zM356 199v523c0 2 -0.333008 3.83301 -1 5.5s-2.66699 2.5 -6 2.5s-5.33301 -0.833008 -6 -2.5s-1 -3.5 -1 -5.5v-523
c0 -38.667 -14 -72.167 -42 -100.5s-61.667 -42.5 -101 -42.5c-38.667 0 -72.167 14.167 -100.5 42.5s-42.5 61.833 -42.5 100.5v523c0 2 -0.333008 3.83301 -1 5.5s-2.66699 2.5 -6 2.5s-5.33301 -0.833008 -6 -2.5s-1 -3.5 -1 -5.5v-523c0 -42.667 15.5 -79.667 46.5 -111
s67.833 -47 110.5 -47c43.333 0 80.333 15.667 111 47s46 68.333 46 111v0z" />
    <glyph glyph-name="V" unicode="V" horiz-adv-x="364" 
d="M344 284c0 -77.333 -28.1689 -143.997 -84.502 -199.997s-123.166 -84 -200.499 -84h-38v38v674c0 13.333 4 23.333 12 30s16.667 10 26 10h1.5h1.5c8.66699 -0.666992 16.834 -4.33398 24.501 -11.001s11.5 -16.334 11.5 -29.001v-632
c48.667 9.33301 89.167 33.166 121.5 71.499s48.5 82.5 48.5 132.5v428c0 13.333 4 23.333 12 30s16.667 10 26 10s18 -3.33301 26 -10s12 -16.667 12 -30v-428v0zM301.998 294.003v428.001c0 2 -0.333008 3.83301 -1 5.5s-2.66699 2.5 -6 2.5
c-4 0 -6.33301 -0.833008 -7 -2.5s-1 -3.5 -1 -5.5v-428c0 -63.333 -22.667 -118.333 -68 -165s-100 -71 -164 -73v666c0 2 -0.333008 3.83301 -1 5.5s-2.66699 2.5 -6 2.5s-5.33301 -0.833008 -6 -2.5s-1 -3.5 -1 -5.5v-673c0 -1.33301 0.5 -2.83301 1.5 -4.5
s2.16699 -2.83398 3.5 -3.50098h1.5h0.5c69.333 0 129 25 179 75s75 109.333 75 178v0z" />
    <glyph glyph-name="W" unicode="W" horiz-adv-x="503" 
d="M480 -2l-79.001 -0.00195312c-30 0.666992 -58.167 7.66699 -84.5 21s-48.166 31.333 -65.499 54c-16.667 -22.667 -38.167 -40.667 -64.5 -54s-54.5 -20 -84.5 -20l-79 -1v712c0 13.333 4 23.333 12 30s16.667 10 26 10s18 -3.33301 26 -10s12 -16.667 12 -30v-635
c31.333 0 58.166 10.667 80.499 32s33.5 47.666 33.5 78.999v305c0 12.667 3.83301 22.334 11.5 29.001s15.834 10.334 24.501 11.001h1.5h1.5c9.33301 -0.666992 18 -4.16699 26 -10.5s12 -16.166 12 -29.499v-302c0 -32 11 -59 33 -81s49 -33 81 -33v635
c0 13.333 4 23.333 12 30s16.667 10 26 10s18 -3.33301 26 -10s12 -16.667 12 -30v-712v0zM437.999 49.998l-0.00195312 673.999v0.5v1.5c0 1.33301 -0.5 2.5 -1.5 3.5s-2.83301 1.5 -5.5 1.5s-4.5 -0.5 -5.5 -1.5s-1.5 -2.16699 -1.5 -3.5v-1.5v-0.5v-667h-33
c-38.667 0 -72.167 14 -100.5 42s-42.5 61.333 -42.5 100v306v0.5v1.5c0 1.33301 -0.5 2.5 -1.5 3.5s-2.83301 1.5 -5.5 1.5s-4.5 -0.5 -5.5 -1.5s-1.5 -2.16699 -1.5 -3.5v-1.5v-0.5v-306c0 -38.667 -14 -72 -42 -100s-61.667 -42 -101 -42h-33v667v0.5v1.5
c0 1.33301 -0.5 2.5 -1.5 3.5s-3.16699 1.5 -6.5 1.5c-2.66699 0 -4.5 -0.5 -5.5 -1.5s-1.5 -2.16699 -1.5 -3.5v-1.5v-0.5v-674c0 -1.33301 0.5 -2.66602 1.5 -3.99902s2.16699 -2.33301 3.5 -3h1.5h0.5h41c34.667 0 65.834 10.333 93.501 31s46.5 47 56.5 79
c10 -32 28.833 -58.333 56.5 -79s58.834 -31 93.501 -31h40h0.5h1.5c1.33301 0 2.5 0.5 3.5 1.5s1.5 2.83301 1.5 5.5v0z" />
    <glyph glyph-name="X" unicode="X" horiz-adv-x="422" 
d="M398 38c0 -12.667 -3.83105 -22.167 -11.498 -28.5s-15.834 -9.83301 -24.501 -10.5h-1.5h-1.5c-9.33301 0.666992 -17.833 4.16699 -25.5 10.5s-11.5 15.833 -11.5 28.5v69c0 30.667 -11 57 -33 79s-48.333 33 -79 33s-57 -11 -79 -33s-33 -48.333 -33 -79v-69
c0 -12.667 -3.83301 -22.167 -11.5 -28.5s-15.834 -9.83301 -24.501 -10.5h-1.5h-1.5c-9.33301 0.666992 -17.833 4.16699 -25.5 10.5s-11.5 15.833 -11.5 28.5v69c0 29.333 6.83301 57.333 20.5 84s31.834 48.667 54.501 66c-22.667 17.333 -40.834 39 -54.501 65
s-20.5 54.333 -20.5 85v305c0 13.333 4 23.333 12 30s16.667 10 26 10s18 -3.33301 26 -10s12 -16.667 12 -30v-305c0 -30.667 11 -57 33 -79s48.333 -33 79 -33s57 11 79 33s33 48.333 33 79v305c0 13.333 4 23.333 12 30s16.667 10 26 10s18 -3.33301 26 -10
s12 -16.667 12 -30v-305c0 -30.667 -6.66699 -59 -20 -85s-31.666 -47.667 -54.999 -65c23.333 -17.333 41.666 -39.333 54.999 -66s20 -54.667 20 -84v-69v0zM356.002 49v68c0 35.333 -10.5 66.666 -31.5 93.999s-47.5 46.333 -79.5 57c32 10 58.5 28.833 79.5 56.5
s31.5 58.834 31.5 93.501v304c0 2 -0.333008 3.83301 -1 5.5s-2.66699 2.5 -6 2.5s-5.33301 -0.833008 -6 -2.5s-1 -3.5 -1 -5.5v-304c0 -38.667 -14 -72.167 -42 -100.5s-61.667 -42.5 -101 -42.5c-38.667 0 -72.167 14.167 -100.5 42.5s-42.5 61.833 -42.5 100.5v304
c0 2 -0.333008 3.83301 -1 5.5s-2.66699 2.5 -6 2.5s-5.33301 -0.833008 -6 -2.5s-1 -3.5 -1 -5.5v-304c0 -34.667 10.5 -65.834 31.5 -93.501s47.167 -46.5 78.5 -56.5c-31.333 -10.667 -57.5 -29.667 -78.5 -57s-31.5 -58.666 -31.5 -93.999v-68
c0 -2 0.333008 -3.83301 1 -5.5s2.66699 -2.5 6 -2.5s5.33301 0.833008 6 2.5s1 3.5 1 5.5v68c0 39.333 14.167 73 42.5 101s61.833 42 100.5 42c39.333 0 73 -14 101 -42s42 -61.667 42 -101v-68c0 -2 0.333008 -3.83301 1 -5.5s2.66699 -2.5 6 -2.5
s5.33301 0.833008 6 2.5s1 3.5 1 5.5v0z" />
    <glyph glyph-name="Y" unicode="Y" horiz-adv-x="414" 
d="M395 407c0 -44.667 -14.3311 -84.167 -42.998 -118.5s-64.334 -56.166 -107.001 -65.499v-185c0 -13.333 -4 -23.166 -12 -29.499s-16.667 -9.5 -26 -9.5s-18 3.16699 -26 9.5s-12 16.166 -12 29.499v185c-42.667 9.33301 -78.334 31.166 -107.001 65.499
s-43 73.833 -43 118.5v305c0 13.333 4 23.333 12 30s16.667 10 26 10s18 -3.33301 26 -10s12 -16.667 12 -30v-305c0 -30.667 11 -57 33 -79s48.333 -33 79 -33s57 11 79 33s33 48.333 33 79v305c0 13.333 4 23.333 12 30s16.667 10 26 10s18 -3.33301 26 -10
s12 -16.667 12 -30v-305v0zM353.002 418l0.00195312 304c0 2 -0.333008 3.83301 -1 5.5s-2.66699 2.5 -6 2.5s-5.33301 -0.833008 -6 -2.5s-1 -3.5 -1 -5.5v-304c0 -38.667 -14 -72.167 -42 -100.5s-61.667 -42.5 -101 -42.5c-38.667 0 -72.167 14.167 -100.5 42.5
s-42.5 61.833 -42.5 100.5v304c0 2 -0.333008 3.83301 -1 5.5s-2.66699 2.5 -6 2.5s-5.33301 -0.833008 -6 -2.5s-1 -3.5 -1 -5.5v-304c0 -42 14.667 -78.333 44 -109s64.666 -46.667 105.999 -48v-212c0 -2 0.333008 -3.83301 1 -5.5s2.66699 -2.5 6 -2.5
s5.33301 0.833008 6 2.5s1 3.5 1 5.5v212c41.333 1.33301 76.666 17.333 105.999 48s44 67 44 109v0z" />
    <glyph glyph-name="Z" unicode="Z" horiz-adv-x="429" 
d="M410 750l-277 -674h210c13.333 0 23.333 -4 30 -12s10 -16.667 10 -26s-3.33301 -18 -10 -26s-16.667 -12 -30 -12h-323l276 674h-212c-13.333 0 -23.333 4 -30 12s-10 16.667 -10 26s3.33301 18 10 26s16.667 12 30 12h326v0zM348 720
c0.666992 0.666992 1 1.16797 1 1.50098v1.5c-0.666992 2 -1.5 3.66699 -2.5 5s-2.5 2 -4.5 2h-269c-2 0 -3.66699 -0.333008 -5 -1s-2 -3 -2 -7c0 -3.33301 0.666992 -5.33301 2 -6s3 -1 5 -1h258l-272 -664c-0.666992 -0.666992 -1 -1.33398 -1 -2.00098v-2
c0 -2 0.666992 -3.5 2 -4.5s3 -1.5 5 -1.5h267h0.5h1.5c1.33301 0 2.5 0.5 3.5 1.5s1.5 3.16699 1.5 6.5c0 2.66699 -0.5 4.5 -1.5 5.5s-2.16699 1.5 -3.5 1.5h-1.5h-0.5h-256l272 664v0z" />
    <glyph glyph-name="bracketleft" unicode="[" horiz-adv-x="52" 
d="M52 0h-10c-12.667 0 -22.5 4 -29.5 12s-10.5 16.667 -10.5 26s3.5 18 10.5 26s16.833 12 29.5 12h10v-17h-24c-2 0 -3.66699 -0.333008 -5 -1s-2 -2.66699 -2 -6s0.666992 -5.33301 2 -6s3 -1 5 -1h24v-45v0zM52 674h-10c-12.667 0 -22.5 4 -29.5 12
s-10.5 16.667 -10.5 26s3.5 18 10.5 26s16.833 12 29.5 12h10v-17h-24c-2 0 -3.66699 -0.333008 -5 -1s-2 -2.66699 -2 -6s0.666992 -5.33301 2 -6s3 -1 5 -1h24v-45v0z" />
    <glyph glyph-name="backslash" unicode="\" horiz-adv-x="329" 
d="M329 0h-329v45h329v-45v0zM329 59h-329v17h329v-17v0zM329 674h-329v45h329v-45v0zM329 733h-329v17h329v-17v0z" />
    <glyph glyph-name="bracketright" unicode="]" horiz-adv-x="54" 
d="M50 38c0 -9.33301 -3.33301 -18 -10 -26s-16.667 -12 -30 -12h-10v45h14c2 0 3.83301 0.333008 5.5 1s2.5 2.66699 2.5 6s-0.833008 5.33301 -2.5 6s-3.5 1 -5.5 1h-14v17h10c13.333 0 23.333 -4 30 -12s10 -16.667 10 -26v0zM50 712c0 -9.33301 -3.33301 -18 -10 -26
s-16.667 -12 -30 -12h-10v45h14c2 0 3.83301 0.333008 5.5 1s2.5 2.66699 2.5 6s-0.833008 5.33301 -2.5 6s-3.5 1 -5.5 1h-14v17h10c13.333 0 23.333 -4 30 -12s10 -16.667 10 -26v0z" />
    <glyph glyph-name="asciicircum" unicode="^" horiz-adv-x="500" 
 />
    <glyph glyph-name="underscore" unicode="_" horiz-adv-x="410" 
d="M410 0h-410v45h410v-45v0zM410 59h-410v17h410v-17v0z" />
    <glyph glyph-name="grave" unicode="`" horiz-adv-x="275" 
d="M254 792c-2.66699 -6.66699 -7.16895 -12.335 -13.502 -17.002s-13.5 -7 -21.5 -7h-4c-1.33301 0 -2.66602 0.333008 -3.99902 1c-1.33301 0 -2.66602 0.166992 -3.99902 0.5s-2.66602 0.833008 -3.99902 1.5l-164 65c-9.33301 3.33301 -16.166 8.33301 -20.499 15
s-6.5 13.667 -6.5 21v3.5c0 1 0.333008 2.16699 1 3.5c0 1.33301 0.166992 2.5 0.5 3.5s0.833008 2.16699 1.5 3.5c2.66699 6.66699 7.16699 12.334 13.5 17.001s13.833 7 22.5 7c2.66699 0 5.16699 -0.166992 7.5 -0.5s4.83301 -1.16602 7.5 -2.49902l164 -65
c9.33301 -3.33301 16.166 -8.5 20.499 -15.5s6.16602 -14.167 5.49902 -21.5v-3c0 -1.33301 -0.333008 -2.33301 -1 -3c0 -1.33301 -0.166992 -2.5 -0.5 -3.5s-0.5 -2.16699 -0.5 -3.5v0zM217.998 818.999c0 0.666992 0.165039 1.16895 0.498047 1.50195
s0.5 0.833008 0.5 1.5v0.5v1.5c0 1.33301 -0.5 2.16602 -1.5 2.49902s-2.16699 0.833008 -3.5 1.5l-164 64h-0.5c-0.333008 0 -0.833008 0.333008 -1.5 1h-1.5h-0.5c-0.666992 0 -1.5 -0.333008 -2.5 -1s-1.83301 -2 -2.5 -4c-0.666992 -0.666992 -1 -1.33398 -1 -2.00098
v-2c0 -1.33301 0.333008 -2.33301 1 -3s1.33398 -1 2.00098 -1h0.5h0.5c0 -0.666992 0.166992 -1 0.5 -1h0.5l164 -64l0.5 -0.5c0.333008 -0.333008 0.833008 -0.5 1.5 -0.5h1.5h0.5c1.33301 0 2.33301 0.333008 3 1s1.33398 2 2.00098 4v0z" />
    <glyph glyph-name="a" unicode="a" horiz-adv-x="401" 
d="M401 0h-401v45h401v-45v0zM401 59h-401v17h401v-17v0zM369 130c0 -12.667 -4 -22.5 -12 -29.5s-16.667 -10.5 -26 -10.5s-18 3.5 -26 10.5s-12 16.833 -12 29.5v122h-143v-122c0 -12.667 -4 -22.5 -12 -29.5s-16.667 -10.5 -26 -10.5s-18 3.5 -26 10.5
s-12 16.833 -12 29.5v122h-12c-13.333 0 -23.333 4 -30 12s-10 16.667 -10 26s3.33301 18 10 26s16.667 12 30 12h12v184c0 40.667 14.5 75.5 43.5 104.5s63.5 43.5 103.5 43.5c40.667 0 75.5 -14.5 104.5 -43.5s43.5 -63.833 43.5 -104.5v-382v0zM324 143v382
c0 32 -11.5 59.5 -34.5 82.5s-50.5 34.5 -82.5 34.5s-59.5 -11.5 -82.5 -34.5s-34.5 -50.5 -34.5 -82.5v-215h-33c-2 0 -3.66699 -0.333008 -5 -1s-2 -2.66699 -2 -6s0.666992 -5.33301 2 -6s3 -1 5 -1h33v-153v-0.5v-1.5c0 -1.33301 0.5 -2.5 1.5 -3.5
s3.16699 -1.5 6.5 -1.5c2.66699 0 4.5 0.5 5.5 1.5s1.5 2.16699 1.5 3.5v1.5v0.5v153h204v-153v-0.5v-1.5c0 -1.33301 0.5 -2.5 1.5 -3.5s2.83301 -1.5 5.5 -1.5c3.33301 0 5.5 0.5 6.5 1.5s1.5 2.16699 1.5 3.5v1.5v0.5v0zM309 310h-204v215c0 28 10 52 30 72s44 30 72 30
s52 -10 72 -30s30 -44 30 -72v-215v0zM293 328l-0.000976562 184c0 19.333 -7.16699 36 -21.5 50s-31.166 21 -50.499 21s-36 -7 -50 -21s-21 -30.667 -21 -50v-184h143v0zM400.999 674h-401v45h401v-45v0zM400.999 733h-401v17h401v-17v0z" />
    <glyph glyph-name="b" unicode="b" horiz-adv-x="422" 
d="M422 0h-422v45h422v-45v0zM422 59h-422v17h422v-17v0zM380 210c0 -32.667 -11.499 -60.498 -34.499 -83.498s-50.833 -34.5 -83.5 -34.5h-179v160h-19c-13.333 0 -23.333 4 -30 12s-10 16.667 -10 26s3.33301 18 10 26s16.667 12 30 12h19v332h153
c39.333 0 73.166 -14.333 101.499 -43s42.5 -62.667 42.5 -102v-145c0 -15.333 -2.66699 -29.833 -8 -43.5s-13 -25.834 -23 -36.501c10 -10.667 17.667 -22.834 23 -36.501s8 -28.167 8 -43.5v0zM338.001 223.002c0 17.333 -4.83301 33.332 -14.5 47.999
s-22.5 25.334 -38.5 32.001c16 6.66699 28.833 17.334 38.5 32.001s14.5 30.667 14.5 48v145c0 31.333 -11 58.166 -33 80.499s-48.667 33.5 -80 33.5h-123v-332h-48c-2 0 -3.83301 -0.333008 -5.5 -1s-2.5 -2.66699 -2.5 -6s0.833008 -5.33301 2.5 -6s3.5 -1 5.5 -1h48
v-160h149c24 0 44.5 8.5 61.5 25.5s25.5 37.5 25.5 61.5v0zM324.001 223.001c0 -20 -7.16699 -37.167 -21.5 -51.5s-31.5 -21.5 -51.5 -21.5h-135v146h135c20 0 37.167 -7.16699 51.5 -21.5s21.5 -31.5 21.5 -51.5v0zM304.001 210.001c0 12 -4.33203 22.001 -12.999 30.001
s-18.667 12 -30 12h-102v-84h103c11.333 0 21.166 4.16699 29.499 12.5s12.5 18.166 12.5 29.499v0zM324.002 383.002c0 -20 -7.16602 -37.168 -21.499 -51.501s-31.5 -21.5 -51.5 -21.5h-1v0h1h-1h-134v317h109c27.333 0 50.666 -9.66699 69.999 -29s29 -42.666 29 -69.999
v-145v0zM304.003 370.001l0.000976562 36.001v37v36v36c0 18.667 -6.66699 34.667 -20 48s-29.333 20 -48 20h-77v-255h103c11.333 0 21.166 4.16699 29.499 12.5s12.5 18.166 12.5 29.499v0zM422.004 674.002h-422v45h422v-45v0zM422.004 733.002h-422v17h422v-17v0z" />
    <glyph glyph-name="c" unicode="c" horiz-adv-x="373" 
d="M373 0h-373v45h373v-45v0zM373 59h-373v17h373v-17v0zM333 240c0 -40.667 -14.5 -75.5 -43.5 -104.5s-63.833 -43.5 -104.5 -43.5s-75.667 14.5 -105 43.5s-44 63.833 -44 104.5v271c0 40.667 14.667 75.667 44 105s64.333 44 105 44s75.5 -14.667 104.5 -44
s43.5 -64.333 43.5 -105v-95c0 -13.333 -4 -23.333 -12 -30s-16.667 -10 -26 -10s-18 3.33301 -26 10s-12 16.667 -12 30v95c0 19.333 -7.16699 36.166 -21.5 50.499s-31.166 21.5 -50.499 21.5s-36.166 -7.16699 -50.499 -21.5s-21.5 -31.166 -21.5 -50.499v-271
c0 -19.333 7.16699 -36.166 21.5 -50.499s31.166 -21.5 50.499 -21.5s36.166 7.16699 50.499 21.5s21.5 31.166 21.5 50.499c0 13.333 4 23.333 12 30s16.667 10 26 10s18 -3.33301 26 -10s12 -16.667 12 -30v0zM293 253c0 2 -0.333008 3.66699 -1 5s-2.66699 2 -6 2
c-4 0 -6.33301 -0.666992 -7 -2s-1 -3 -1 -5c0 -28 -10 -52.167 -30 -72.5s-44 -30.5 -72 -30.5c-28.667 0 -53 10.167 -73 30.5s-30 44.5 -30 72.5v271c0 28.667 10 53 30 73s44.333 30 73 30c28 0 52 -10 72 -30s30 -44.333 30 -73v-95c0 -2 0.333008 -3.83301 1 -5.5
s3 -2.5 7 -2.5c3.33301 0 5.33301 0.833008 6 2.5s1 3.5 1 5.5v95c0 32 -11.5 59.667 -34.5 83s-50.5 35 -82.5 35c-32.667 0 -60.5 -11.667 -83.5 -35s-34.5 -51 -34.5 -83v-271c0 -32 11.5 -59.5 34.5 -82.5s50.833 -34.5 83.5 -34.5c32 0 59.5 11.5 82.5 34.5
s34.5 50.5 34.5 82.5v0zM373 674h-373v45h373v-45v0zM373 733h-373v17h373v-17v0z" />
    <glyph glyph-name="d" unicode="d" horiz-adv-x="368" 
d="M368 0h-368v45h368v-45v0zM368 59h-368v17h368v-17v0zM333 240c0 -40.667 -14.5 -75.5 -43.5 -104.5s-63.833 -43.5 -104.5 -43.5h-148v284v284h148c40.667 0 75.5 -14.667 104.5 -44s43.5 -64.333 43.5 -105v-271v0zM287 253v271c0 32 -11.667 59.667 -35 83
s-51 35 -83 35h-110h-7v-8v-491v-7h7h110c32 0 59.667 11.5 83 34.5s35 50.5 35 82.5v0zM272 253c0 -28 -10 -52.167 -30 -72.5s-44.333 -30.5 -73 -30.5h-103v477h103c28.667 0 53 -10 73 -30s30 -44.333 30 -73v-271v0zM257 240v271.002
c0 19.333 -7.16699 36.166 -21.5 50.499s-31.166 21.5 -50.499 21.5h-72v-415h72c19.333 0 36.166 7.16699 50.499 21.5s21.5 31.166 21.5 50.499v0zM368 674.002h-368v45h368v-45v0zM368 733.002h-368v17h368v-17v0z" />
    <glyph glyph-name="e" unicode="e" horiz-adv-x="382" 
d="M382 0h-382v45h382v-45v0zM382 59h-382v17h382v-17v0zM357 290c0 -9.33301 -3.33594 -18.001 -10.0029 -26.001s-16.667 -12 -30 -12h-158v-63c0 -5.33301 2 -10.166 6 -14.499s9 -6.5 15 -6.5h104c13.333 0 23.333 -4 30 -12s10 -16.667 10 -26s-3.33301 -18 -10 -26
s-16.667 -12 -30 -12h-104c-26.667 0 -49.5 9.5 -68.5 28.5s-28.5 41.833 -28.5 68.5v63h-18c-12.667 0 -22.334 4 -29.001 12s-10 16.667 -10 26s3.33301 18 10 26s16.334 12 29.001 12h18v234c0 26.667 9.5 49.667 28.5 69s41.833 29 68.5 29h104
c12.667 0 22.334 -3.83301 29.001 -11.5s10.334 -15.834 11.001 -24.501v-1.5v-1.5c0 -9.33301 -3.33301 -18 -10 -26s-16.667 -12 -30 -12h-104c-5.33301 0 -10.166 -2.16699 -14.499 -6.5s-6.5 -9.16602 -6.5 -14.499v-234h158c13.333 0 23.333 -4 30 -12
s10 -16.667 10 -26v0zM312.997 302.999c0 2.66699 -0.5 4.5 -1.5 5.5s-2.16699 1.5 -3.5 1.5h-1.5h-0.5h-189v265c0 14.667 5 27 15 37s22.333 15 37 15h104c2 0 3.66699 0.333008 5 1s2 2.66699 2 6c0 4 -0.666992 6.33301 -2 7s-3 1 -5 1h-104
c-18 0 -33.5 -6.5 -46.5 -19.5s-19.5 -28.833 -19.5 -47.5v-265h-34c-2 0 -3.66699 -0.333008 -5 -1s-2 -2.66699 -2 -6s0.666992 -5.33301 2 -6s3 -1 5 -1h34v-93c0 -18.667 6.5 -34.5 19.5 -47.5s28.5 -19.5 46.5 -19.5h104c2 0 3.66699 0.333008 5 1s2 2.66699 2 6
s-0.666992 5.33301 -2 6s-3 1 -5 1h-104c-14.667 0 -27 5.16699 -37 15.5s-15 22.833 -15 37.5v93h189h0.5h1.5c1.33301 0 2.5 0.5 3.5 1.5s1.5 2.83301 1.5 5.5v0zM381.997 673.999h-382v45h382v-45v0zM381.997 732.999h-382v17h382v-17v0z" />
    <glyph glyph-name="f" unicode="f" horiz-adv-x="390" 
d="M390 0h-390v45h390v-45v0zM390 59h-390v17h390v-17v0zM358 290c0 -9.33301 -3.33301 -17.998 -10 -25.998s-16.667 -12 -30 -12h-157v-122c0 -12.667 -3.83301 -22.334 -11.5 -29.001s-15.834 -10.334 -24.501 -11.001h-1.5h-1.5c-9.33301 0 -18 3.5 -26 10.5
s-12 16.833 -12 29.5v122h-17c-12.667 0 -22.5 4 -29.5 12s-10.5 16.667 -10.5 26s3.5 18 10.5 26s16.833 12 29.5 12h17v234c0 26.667 9.66699 49.667 29 69s42.333 29 69 29h104c12.667 0 22.167 -3.83301 28.5 -11.5s9.83301 -15.834 10.5 -24.501v-1.5v-1.5
c0 -9.33301 -3.16699 -18 -9.5 -26s-16.166 -12 -29.499 -12h-104c-6 0 -11 -2.16699 -15 -6.5s-6 -9.16602 -6 -14.499v-234h157c13.333 0 23.333 -4 30 -12s10 -16.667 10 -26v0zM309 303.002c0 2.66699 -0.5 4.5 -1.5 5.5s-2.16699 1.5 -3.5 1.5h-1.5h-0.5h-189v265
c0 14.667 5 27 15 37s22.333 15 37 15h104h0.5h1.5c1.33301 0 2.5 0.5 3.5 1.5s1.5 2.83301 1.5 5.5c0 3.33301 -0.5 5.5 -1.5 6.5s-2.16699 1.5 -3.5 1.5h-1.5h-0.5h-104c-18.667 0 -34.5 -6.66699 -47.5 -20s-19.5 -29 -19.5 -47v-265h-33c-2 0 -3.66699 -0.333008 -5 -1
s-2 -2.66699 -2 -6s0.666992 -5.33301 2 -6s3 -1 5 -1h33v-153v-0.5v-1.5c0 -1.33301 0.5 -2.5 1.5 -3.5s2.83301 -1.5 5.5 -1.5c3.33301 0 5.5 0.5 6.5 1.5s1.5 2.16699 1.5 3.5v1.5v0.5v153h189h0.5h1.5c1.33301 0 2.5 0.5 3.5 1.5s1.5 2.83301 1.5 5.5v0zM390 674.002
h-390v45h390v-45v0zM390 733.002h-390v17h390v-17v0z" />
    <glyph glyph-name="g" unicode="g" horiz-adv-x="360" 
d="M360 0h-360v45h360v-45v0zM360 59h-360v17h360v-17v0zM328 240c0 -40.667 -14.5 -75.5 -43.5 -104.5s-63.833 -43.5 -104.5 -43.5s-75.5 14.5 -104.5 43.5s-43.5 63.833 -43.5 104.5v271c0 40.667 14.5 75.667 43.5 105s63.833 44 104.5 44s75.5 -14.667 104.5 -44
s43.5 -64.333 43.5 -105v-95c0 -13.333 -4 -23.333 -12 -30s-16.667 -10 -26 -10s-18 3.33301 -26 10s-12 16.667 -12 30v95c0 19.333 -7.16699 36.166 -21.5 50.499s-31.166 21.5 -50.499 21.5s-36.166 -7.16699 -50.499 -21.5s-21.5 -31.166 -21.5 -50.499v-271
c0 -19.333 7.16699 -36.166 21.5 -50.499s31.166 -21.5 50.499 -21.5s36.166 7.16699 50.499 21.5s21.5 31.166 21.5 50.499v12h-91c-13.333 0 -23.333 4 -30 12s-10 16.667 -10 26s3.33301 18 10 26s16.667 12 30 12h167v-88v0zM286 303l-0.00195312 6.99902h-7h-130h-0.5
h-1.5c-1.33301 0 -2.5 -0.5 -3.5 -1.5s-1.5 -2.83301 -1.5 -5.5s0.5 -4.5 1.5 -5.5s2.16699 -1.5 3.5 -1.5h1.5h0.5h122v-4.5v-5.5c0 -19.333 -1.16699 -37.833 -3.5 -55.5s-11.166 -34.167 -26.499 -49.5c-9.33301 -9.33301 -20.166 -16.833 -32.499 -22.5
s-25.833 -8.5 -40.5 -8.5c-28 0 -52 10.167 -72 30.5s-30 44.5 -30 72.5v271c0 28.667 10 53 30 73s44 30 72 30c28.667 0 53 -10 73 -30s30 -44.333 30 -73v-95c0 -2 0.333008 -3.83301 1 -5.5s3 -2.5 7 -2.5c3.33301 0 5.33301 0.833008 6 2.5s1 3.5 1 5.5v95
c0 32 -11.5 59.667 -34.5 83s-50.833 35 -83.5 35c-32 0 -59.5 -11.667 -82.5 -35s-34.5 -51 -34.5 -83v-271c0 -32 11.5 -59.5 34.5 -82.5s50.5 -34.5 82.5 -34.5c16.667 0 32 3 46 9s26.333 14.333 37 25c18 18 28.333 37.333 31 58s4 42.334 4 65.001v5v5v0z
M359.998 673.999h-360v45h360v-45v0zM359.998 732.999h-360v17h360v-17v0z" />
    <glyph glyph-name="h" unicode="h" horiz-adv-x="402" 
d="M402 0h-402v45h402v-45v0zM402 59h-402v17h402v-17v0zM371 130c0 -12.667 -4 -22.5 -12 -29.5s-16.667 -10.5 -26 -10.5s-18 3.5 -26 10.5s-12 16.833 -12 29.5v122h-140v-122c0 -12.667 -4 -22.5 -12 -29.5s-16.667 -10.5 -26 -10.5s-18 3.5 -26 10.5
s-12 16.833 -12 29.5v122h-15c-13.333 0 -23.333 4 -30 12s-10 16.667 -10 26s3.33301 18 10 26s16.667 12 30 12h15v293c0 13.333 4 23.333 12 30s16.667 10 26 10s18 -3.33301 26 -10s12 -16.667 12 -30v-293h140v293c0 13.333 4 23.333 12 30s16.667 10 26 10
s18 -3.33301 26 -10s12 -16.667 12 -30v-491v0zM325 143v491c0 2 -0.333008 3.83301 -1 5.5s-2.66699 2.5 -6 2.5c-4 0 -6.33301 -0.833008 -7 -2.5s-1 -3.5 -1 -5.5v-324h-202v324c0 2 -0.333008 3.83301 -1 5.5s-2.66699 2.5 -6 2.5s-5.33301 -0.833008 -6 -2.5
s-1 -3.5 -1 -5.5v-324h-32h-0.5h-1.5c-1.33301 0 -2.5 -0.5 -3.5 -1.5s-1.5 -2.83301 -1.5 -5.5s0.5 -4.5 1.5 -5.5s2.16699 -1.5 3.5 -1.5h1.5h0.5h32v-153v-0.5v-1.5c0 -1.33301 0.5 -2.5 1.5 -3.5s2.83301 -1.5 5.5 -1.5s4.5 0.5 5.5 1.5s1.5 2.16699 1.5 3.5v1.5v0.5
v153h202v-153v-0.5v-1.5c0 -1.33301 0.5 -2.5 1.5 -3.5s3.16699 -1.5 6.5 -1.5c2.66699 0 4.5 0.5 5.5 1.5s1.5 2.16699 1.5 3.5v1.5v0.5v0zM402 674h-402v45h402v-45v0zM402 733h-402v17h402v-17v0z" />
    <glyph glyph-name="i" unicode="i" horiz-adv-x="155" 
d="M155 0h-155v45h155v-45v0zM155 59h-155v17h155v-17v0zM116 130c0 -12.667 -4 -22.5 -12 -29.5s-16.667 -10.5 -26 -10.5s-18 3.5 -26 10.5s-12 16.833 -12 29.5v491c0 13.333 4 23.333 12 30s16.667 10 26 10s18 -3.33301 26 -10s12 -16.667 12 -30v-491v0zM72 143v491
c0 2 -0.333008 3.83301 -1 5.5s-2.66699 2.5 -6 2.5c-4 0 -6.33301 -0.833008 -7 -2.5s-1 -3.5 -1 -5.5v-491v-0.5v-1.5c0 -1.33301 0.5 -2.5 1.5 -3.5s3.16699 -1.5 6.5 -1.5c2.66699 0 4.5 0.5 5.5 1.5s1.5 2.16699 1.5 3.5v1.5v0.5v0zM155 674h-155v45h155v-45v0z
M155 733h-155v17h155v-17v0z" />
    <glyph glyph-name="j" unicode="j" horiz-adv-x="235" 
d="M235 0h-235v45h235v-45v0zM235 59h-235v17h235v-17v0zM206 237c0 -20 -3.99902 -39 -11.999 -57s-18.667 -33.667 -32 -47s-29 -24 -47 -32s-37 -12 -57 -12c-12.667 0 -22.334 4 -29.001 12s-10 16.667 -10 26c0 10 3.33301 19 10 27s16.334 12 29.001 12
c19.333 0 36.166 7 50.499 21s21.5 30.667 21.5 50v384c0 13.333 4 23.333 12 30s16.667 10 26 10s18 -3.33301 26 -10s12 -16.667 12 -30v-384v0zM167.001 251v383c0 2 -0.333008 3.83301 -1 5.5s-2.66699 2.5 -6 2.5s-5.33301 -0.833008 -6 -2.5s-1 -3.5 -1 -5.5v-383
c0 -28 -10.167 -52.167 -30.5 -72.5s-44.5 -30.5 -72.5 -30.5h-1.5h-0.5c-0.666992 0 -1.16699 -0.166992 -1.5 -0.5s-0.833008 -0.5 -1.5 -0.5c-0.666992 -0.666992 -1.16699 -1.5 -1.5 -2.5s-0.5 -2.16699 -0.5 -3.5c0 -2.66699 0.5 -4.66699 1.5 -6s2.83301 -2 5.5 -2
c32 0 59.5 11.5 82.5 34.5s34.5 50.833 34.5 83.5v0zM235.001 674h-235v45h235v-45v0zM235.001 733h-235v17h235v-17v0z" />
    <glyph glyph-name="k" unicode="k" horiz-adv-x="380" 
d="M380 0h-380v45h380v-45v0zM380 59h-380v17h380v-17v0zM347 130c0 -12.667 -4.00195 -22.4951 -12.002 -29.4951s-16.667 -10.5 -26 -10.5c-10 0 -19 3.5 -27 10.5s-12 16.833 -12 29.5v51c0 19.333 -7 36 -21 50s-30.667 21 -50 21h-57v-122
c0 -12.667 -4 -22.5 -12 -29.5s-16.667 -10.5 -26 -10.5s-18 3.5 -26 10.5s-12 16.833 -12 29.5v122h-8c-12.667 0 -22.5 4 -29.5 12s-10.5 16.667 -10.5 26s3.5 18 10.5 26s16.833 12 29.5 12h8v293c0 13.333 4 23.333 12 30s16.667 10 26 10h1.5h1.5
c8.66699 -0.666992 16.834 -4.33398 24.501 -11.001s11.5 -16.334 11.5 -29.001l-1 -293h46c22 0 41.167 7.5 57.5 22.5s24.5 33.833 24.5 56.5v214c0 13.333 4 23.333 12 30s16.667 10 26 10h1.5h1.5c8.66699 -0.666992 16.834 -4.33398 24.501 -11.001
s11.5 -16.334 11.5 -29.001v-214c0 -22.667 -4.66699 -43.834 -14 -63.501s-22 -36.834 -38 -51.501c16 -13.333 28.667 -29.666 38 -48.999s14 -40 14 -62v-51v0zM303.998 143.005l0.000976562 51.002c0 25.333 -7.5 48.166 -22.5 68.499s-34.167 34.166 -57.5 41.499
c23.333 9.33301 42.5 24.5 57.5 45.5s22.5 44.5 22.5 70.5v214c0 2 -0.333008 3.83301 -1 5.5s-3 2.5 -7 2.5c-3.33301 0 -5.33301 -0.833008 -6 -2.5s-1 -3.5 -1 -5.5v-214c0 -30.667 -10.833 -56.667 -32.5 -78s-47.834 -32 -78.501 -32h-79l1 324
c0 2 -0.333008 3.83301 -1 5.5s-3 2.5 -7 2.5c-3.33301 0 -5.33301 -0.833008 -6 -2.5s-1 -3.5 -1 -5.5v-324h-39h-0.5h-1.5c-1.33301 0 -2.5 -0.5 -3.5 -1.5s-1.5 -2.83301 -1.5 -5.5s0.5 -4.5 1.5 -5.5s2.16699 -1.5 3.5 -1.5h1.5h0.5h39v-153v-0.5v-1.5
c0 -1.33301 0.5 -2.5 1.5 -3.5s2.83301 -1.5 5.5 -1.5s4.5 0.5 5.5 1.5s1.5 2.16699 1.5 3.5v1.5v0.5v153h88c28 0 52 -10 72 -30s30 -44 30 -72v-51v-0.5v-1.5c0 -1.33301 0.5 -2.5 1.5 -3.5s3.16699 -1.5 6.5 -1.5c2.66699 0 4.5 0.5 5.5 1.5s1.5 2.16699 1.5 3.5v1.5v0.5
v0zM379.999 674.007h-380v45h380v-45v0zM379.999 733.007h-380v17h380v-17v0z" />
    <glyph glyph-name="l" unicode="l" horiz-adv-x="310" 
d="M310 0h-310v45h310v-45v0zM310 59h-310v17h310v-17v0zM282 130c0 -9.33301 -3.33301 -18.001 -10 -26.001s-16.667 -12 -30 -12h-111c-26.667 0 -49.667 9.5 -69 28.5s-29 41.833 -29 68.5v432c0 13.333 4 23.333 12 30s17 10 27 10c9.33301 0 18 -3.33301 26 -10
s12 -16.667 12 -30v-432c0 -5.33301 2 -10.166 6 -14.499s9 -6.5 15 -6.5h111c13.333 0 23.333 -4 30 -12s10 -16.667 10 -26v0zM239 142.999c0 3.33301 -0.666992 5.33301 -2 6s-3 1 -5 1h-111c-14 0 -26.167 5.16699 -36.5 15.5s-15.5 22.833 -15.5 37.5v431
c0 2 -0.333008 3.83301 -1 5.5s-2.66699 2.5 -6 2.5s-5.33301 -0.833008 -6 -2.5s-1 -3.5 -1 -5.5v-431c0 -18.667 6.5 -34.5 19.5 -47.5s28.5 -19.5 46.5 -19.5h111c2 0 3.66699 0.333008 5 1s2 2.66699 2 6v0zM310 673.999h-310v45h310v-45v0zM310 732.999h-310v17h310
v-17v0z" />
    <glyph glyph-name="m" unicode="m" horiz-adv-x="410" 
d="M410 0h-410v45h410v-45v0zM410 59h-410v17h410v-17v0zM383 130c0 -12.667 -3.99805 -22.5 -11.998 -29.5s-16.667 -10.5 -26 -10.5s-18 3.5 -26 10.5s-12 16.833 -12 29.5v453c-17.333 -2.66699 -32 -10.667 -44 -24s-18 -29 -18 -47v-222
c0 -12.667 -3.83301 -22.334 -11.5 -29.001s-15.834 -10.334 -24.501 -11.001h-1.5h-1.5c-9.33301 0 -18 3.33301 -26 10s-12 16.667 -12 30v222c0 18 -6 33.667 -18 47s-26.667 21.333 -44 24v-453c0 -12.667 -4 -22.5 -12 -29.5s-16.667 -10.5 -26 -10.5h-1.5h-1.5
c-8.66699 0.666992 -16.834 4.33398 -24.501 11.001s-11.5 16.334 -11.5 29.001v530h68c21.333 0 41.5 -4.5 60.5 -13.5s35.167 -21.167 48.5 -36.5c14 15.333 30.5 27.5 49.5 36.5s39.167 13.5 60.5 13.5h67v-530v0zM338.002 143l0.000976562 499h-36
c-24.667 0 -47 -7.33301 -67 -22s-34 -33 -42 -55c-8.66699 22 -22.834 40.333 -42.501 55s-42.167 22 -67.5 22h-36v-499v-0.5v-1.5c0 -1.33301 0.5 -2.5 1.5 -3.5s2.83301 -1.5 5.5 -1.5s4.5 0.5 5.5 1.5s1.5 2.16699 1.5 3.5v1.5v0.5v484h22c28 0 52 -10 72 -30
s30 -44 30 -72v-222c0 -2 0.333008 -3.66699 1 -5s3 -2 7 -2c3.33301 0 5.33301 0.666992 6 2s1 3 1 5v222c0 28 10 52 30 72s44 30 72 30h22v-484v-0.5v-1.5c0 -1.33301 0.5 -2.5 1.5 -3.5s2.83301 -1.5 5.5 -1.5s4.5 0.5 5.5 1.5s1.5 2.16699 1.5 3.5v1.5v0.5v0z
M410.003 674h-410v45h410v-45v0zM410.003 733h-410v17h410v-17v0z" />
    <glyph glyph-name="n" unicode="n" horiz-adv-x="312" 
d="M312 0h-312v45h312v-45v0zM312 59h-312v17h312v-17v0zM284 130c0 -12.667 -3.99902 -22.499 -11.999 -29.499s-16.667 -10.5 -26 -10.5s-18 3.5 -26 10.5s-12 16.833 -12 29.5v309c0 32 -9.33301 61 -28 87s-43.667 43.333 -75 52v-448
c0 -12.667 -3.83301 -22.334 -11.5 -29.001s-15.834 -10.334 -24.501 -11.001h-1.5h-1.5c-9.33301 0.666992 -18 4.33398 -26 11.001s-12 16.334 -12 29.001v530h39c26.667 0 52.167 -4.83301 76.5 -14.5s45.833 -22.834 64.5 -39.501v15c0 13.333 4 23.333 12 30
s16.667 10 26 10s18 -3.33301 26 -10s12 -16.667 12 -30v-491v0zM242.001 143.001v491c0 2 -0.333008 3.83301 -1 5.5s-2.66699 2.5 -6 2.5s-5.33301 -0.833008 -6 -2.5s-1 -3.5 -1 -5.5v-108c-14.667 33.333 -37.5 61 -68.5 83s-65.833 33 -104.5 33h-7v-499v-0.5v-1.5
c0 -1.33301 0.5 -2.5 1.5 -3.5s2.83301 -1.5 5.5 -1.5s4.5 0.5 5.5 1.5s1.5 2.16699 1.5 3.5v1.5v0.5v484c46 -2 85.167 -19.833 117.5 -53.5s48.5 -73.5 48.5 -119.5v-311v-0.5v-1.5c0 -1.33301 0.5 -2.5 1.5 -3.5s2.83301 -1.5 5.5 -1.5s4.5 0.5 5.5 1.5
s1.5 2.16699 1.5 3.5v1.5v0.5v0zM312.001 674.001h-312v45h312v-45v0zM312.001 733.001h-312v17h312v-17v0z" />
    <glyph glyph-name="o" unicode="o" horiz-adv-x="356" 
d="M356 0h-356v45h356v-45v0zM356 59h-356v17h356v-17v0zM327 240c0 -40.667 -14.5 -75.5 -43.5 -104.5s-63.833 -43.5 -104.5 -43.5s-75.667 14.5 -105 43.5s-44 63.833 -44 104.5v271c0 40.667 14.667 75.667 44 105s64.333 44 105 44s75.5 -14.667 104.5 -44
s43.5 -64.333 43.5 -105v-271v0zM287 253v271c0 32 -11.5 59.667 -34.5 83s-50.833 35 -83.5 35c-32 0 -59.5 -11.667 -82.5 -35s-34.5 -51 -34.5 -83v-271c0 -32 11.5 -59.5 34.5 -82.5s50.5 -34.5 82.5 -34.5c32.667 0 60.5 11.5 83.5 34.5s34.5 50.5 34.5 82.5v0z
M272 253c0 -28 -10 -52.167 -30 -72.5s-44.333 -30.5 -73 -30.5c-28 0 -52 10.167 -72 30.5s-30 44.5 -30 72.5v271c0 28.667 10 53 30 73s44 30 72 30c28.667 0 53 -10 73 -30s30 -44.333 30 -73v-271v0zM250 240v271c0 19.333 -7 36.166 -21 50.499s-30.667 21.5 -50 21.5
c-20 0 -37 -7.16699 -51 -21.5s-21 -31.166 -21 -50.499v-271c0 -19.333 7 -36.166 21 -50.499s31 -21.5 51 -21.5c19.333 0 36 7.16699 50 21.5s21 31.166 21 50.499v0zM356 674h-356v45h356v-45v0zM356 733h-356v17h356v-17v0z" />
    <glyph glyph-name="p" unicode="p" horiz-adv-x="373" 
d="M373 0h-373v45h373v-45v0zM373 59h-373v17h373v-17v0zM347 396c0 -39.333 -14.166 -73.165 -42.499 -101.498s-62.166 -42.5 -101.499 -42.5h-56v-122c0 -12.667 -3.83301 -22.334 -11.5 -29.001s-15.834 -10.334 -24.501 -11.001h-1.5h-1.5c-9.33301 0 -18 3.5 -26 10.5
s-12 16.833 -12 29.5v122h-14c-13.333 0 -23.333 4 -30 12s-10 16.667 -10 26s3.33301 18 10 26s16.667 12 30 12h14v293l1 39h132c39.333 0 73.166 -14.333 101.499 -43s42.5 -62.667 42.5 -102v-119v0zM303.001 409.001v119.001c0 31.333 -11 58.166 -33 80.499
s-48.667 33.5 -80 33.5h-102v-332h-31c-2 0 -3.66699 -0.333008 -5 -1s-2 -2.66699 -2 -6s0.666992 -5.33301 2 -6s3 -1 5 -1h31v-153v-0.5v-1.5c0 -1.33301 0.5 -2.5 1.5 -3.5s2.83301 -1.5 5.5 -1.5s4.5 0.5 5.5 1.5s1.5 2.16699 1.5 3.5v1.5v0.5v153h88
c31.333 0 58 11.167 80 33.5s33 48.833 33 79.5v0zM289.001 409.002c0 -26.667 -9.66699 -49.834 -29 -69.501s-42.666 -29.5 -69.999 -29.5h-88v317h88c27.333 0 50.666 -9.66699 69.999 -29s29 -42.666 29 -69.999v-119v0zM271.001 396.002v119
c0 18.667 -6.66699 34.667 -20 48s-29.333 20 -48 20h-56v-255h56c18.667 0 34.667 6.66699 48 20s20 29.333 20 48v0zM373.001 674.002h-373v45h373v-45v0zM373.001 733.002h-373v17h373v-17v0z" />
    <glyph glyph-name="q" unicode="q" horiz-adv-x="360" 
d="M102 38c0 -9.33301 -3.16699 -18 -9.5 -26s-16.166 -12 -29.499 -12h-63v45h67c2.66699 0 4.5 0.666992 5.5 2s1.5 3 1.5 5s-0.5 3.66699 -1.5 5s-2.83301 2 -5.5 2h-67v17h63c13.333 0 23.166 -4 29.499 -12s9.5 -16.667 9.5 -26v0zM360 0l-148 0.00390625
c-32.667 0 -61 12 -85 36s-36 52.333 -36 85v1.5v1.5c-16.667 13.333 -30.334 30.166 -41.001 50.499s-16 42.166 -16 65.499v271c0 40.667 14.667 75.667 44 105s64.333 44 105 44s75.5 -14.667 104.5 -44s43.5 -64.333 43.5 -105v-271c0 -40.667 -14.5 -75.5 -43.5 -104.5
s-63.833 -43.5 -104.5 -43.5h-1.5h-0.5h-1.5h-1.5c4.66699 -4.66699 9.83398 -8.5 15.501 -11.5s11.834 -4.5 18.501 -4.5h148v-17h-154c-20.667 0 -38.334 7.5 -53.001 22.5s-22 32.833 -22 53.5v2v2v1v2c6 -2 12 -3.5 18 -4.5s12.333 -1.5 19 -1.5
c32 0 59.5 11.5 82.5 34.5s34.5 50.5 34.5 82.5v271c0 32 -11.5 59.667 -34.5 83s-50.5 35 -82.5 35s-59.5 -11.667 -82.5 -35s-34.5 -51 -34.5 -83v-271c0 -22.667 6.16699 -43.5 18.5 -62.5s28.166 -33.167 47.499 -42.5v-3v-3c-0.666992 -1.33301 -1 -2.5 -1 -3.5v-3.5
c0 -12.667 2.33301 -24.334 7 -35.001s11.334 -20.334 20.001 -29.001c8 -8 17.5 -14.333 28.5 -19s22.5 -7 34.5 -7h154v-45v0zM261 211.004c-8 -18 -20.332 -32.667 -36.999 -44s-35.334 -17 -56.001 -17c-6 0 -11.833 0.5 -17.5 1.5s-11.167 2.5 -16.5 4.5
c4.66699 15.333 13.667 28.333 27 39s28.333 16 45 16h55v0zM271.001 253.004c0 -4.66699 -0.333008 -9.33105 -1 -13.998s-1.66699 -9.33398 -3 -14.001h-61c-19.333 0 -37 -6 -53 -18s-26.667 -27 -32 -45c-16.667 8.66699 -30.167 21.167 -40.5 37.5
s-15.5 34.166 -15.5 53.499v271c0 28.667 10.167 53 30.5 73s44.5 30 72.5 30s52.167 -10 72.5 -30s30.5 -44.333 30.5 -73v-271v0zM255.001 241.007l-0.00195312 270.001c0 19.333 -7.16699 36.166 -21.5 50.499s-31.166 21.5 -50.499 21.5s-36.166 -7.16699 -50.499 -21.5
s-21.5 -31.166 -21.5 -50.499v-271c0 -6.66699 1 -13.334 3 -20.001s4.66699 -12.667 8 -18c11.333 12 24.833 21.667 40.5 29s32.167 11 49.5 11h28h7.5c2.33301 0 4.83301 -0.333008 7.5 -1v0zM358.999 674.008h-358v45h358v-45v0zM358.999 733.008h-358v17h358v-17v0z
" />
    <glyph glyph-name="r" unicode="r" horiz-adv-x="372" 
d="M372 0h-372v45h372v-45v0zM372 59h-372v17h372v-17v0zM346 130c0 -12.667 -3.99902 -22.499 -11.999 -29.499s-16.667 -10.5 -26 -10.5s-18 3.5 -26 10.5s-12 16.833 -12 29.5v51c0 19.333 -7 36 -21 50s-30.667 21 -50 21h-54v-122c0 -12.667 -4 -22.5 -12 -29.5
s-16.667 -10.5 -26 -10.5s-18 3.5 -26 10.5s-12 16.833 -12 29.5v122h-15c-13.333 0 -23.333 4 -30 12s-10 16.667 -10 26s3.33301 18 10 26s16.667 12 30 12h15v332h133c39.333 0 73.166 -14.333 101.499 -43s42.5 -62.667 42.5 -102v-119
c0 -20.667 -4.33301 -40.334 -13 -59.001s-20.334 -34.667 -35.001 -48c14.667 -13.333 26.334 -29.333 35.001 -48s13 -38.667 13 -60v-51v0zM300.001 143.001l0.00195312 51.001c0 24.667 -7 46.667 -21 66s-32 33.333 -54 42c21.333 8 39.166 21.667 53.499 41
s21.5 41.333 21.5 66v119c0 31.333 -11 58.166 -33 80.499s-48.667 33.5 -80 33.5h-94h-8v-8v-324h-32h-0.5h-1.5c-1.33301 0 -2.5 -0.5 -3.5 -1.5s-1.5 -2.83301 -1.5 -5.5s0.5 -4.5 1.5 -5.5s2.16699 -1.5 3.5 -1.5h1.5h0.5h32v-153v-0.5v-1.5
c0 -1.33301 0.5 -2.5 1.5 -3.5s3.16699 -1.5 6.5 -1.5c2.66699 0 4.5 0.5 5.5 1.5s1.5 2.16699 1.5 3.5v1.5v0.5v153h84c27.333 0 51.166 -10 71.499 -30s30.5 -44 30.5 -72v-51v-0.5v-1.5c0 -1.33301 0.5 -2.5 1.5 -3.5s2.83301 -1.5 5.5 -1.5s4.5 0.5 5.5 1.5
s1.5 2.16699 1.5 3.5v1.5v0.5v0zM286.003 409.002c0 -26.667 -9.66699 -49.834 -29 -69.501s-42.666 -29.5 -69.999 -29.5h-87v317h87c27.333 0 50.666 -9.66699 69.999 -29s29 -42.666 29 -69.999v-119v0zM270.003 396.002v119c0 18.667 -6.66699 34.667 -20 48
s-29.333 20 -48 20h-56l-1 -255h57c18.667 0 34.667 6.66699 48 20s20 29.333 20 48v0zM372.003 674.002h-372v45h372v-45v0zM372.003 733.002h-372v17h372v-17v0z" />
    <glyph glyph-name="s" unicode="s" horiz-adv-x="343" 
d="M343 0h-343v45h343v-45v0zM343 59h-343v17h343v-17v0zM321 398c0 -13.333 -4.00293 -23.3291 -12.0029 -29.9961s-16.667 -10 -26 -10s-18 3.33301 -26 10s-12 16.667 -12 30v113c0 19.333 -7.16699 36.166 -21.5 50.499s-31.166 21.5 -50.499 21.5
s-36.166 -7.16699 -50.499 -21.5s-21.5 -31.166 -21.5 -50.499v-125c0 -5.33301 2.16699 -10 6.5 -14s8.83301 -7.33301 13.5 -10c2 -0.666992 3.83301 -1.33398 5.5 -2.00098s3.16699 -1.33398 4.5 -2.00098l80 -33c26 -10.667 49.667 -25.834 71 -45.501
s32 -45.167 32 -76.5c0 -32.667 -11.833 -59.334 -35.5 -80.001s-51.167 -31 -82.5 -31h-127c-13.333 0 -23.333 4 -30 12s-10 16.667 -10 26s3.33301 18 10 26s16.667 12 30 12h127c10.667 0 20.334 3 29.001 9s13 14.667 13 26c0 9.33301 -3.66699 17.333 -11 24
s-15.333 12.334 -24 17.001c-3.33301 2 -6.83301 3.83301 -10.5 5.5s-7.16699 3.16699 -10.5 4.5l-80 33c-21.333 9.33301 -39.5 22.166 -54.5 38.499s-22.5 36.5 -22.5 60.5v125c0 40.667 14.5 75.667 43.5 105s63.833 44 104.5 44s75.5 -14.667 104.5 -44
s43.5 -64.333 43.5 -105v-113v0zM277.997 411.004v112.999c0 32 -11.667 59.667 -35 83s-51 35 -83 35s-59.5 -11.667 -82.5 -35s-34.5 -51 -34.5 -83v-125c0 -17.333 5.83301 -31.666 17.5 -42.999s25.167 -20.333 40.5 -27c2 -0.666992 4.16699 -1.5 6.5 -2.5
s4.5 -1.83301 6.5 -2.5c6.66699 -2.66699 13.5 -5.16699 20.5 -7.5s13.833 -4.83301 20.5 -7.5c14.667 -6 29 -12.5 43 -19.5s26 -15.5 36 -25.5c6.66699 -6 12 -13 16 -21s6 -17 6 -27c0 -20 -7.16699 -36 -21.5 -48s-31.166 -18 -50.499 -18h-128h-0.5h-1.5
c-1.33301 0 -2.5 -0.5 -3.5 -1.5s-1.5 -2.83301 -1.5 -5.5s0.5 -4.5 1.5 -5.5s2.16699 -1.5 3.5 -1.5h1.5h0.5h128c23.333 0 43.666 7.33301 60.999 22s26 34 26 58c0 12 -2.5 22.833 -7.5 32.5s-11.5 18.5 -19.5 26.5c-11.333 10.667 -24.5 19.667 -39.5 27
s-30.5 14 -46.5 20c-6 2.66699 -12.167 5.16699 -18.5 7.5s-12.5 4.5 -18.5 6.5c-2.66699 1.33301 -5.16699 2.5 -7.5 3.5s-4.83301 1.83301 -7.5 2.5c-12.667 5.33301 -24 12.5 -34 21.5s-15 20.833 -15 35.5v125c0 28.667 10.167 53 30.5 73s44.5 30 72.5 30
c28.667 0 53 -10 73 -30s30 -44.333 30 -73v-113c0 -2 0.333008 -3.66699 1 -5s2.66699 -2 6 -2c4 0 6.33301 0.666992 7 2s1 3 1 5v0zM342.997 674.003h-343v45h343v-45v0zM342.997 733.003h-343v17h343v-17v0z" />
    <glyph glyph-name="t" unicode="t" horiz-adv-x="329" 
d="M329 0h-329v45h329v-45v0zM329 59h-329v17h329v-17v0zM308 621c0 -9.33301 -3.33301 -18 -10 -26s-16.667 -12 -30 -12h-63v-453c0 -12.667 -3.83301 -22.334 -11.5 -29.001s-15.834 -10.334 -24.501 -11.001h-1.5h-1.5c-9.33301 0.666992 -18 4.33398 -26 11.001
s-12 16.334 -12 29.001v453h-64c-12.667 0 -22.334 4 -29.001 12s-10 16.667 -10 26v1.5v1.5c0.666992 8.66699 4.16699 16.834 10.5 24.501s15.833 11.5 28.5 11.5h204c12.667 0 22.334 -3.83301 29.001 -11.5s10.334 -15.834 11.001 -24.501v-1.5v-1.5v0zM263 634
c0 4 -0.666992 6.33301 -2 7s-3 1 -5 1h-204h-0.5h-1.5c-1.33301 0 -2.5 -0.5 -3.5 -1.5s-1.5 -3.16699 -1.5 -6.5c0 -2.66699 0.5 -4.5 1.5 -5.5s2.16699 -1.5 3.5 -1.5h1.5h0.5h95v-484v-0.5v-1.5c0 -1.33301 0.5 -2.5 1.5 -3.5s2.83301 -1.5 5.5 -1.5
c3.33301 0 5.5 0.5 6.5 1.5s1.5 2.16699 1.5 3.5v1.5v0.5v484h94c2 0 3.66699 0.333008 5 1s2 2.66699 2 6v0zM329 674h-329v45h329v-45v0zM329 733h-329v17h329v-17v0z" />
    <glyph glyph-name="u" unicode="u" horiz-adv-x="347" 
d="M347 0h-347v45h347v-45v0zM347 59h-347v17h347v-17v0zM323 239c0 -40 -14.499 -74.5 -43.499 -103.5s-63.833 -43.5 -104.5 -43.5s-75.334 14.5 -104.001 43.5s-43 63.5 -43 103.5v382c0 13.333 4 23.333 12 30s16.667 10 26 10s18 -3.33301 26 -10s12 -16.667 12 -30
v-382c0 -18.667 7 -35.167 21 -49.5s30.667 -21.5 50 -21.5s36 7.16699 50 21.5s21 30.833 21 49.5v382c0 13.333 4 23.333 12 30s17 10 27 10c9.33301 0 18 -3.33301 26 -10s12 -16.667 12 -30v-382v0zM280.001 253v381c0 2 -0.333008 3.83301 -1 5.5s-2.66699 2.5 -6 2.5
s-5.33301 -0.833008 -6 -2.5s-1 -3.5 -1 -5.5v-381c0 -28 -10 -52.167 -30 -72.5s-44 -30.5 -72 -30.5s-52 10.167 -72 30.5s-30 44.5 -30 72.5v381c0 2 -0.333008 3.83301 -1 5.5s-3 2.5 -7 2.5c-3.33301 0 -5.33301 -0.833008 -6 -2.5s-1 -3.5 -1 -5.5v-381
c0 -32 11.5 -59.5 34.5 -82.5s50.5 -34.5 82.5 -34.5s59.333 11.5 82 34.5s34 50.5 34 82.5v0zM347.001 674h-347v45h347v-45v0zM347.001 733h-347v17h347v-17v0z" />
    <glyph glyph-name="v" unicode="v" horiz-adv-x="307" 
d="M307 0h-307v45h307v-45v0zM307 59h-307v17h307v-17v0zM282 309c0 -58.667 -21.5 -109.5 -64.5 -152.5s-94.167 -64.5 -153.5 -64.5h-38v529c0 13.333 4 23.333 12 30s16.667 10 26 10s18 -3.33301 26 -10s12 -16.667 12 -30v-447c30 8.66699 54.667 25.5 74 50.5
s29 53.167 29 84.5v312c0 13.333 4 23.333 12 30s17 10 27 10c9.33301 0 18 -3.33301 26 -10s12 -16.667 12 -30v-312v0zM237 322v311.999c0 2 -0.333008 3.83301 -1 5.5s-2.66699 2.5 -6 2.5s-5.33301 -0.833008 -6 -2.5s-1 -3.5 -1 -5.5v-312
c0 -45.333 -16.333 -84.833 -49 -118.5s-71.667 -51.167 -117 -52.5v483c0 2 -0.333008 3.83301 -1 5.5s-2.66699 2.5 -6 2.5s-5.33301 -0.833008 -6 -2.5s-1 -3.5 -1 -5.5v-491v-7h7c51.333 0 95.333 18.333 132 55s55 80.334 55 131.001v0zM307 673.999h-307v45h307v-45v0
zM307 732.999h-307v17h307v-17v0z" />
    <glyph glyph-name="w" unicode="w" horiz-adv-x="404" 
d="M404 0h-404v45h404v-45v0zM404 59h-404v17h404v-17v0zM379 90l-68 0.00195312c-21.333 0 -41.5 4.5 -60.5 13.5s-35.167 20.833 -48.5 35.5c-13.333 -14.667 -29.5 -26.5 -48.5 -35.5s-39.167 -13.5 -60.5 -13.5h-68v530c0 13.333 4 23.333 12 30s16.667 10 26 10h1.5
h1.5c8.66699 -0.666992 16.834 -4.33398 24.501 -11.001s11.5 -16.334 11.5 -29.001v-453c17.333 2 32 9.83301 44 23.5s18 29.167 18 46.5v223c0 13.333 4 23.166 12 29.499s16.667 9.5 26 9.5s18 -3.16699 26 -9.5s12 -16.166 12 -29.499v-223
c0 -17.333 6.16699 -32.833 18.5 -46.5s27.166 -21.5 44.499 -23.5v453c0 13.333 4 23.333 12 30s16.667 10 26 10s18 -3.33301 26 -10s12 -16.667 12 -30v-530v0zM337 136.002l-0.000976562 7v491c0 2 -0.333008 3.83301 -1 5.5s-3 2.5 -7 2.5
c-3.33301 0 -5.33301 -0.833008 -6 -2.5s-1 -3.5 -1 -5.5v-484h-22c-28 0 -52 10 -72 30s-30 44 -30 72v223v0.5v1.5c0 1.33301 -0.5 2.5 -1.5 3.5s-2.83301 1.5 -5.5 1.5c-3.33301 0 -5.5 -0.5 -6.5 -1.5s-1.5 -2.16699 -1.5 -3.5v-1.5v-0.5v-223c0 -28 -10 -52 -30 -72
s-44 -30 -72 -30h-22v484c0 2 -0.333008 3.83301 -1 5.5s-2.66699 2.5 -6 2.5s-5.33301 -0.833008 -6 -2.5s-1 -3.5 -1 -5.5v-491v-7h7h29c25.333 0 47.833 7.16699 67.5 21.5s33.834 32.5 42.501 54.5c8 -22 22 -40.167 42 -54.5s42.333 -21.5 67 -21.5h29h8v0z
M403.999 674.002h-404v45h404v-45v0zM403.999 733.002h-404v17h404v-17v0z" />
    <glyph glyph-name="x" unicode="x" horiz-adv-x="350" 
d="M350 0h-350v45h350v-45v0zM350 59h-350v17h350v-17v0zM322 130c0 -12.667 -4 -22.5 -12 -29.5s-16.667 -10.5 -26 -10.5s-18 3.5 -26 10.5s-12 16.833 -12 29.5v50c0 19.333 -7.16699 36.166 -21.5 50.499s-31.166 21.5 -50.499 21.5
c-18.667 0 -35.167 -7.16699 -49.5 -21.5s-21.5 -31.166 -21.5 -50.499v-50c0 -12.667 -4 -22.5 -12 -29.5s-16.667 -10.5 -26 -10.5s-18 3.5 -26 10.5s-12 16.833 -12 29.5v50c0 21.333 4.5 41.666 13.5 60.999s20.833 35.666 35.5 48.999
c-14.667 13.333 -26.5 29.5 -35.5 48.5s-13.5 39.167 -13.5 60.5v222c0 13.333 4 23.333 12 30s16.667 10 26 10s18 -3.33301 26 -10s12 -16.667 12 -30v-222c0 -19.333 7.16699 -36 21.5 -50s30.833 -21 49.5 -21c19.333 0 36.166 7 50.499 21s21.5 30.667 21.5 50v222
c0 13.333 4 23.333 12 30s16.667 10 26 10s18 -3.33301 26 -10s12 -16.667 12 -30v-222c0 -21.333 -4.33301 -41.5 -13 -60.5s-20.667 -35.167 -36 -48.5c15.333 -13.333 27.333 -29.666 36 -48.999s13 -39.666 13 -60.999v-50v0zM277 143v50
c0 25.333 -7.16699 47.833 -21.5 67.5s-32.833 33.834 -55.5 42.501c22.667 8 41.167 22 55.5 42s21.5 42.333 21.5 67v222c0 2 -0.333008 3.83301 -1 5.5s-2.66699 2.5 -6 2.5s-5.33301 -0.833008 -6 -2.5s-1 -3.5 -1 -5.5v-222c0 -28 -10.167 -52 -30.5 -72
s-44.5 -30 -72.5 -30s-52 10 -72 30s-30 44 -30 72v222c0 2 -0.333008 3.83301 -1 5.5s-2.66699 2.5 -6 2.5s-5.33301 -0.833008 -6 -2.5s-1 -3.5 -1 -5.5v-222c0 -24.667 7.16699 -47 21.5 -67s32.5 -34 54.5 -42c-22 -8.66699 -40.167 -22.834 -54.5 -42.501
s-21.5 -42.167 -21.5 -67.5v-50v-0.5v-1.5c0 -1.33301 0.5 -2.5 1.5 -3.5s2.83301 -1.5 5.5 -1.5s4.5 0.5 5.5 1.5s1.5 2.16699 1.5 3.5v1.5v0.5v50c0 28 10 52.167 30 72.5s44 30.5 72 30.5s52.167 -10.167 72.5 -30.5s30.5 -44.5 30.5 -72.5v-50v-0.5v-1.5
c0 -1.33301 0.5 -2.5 1.5 -3.5s2.83301 -1.5 5.5 -1.5s4.5 0.5 5.5 1.5s1.5 2.16699 1.5 3.5v1.5v0.5v0zM350 674h-350v45h350v-45v0zM350 733h-350v17h350v-17v0z" />
    <glyph glyph-name="y" unicode="y" horiz-adv-x="343" 
d="M343 0h-343v45h343v-45v0zM343 59h-343v17h343v-17v0zM320 399c0 -33.333 -10.5 -63.166 -31.5 -89.499s-47.167 -43.833 -78.5 -52.5v-127c0 -12.667 -4 -22.5 -12 -29.5s-16.667 -10.5 -26 -10.5s-18 3.5 -26 10.5s-12 16.833 -12 29.5v127
c-31.333 8.66699 -57.333 26.167 -78 52.5s-31 56.166 -31 89.499v222c0 13.333 4 23.333 12 30s16.667 10 26 10s18 -3.33301 26 -10s12 -16.667 12 -30v-222c0 -19.333 7 -36 21 -50s30.667 -21 50 -21s36 7 50 21s21 30.667 21 50v222c0 13.333 4 23.333 12 30
s17 10 27 10c9.33301 0 18 -3.33301 26 -10s12 -16.667 12 -30v-222v0zM277 412l-0.000976562 222c0 2 -0.333008 3.83301 -1 5.5s-2.66699 2.5 -6 2.5s-5.33301 -0.833008 -6 -2.5s-1 -3.5 -1 -5.5v-222c0 -28 -10.167 -52 -30.5 -72s-44.166 -30 -71.499 -30
c-28 0 -52.167 10 -72.5 30s-30.5 44 -30.5 72v222c0 2 -0.333008 3.83301 -1 5.5s-2.66699 2.5 -6 2.5s-5.33301 -0.833008 -6 -2.5s-1 -3.5 -1 -5.5v-222c0 -30.667 10.667 -57.167 32 -79.5s47 -34.5 77 -36.5v-153v-0.5v-1.5c0 -1.33301 0.5 -2.5 1.5 -3.5
s3.16699 -1.5 6.5 -1.5c2.66699 0 4.5 0.5 5.5 1.5s1.5 2.16699 1.5 3.5v1.5v0.5v153c30 2 55.667 14.167 77 36.5s32 48.833 32 79.5v0zM342.999 674h-343v45h343v-45v0zM342.999 733h-343v17h343v-17v0z" />
    <glyph glyph-name="z" unicode="z" horiz-adv-x="355" 
d="M355 0h-355v45h355v-45v0zM355 59h-355v17h355v-17v0zM338 660l-202.002 -492.001h137c13.333 0 23.333 -4 30 -12s10 -16.667 10 -26s-3.33301 -18 -10 -26s-16.667 -12 -30 -12h-251l202 491h-139c-13.333 0 -23.333 4 -30 12s-10 16.667 -10 26v1.5v1.5
c0.666992 8.66699 4.33398 16.834 11.001 24.501s16.334 11.5 29.001 11.5h253v0zM289.998 641.999h-207h-0.5h-1.5c-1.33301 0 -2.5 -0.5 -3.5 -1.5s-1.5 -3.16699 -1.5 -6.5c0 -2.66699 0.5 -4.5 1.5 -5.5s2.16699 -1.5 3.5 -1.5h1.5h0.5h186l-202 -491h205h0.5h1.5
c1.33301 0 2.5 0.5 3.5 1.5s1.5 2.83301 1.5 5.5s-0.5 4.5 -1.5 5.5s-2.16699 1.5 -3.5 1.5h-1.5h-0.5h-184l202 492v0zM354.998 673.999h-355v45h355v-45v0zM354.998 732.999h-355v17h355v-17v0z" />
    <glyph glyph-name="braceleft" unicode="{" horiz-adv-x="500" 
 />
    <glyph glyph-name="bar" unicode="|" horiz-adv-x="500" 
 />
    <glyph glyph-name="braceright" unicode="}" horiz-adv-x="500" 
 />
    <glyph glyph-name="asciitilde" unicode="~" horiz-adv-x="500" 
 />
    <glyph glyph-name="exclamdown" unicode="&#xa1;" horiz-adv-x="122" 
d="M99 -65c0 -12.667 -4 -22.333 -12 -29s-16.667 -10 -26 -10s-18 3.33301 -26 10s-12 16.667 -12 30v528c0 13.333 4 23.333 12 30s16.667 10 26 10s18 -3.33301 26 -10s12 -16.667 12 -30v-529v0zM55 -55.999v528.999c0 2 -0.333008 3.66699 -1 5s-2.66699 2 -6 2
s-5.33301 -0.666992 -6 -2s-1 -3 -1 -5v-529c0 -1.33301 0.333008 -2.66602 1 -3.99902s2.66699 -2 6 -2s5.33301 0.666992 6 2s1 3 1 5v-1zM116 598c0 -14.667 -5.33301 -27.5 -16 -38.5s-23.667 -16.5 -39 -16.5c-14.667 0 -27.5 5.5 -38.5 16.5s-16.5 23.833 -16.5 38.5
c0 15.333 5.5 28.5 16.5 39.5s23.833 16.5 38.5 16.5c15.333 0 28.333 -5.5 39 -16.5s16 -24.167 16 -39.5v0zM71 608c0 6.66699 -2.33301 12.334 -7 17.001s-10.667 7 -18 7c-6.66699 0 -12.334 -2.33301 -17.001 -7s-7 -10.334 -7 -17.001s2.33301 -12.334 7 -17.001
s10.334 -7 17.001 -7c7.33301 0 13.333 2.33301 18 7s7 10.334 7 17.001v0zM56 608c0 -2.66699 -0.833008 -5 -2.5 -7s-4.16699 -3 -7.5 -3c-2.66699 0 -4.83398 1 -6.50098 3s-2.5 4.33301 -2.5 7s0.833008 5 2.5 7s3.83398 3 6.50098 3c3.33301 0 5.83301 -1 7.5 -3
s2.5 -4.33301 2.5 -7v0z" />
    <glyph glyph-name="cent" unicode="&#xa2;" horiz-adv-x="337" 
d="M316 387c0 -34.667 -11 -65.6689 -33 -93.002s-49.667 -45 -83 -53v-138c0 -13.333 -4 -23.333 -12 -30s-16.667 -10 -26 -10h-1.5h-1.5c-8.66699 0.666992 -16.834 4.33398 -24.501 11.001s-11.5 16.334 -11.5 29.001v140
c-30.667 9.33301 -56.334 27.166 -77.001 53.499s-31 56.5 -31 90.5v174c0 34 10.333 64.333 31 91s46.334 44.334 77.001 53.001v30c0 12.667 3.83301 22.334 11.5 29.001s15.834 10.334 24.501 11.001h1.5h1.5c9.33301 0 18 -3.33301 26 -10s12 -16.667 12 -30v-28
c33.333 -7.33301 61 -24.666 83 -51.999s33 -58.666 33 -93.999v-15c0 -12.667 -3.83301 -22.334 -11.5 -29.001s-15.834 -10.334 -24.501 -11.001h-1.5h-1.5c-9.33301 0 -18 3.33301 -26 10s-12 16.667 -12 30v15c0 14 -3.66699 26.833 -11 38.5s-16.666 20.5 -27.999 26.5
v-304c11.333 6 20.666 14.833 27.999 26.5s11 24.5 11 38.5v16c0 13.333 4 23.333 12 30s16.667 10 26 10h1.5h1.5c8.66699 -0.666992 16.834 -4.33398 24.501 -11.001s11.5 -16.334 11.5 -29.001v-16v0zM275 396.998v15.0029c0 2 -0.333008 3.66699 -1 5s-2.66699 2 -6 2
s-5.33301 -0.666992 -6 -2s-1 -3 -1 -5v-15c0 -28.667 -10 -53 -30 -73s-44 -30.667 -72 -32v384c28 -0.666992 52 -11.334 72 -32.001s30 -45 30 -73v-16v-0.5v-1.5c0 -1.33301 0.5 -2.5 1.5 -3.5s2.83301 -1.5 5.5 -1.5s4.5 0.5 5.5 1.5s1.5 2.16699 1.5 3.5v1.5v0.5v16
c0 32 -11.333 59.667 -34 83s-50 35.333 -82 36v55v0.5v1.5c0 1.33301 -0.5 2.5 -1.5 3.5s-2.83301 1.5 -5.5 1.5s-4.5 -0.5 -5.5 -1.5s-1.5 -2.16699 -1.5 -3.5v-1.5v-0.5v-55c-30 -2.66699 -55.5 -15.5 -76.5 -38.5s-31.5 -49.833 -31.5 -80.5v-174
c0 -30.667 10.5 -57.334 31.5 -80.001s46.5 -35.667 76.5 -39v-166v-0.5v-1.5c0 -1.33301 0.5 -2.5 1.5 -3.5s2.83301 -1.5 5.5 -1.5s4.5 0.5 5.5 1.5s1.5 2.16699 1.5 3.5v1.5v0.5v165c32 1.33301 59.333 13.666 82 36.999s34 51 34 83v0zM145 292.001
c-26 3.33301 -48.167 14.999 -66.5 34.999s-27.5 43.333 -27.5 70v174c0 27.333 9.16699 50.833 27.5 70.5s40.5 30.834 66.5 33.501v-383v0zM123 327v295.002c-9.33301 -6.66699 -16.833 -15.334 -22.5 -26.001s-8.5 -22.334 -8.5 -35.001v-174
c0 -12.667 2.83301 -24.167 8.5 -34.5s13.167 -18.833 22.5 -25.5v0z" />
    <glyph glyph-name="sterling" unicode="&#xa3;" horiz-adv-x="688" 
d="M653 510c-8.66699 -46 -31.6729 -83.8359 -69.0059 -113.503s-78.666 -44.5 -123.999 -44.5c-6 0 -12 0.333008 -18 1l-18 2c-10.667 2 -18.834 6.5 -24.501 13.5s-8.5 14.833 -8.5 23.5v2v2c0 0.666992 0.166992 1.33398 0.5 2.00098s0.5 1.33398 0.5 2.00098
c2 8.66699 6 16 12 22s14.333 9 25 9h4.5c1.66699 0 3.16699 -0.333008 4.5 -1c2 0 3.83301 -0.166992 5.5 -0.5s3.5 -0.5 5.5 -0.5c2 -0.666992 3.83301 -1 5.5 -1h5.5c28 0 53.333 9 76 27s36.667 41.333 42 70c0.666992 2 1.16699 4 1.5 6s0.5 4 0.5 6v5v6
c0 28 -9 53.167 -27 75.5s-41 36.166 -69 41.499c-2 0 -4 0.166992 -6 0.5s-3.66699 0.5 -5 0.5c-2 0.666992 -4 1 -6 1h-6c-28 0 -53.167 -8.83301 -75.5 -26.5s-36.166 -40.5 -41.499 -68.5l-46 -236h97c13.333 0 23.333 -4 30 -12s10 -16.667 10 -26
s-3.33301 -18 -10 -26s-16.667 -12 -30 -12h-111l-19 -96c1.33301 -0.666992 2.33301 -1.33398 3 -2.00098s1.66699 -1.33398 3 -2.00098c0.666992 -1.33301 1.5 -2.33301 2.5 -3s1.83301 -1.33398 2.5 -2.00098l4 -4l4 -4c14.667 -14 30.334 -27 47.001 -39
s35 -20.667 55 -26c11.333 -2.66699 22.333 -4.66699 33 -6s21 -2 31 -2c9.33301 0 18 0.666992 26 2s15.667 3 23 5c1.33301 0.666992 2.5 1.16699 3.5 1.5s2.16699 0.5 3.5 0.5c8.66699 3.33301 17 8 25 14s13.333 14 16 24c3.33301 10 8.5 17.167 15.5 21.5
s14.167 6.5 21.5 6.5c2 0 4 -0.166992 6 -0.5s4 -0.833008 6 -1.5c7.33301 -2.66699 13.5 -7 18.5 -13s7.5 -13.667 7.5 -23v-6.5c0 -2.33301 -0.666992 -4.83301 -2 -7.5c-6.66699 -21.333 -18.667 -39.666 -36 -54.999s-38.333 -26.666 -63 -33.999
c-10.667 -3.33301 -22.167 -5.66602 -34.5 -6.99902s-25.166 -2 -38.499 -2c-12.667 0 -25.667 0.666992 -39 2s-27 3.66602 -41 6.99902c-25.333 6.66699 -47.666 16.334 -66.999 29.001s-37.333 26.334 -54 41.001c-8 -22.667 -21.667 -40.5 -41 -53.5
s-40.666 -19.5 -63.999 -19.5h-5.5c-1.66699 0 -3.16699 0.333008 -4.5 1c-1.33301 0 -2.83301 0.166992 -4.5 0.5s-3.5 0.5 -5.5 0.5c-26.667 5.33301 -48.5 18.5 -65.5 39.5s-25.5 44.833 -25.5 71.5v5.5c0 1.66699 0.333008 3.16699 1 4.5
c0 1.33301 0.166992 2.83301 0.5 4.5s0.5 3.5 0.5 5.5c5.33301 26.667 18.5 48.334 39.5 65.001s44.833 25 71.5 25c3.33301 0 6.66602 -0.166992 9.99902 -0.5s6.66602 -0.833008 9.99902 -1.5c6 -0.666992 11.833 -2 17.5 -4s10.834 -4.33301 15.501 -7l9 45h-62
c-12.667 0 -22.334 4 -29.001 12s-10 16.667 -10 26s3.33301 18 10 26s16.334 12 29.001 12h77l48 250c9.33301 46.667 32.333 84.667 69 114s78 43.666 124 42.999c6 0 12 -0.166992 18 -0.5s12 -1.16602 18 -2.49902c46.667 -9.33301 84.834 -32.5 114.501 -69.5
s44.167 -78.5 43.5 -124.5c0 -6 -0.166992 -12 -0.5 -18s-1.16602 -12 -2.49902 -18v0zM612.994 525.997c0.666992 2.66699 1.16602 5.33203 1.49902 7.99902s0.5 5.33398 0.5 8.00098c0.666992 2 1 4.33301 1 7v8c0 38.667 -12.5 73.5 -37.5 104.5
s-57.167 50.167 -96.5 57.5c-2.66699 0.666992 -5.33398 1.16699 -8.00098 1.5s-5 0.5 -7 0.5c-2.66699 0.666992 -5.33398 1 -8.00098 1h-8c-38.667 0 -73.334 -12.167 -104.001 -36.5s-49.667 -56.166 -57 -95.499l-53 -275h-102c-2 0 -3.66699 -0.333008 -5 -1
s-2 -3 -2 -7c0 -3.33301 0.666992 -5.33301 2 -6s3 -1 5 -1h99l-24 -127c-2 1.33301 -4 2.83301 -6 4.5s-4 3.16699 -6 4.5c-8 6 -16 11 -24 15s-16.667 6.66699 -26 8c-2.66699 0.666992 -5.16699 1 -7.5 1h-7.5c-18.667 0 -35.667 -6 -51 -18s-24.666 -27.667 -27.999 -47
c-0.666992 -2.66699 -1 -5.16699 -1 -7.5v-7.5c0 -18.667 6.16699 -35.667 18.5 -51s27.833 -24.666 46.5 -27.999c2.66699 -0.666992 5.16699 -1 7.5 -1h7.5c19.333 0 36.5 6 51.5 18s24.167 27.333 27.5 46l7 36c2 -1.33301 3.83301 -2.83301 5.5 -4.5l5.5 -5.5
c1.33301 -0.666992 2.5 -1.5 3.5 -2.5l2.5 -2.5c2 -2 4.16699 -4 6.5 -6s4.5 -4 6.5 -6c16 -14.667 33.333 -28.667 52 -42s40.334 -23 65.001 -29c9.33301 -2 19.333 -3.83301 30 -5.5s21.667 -2.83398 33 -3.50098h5.5h5.5h4h4c28.667 0.666992 55.667 6.66699 81 18
s42.666 31 51.999 59v0.5c0 0.333008 0.333008 0.833008 1 1.5v1.5v0.5c0 1.33301 -0.5 2.33301 -1.5 3s-2.5 1.33398 -4.5 2.00098h-1.5c-0.333008 0 -0.5 0.333008 -0.5 1h-1.5h-0.5c-1.33301 -0.666992 -2.33301 -1.33398 -3 -2.00098s-1.33398 -1.66699 -2.00098 -3
c-8 -24.667 -23.333 -42 -46 -52s-47 -15 -73 -15h-4h-4c-12.667 0 -25.167 0.666992 -37.5 2s-23.5 3.33301 -33.5 6c-22.667 6 -43 15.333 -61 28s-35 26 -51 40l-6 6l-6 6c-2 2 -4 3.83301 -6 5.5s-3.66699 3.5 -5 5.5c-2 1.33301 -4 2.83301 -6 4.5s-4 3.5 -6 5.5
l27 137h136c2 0 3.66699 0.333008 5 1s2 2.66699 2 6c0 4 -0.666992 6.33301 -2 7s-3 1 -5 1h-134l53 272c6.66699 36 24.334 65.167 53.001 87.5s60.667 33.5 96 33.5c4.66699 0 9.16699 -0.166992 13.5 -0.5s8.83301 -1.16602 13.5 -2.49902
c36 -6.66699 65.333 -24.334 88 -53.001s34 -60.667 34 -96v-6.5c0 -2.33301 -0.333008 -4.83301 -1 -7.5c0 -2.66699 -0.166992 -5.16699 -0.5 -7.5s-0.833008 -4.5 -1.5 -6.5c-6.66699 -35.333 -24.334 -64.5 -53.001 -87.5s-61 -34.5 -97 -34.5
c-1.33301 0 -2.66602 0.166992 -3.99902 0.5s-2.66602 0.5 -3.99902 0.5c-3.33301 0 -6.33301 0.166992 -9 0.5s-5.66699 0.833008 -9 1.5h-0.5c-0.333008 0 -0.833008 0.333008 -1.5 1h-1.5h-0.5c-0.666992 0 -1.5 -0.5 -2.5 -1.5s-1.83301 -2.5 -2.5 -4.5v-1.5v-1.5
c0 -2 0.5 -3.33301 1.5 -4s2.16699 -1.33398 3.5 -2.00098h0.5h0.5c2.66699 -0.666992 5.33398 -1.16699 8.00098 -1.5s5.33398 -0.5 8.00098 -0.5c2 -0.666992 4.33301 -1 7 -1h8c38.667 0 73.5 12.5 104.5 37.5s50.167 57.167 57.5 96.5v0zM205.993 156.995l-8 -43.998
c-2.66699 -16 -10.334 -28.833 -23.001 -38.5s-26.667 -14.5 -42 -14.5h-6c-2 0 -4 0.333008 -6 1c-16 3.33301 -29.167 11.333 -39.5 24s-15.166 26.667 -14.499 42v6c0 2 0.333008 4 1 6c3.33301 15.333 11.333 28.166 24 38.499s26.667 15.166 42 14.499h6
c2 0 4 -0.333008 6 -1c10.667 -2 21 -6 31 -12s19.667 -13.333 29 -22v0zM181.993 134.997c-5.33301 4 -10.834 7.5 -16.501 10.5s-11.167 4.83301 -16.5 5.5h-2c-0.666992 0 -1 0.333008 -1 1h-2h-2c-8 0 -15.167 -2.66699 -21.5 -8s-10.5 -12.333 -12.5 -21v-2.5v-3.5
c0 -8 2.5 -15.333 7.5 -22s11.833 -11 20.5 -13c0.666992 0 1.33398 -0.166992 2.00098 -0.5s1.33398 -0.5 2.00098 -0.5h2h2c8 0.666992 15.167 3.5 21.5 8.5s10.166 11.5 11.499 19.5l5 26v0z" />
    <glyph glyph-name="yen" unicode="&#xa5;" horiz-adv-x="622" 
d="M594 323c0 -9.33301 -3.33398 -18 -10.001 -26s-16.667 -12 -30 -12h-100c-13.333 -15.333 -29 -28.5 -47 -39.5s-37.333 -18.5 -58 -22.5v-185c0 -13.333 -4 -23.166 -12 -29.499s-16.667 -9.5 -26 -9.5s-18 3.16699 -26 9.5s-12 16.166 -12 29.499v185
c-20.667 4 -40 11.5 -58 22.5s-33.667 24.167 -47 39.5h-100c-12.667 0 -22.5 4 -29.5 12s-10.5 16.667 -10.5 26s3.5 18 10.5 26s16.833 12 29.5 12h60l-2 13.5l-2 13.5h-56c-12.667 0 -22.5 4 -29.5 12s-10.5 17 -10.5 27c0 9.33301 3.5 18 10.5 26s16.833 12 29.5 12h55
v247c0 13.333 4 23.333 12 30s16.667 10 26 10s18 -3.33301 26 -10s12 -16.667 12 -30v-305c0 -30.667 11 -57 33 -79s48.333 -33 79 -33s57 11 79 33s33 48.333 33 79v305c0 13.333 4 23.333 12 30s16.667 10 26 10s18 -3.33301 26 -10s12 -16.667 12 -30v-247h55
c13.333 0 23.333 -4 30 -12s10 -16.667 10 -26c0 -10 -3.33301 -19 -10 -27s-16.667 -12 -30 -12h-56c-0.666992 -4.66699 -1.16699 -9.16699 -1.5 -13.5s-1.16602 -8.83301 -2.49902 -13.5h60c13.333 0 23.333 -4 30 -12s10 -16.667 10 -26v0zM550.999 333
c0 3.33301 -0.668945 5.33301 -2.00195 6s-3 1 -5 1h-108c6.66699 11.333 11.834 23.666 15.501 36.999s5.5 27 5.5 41v11h87c2 0 3.66699 0.333008 5 1s2 2.66699 2 6s-0.666992 5.33301 -2 6s-3 1 -5 1h-87v279c0 2 -0.333008 3.83301 -1 5.5s-2.66699 2.5 -6 2.5
s-5.33301 -0.833008 -6 -2.5s-1 -3.5 -1 -5.5v-304c0 -38.667 -14 -72.167 -42 -100.5s-61.667 -42.5 -101 -42.5c-38.667 0 -72.167 14.167 -100.5 42.5s-42.5 61.833 -42.5 100.5v304c0 2 -0.333008 3.83301 -1 5.5s-2.66699 2.5 -6 2.5s-5.33301 -0.833008 -6 -2.5
s-1 -3.5 -1 -5.5v-279h-84c-2 0 -3.83301 -0.333008 -5.5 -1s-2.5 -2.66699 -2.5 -6s0.833008 -5.33301 2.5 -6s3.5 -1 5.5 -1h84v-11c0 -14 1.66699 -27.667 5 -41s8.33301 -25.666 15 -36.999h-104c-2 0 -3.83301 -0.333008 -5.5 -1s-2.5 -2.66699 -2.5 -6
s0.833008 -5.33301 2.5 -6s3.5 -1 5.5 -1h114c13.333 -18.667 30.5 -33.834 51.5 -45.501s43.833 -18.167 68.5 -19.5v-212c0 -2 0.333008 -3.83301 1 -5.5s2.66699 -2.5 6 -2.5s5.33301 0.833008 6 2.5s1 3.5 1 5.5v212c24.667 1.33301 47.334 7.83301 68.001 19.5
s38 26.834 52 45.501h117c2 0 3.66699 0.333008 5 1s2 2.66699 2 6v0z" />
    <glyph glyph-name="brokenbar" unicode="&#xa6;" horiz-adv-x="500" 
 />
    <glyph glyph-name="section" unicode="&#xa7;" horiz-adv-x="500" 
 />
    <glyph glyph-name="dieresis" unicode="&#xa8;" horiz-adv-x="275" 
d="M121 806c0 -11.333 -4.16699 -21.166 -12.5 -29.499s-18.166 -12.5 -29.499 -12.5s-21.166 4.16699 -29.499 12.5s-12.5 18.166 -12.5 29.499s4.16699 21.166 12.5 29.499s18.166 12.5 29.499 12.5s21.166 -4.16699 29.499 -12.5s12.5 -18.166 12.5 -29.499v0zM80 816
c0 3.33301 -1.16699 6.33301 -3.5 9s-5.16602 4 -8.49902 4s-6.33301 -1.33301 -9 -4s-4 -5.66699 -4 -9s1.33301 -6.16602 4 -8.49902s5.66699 -3.5 9 -3.5s6.16602 1.16699 8.49902 3.5s3.5 5.16602 3.5 8.49902v0zM222 806c0 -11.333 -4.16699 -21.166 -12.5 -29.499
s-18.166 -12.5 -29.499 -12.5s-21.166 4.16699 -29.499 12.5s-12.5 18.166 -12.5 29.499s4.16699 21.166 12.5 29.499s18.166 12.5 29.499 12.5s21.166 -4.16699 29.499 -12.5s12.5 -18.166 12.5 -29.499v0zM178 816c0 3.33301 -1.33301 6.33301 -4 9s-5.66699 4 -9 4
s-6.16602 -1.33301 -8.49902 -4s-3.5 -5.66699 -3.5 -9s1.16699 -6.16602 3.5 -8.49902s5.16602 -3.5 8.49902 -3.5s6.33301 1.16699 9 3.5s4 5.16602 4 8.49902v0z" />
    <glyph glyph-name="copyright" unicode="&#xa9;" horiz-adv-x="500" 
 />
    <glyph glyph-name="ordfeminine" unicode="&#xaa;" horiz-adv-x="332" 
d="M317 351c0 -13.333 -4 -23.333 -12 -30s-16.667 -10 -26 -10s-18 3.33301 -26 10s-12 16.667 -12 30v79h-84v-79c0 -13.333 -4 -23.333 -12 -30s-17 -10 -27 -10c-9.33301 0 -18 3.33301 -26 10s-12 16.667 -12 30v79h-25c-13.333 0 -23.333 4 -30 12s-10 16.667 -10 26
s3.33301 18 10 26s16.667 12 30 12h25v125c0 32.667 11.667 60.667 35 84s51.333 35 84 35s60.5 -11.667 83.5 -35s34.5 -51.333 34.5 -84v-280v0zM277 361v280c0 24 -8.66699 44.667 -26 62s-38 26 -62 26s-44.5 -8.66699 -61.5 -26s-25.5 -38 -25.5 -62v-156h-57h-0.5
h-1.5c-1.33301 0 -2.5 -0.5 -3.5 -1.5s-1.5 -2.83301 -1.5 -5.5s0.5 -4.5 1.5 -5.5s2.16699 -1.5 3.5 -1.5h1.5h0.5h57v-110c0 -2 0.333008 -3.66699 1 -5s2.66699 -2 6 -2s5.33301 0.666992 6 2s1 3 1 5v110h146v-110c0 -2 0.333008 -3.66699 1 -5s3 -2 7 -2
c3.33301 0 5.33301 0.666992 6 2s1 3 1 5v0zM262 485h-146v156c0 20 7.16699 37.167 21.5 51.5s31.5 21.5 51.5 21.5s37.167 -7.16699 51.5 -21.5s21.5 -31.5 21.5 -51.5v-156v0zM241 506l-0.00195312 125c0 11.333 -4.16699 21.333 -12.5 30s-18.166 13 -29.499 13
s-21.166 -4.33301 -29.499 -13s-12.5 -18.667 -12.5 -30v-125h84v0z" />
    <glyph glyph-name="guillemotleft" unicode="&#xab;" horiz-adv-x="321" 
d="M173 279c1.33301 -1.33301 2.33105 -2.66895 2.99805 -4.00195l2 -4c1.33301 -2.66699 2.33301 -5.33398 3 -8.00098s1 -5.33398 1 -8.00098c0 -6.66699 -1.5 -12.5 -4.5 -17.5s-6.83301 -9.16699 -11.5 -12.5c-3.33301 -2.66699 -7 -4.66699 -11 -6s-8 -2 -12 -2h-3.5
c-1 0 -2.16699 0.333008 -3.5 1c-4 0.666992 -8.16699 2.33398 -12.5 5.00098s-8.16602 6.33398 -11.499 11.001l-103 141l103 140c4.66699 6.66699 9.66699 11.334 15 14.001s11 4 17 4c4 0 8 -0.666992 12 -2s7.33301 -3.33301 10 -6
c4.66699 -3.33301 8.5 -7.66602 11.5 -12.999s4.5 -11.333 4.5 -18c0 -4 -0.666992 -8 -2 -12s-3.66602 -8 -6.99902 -12l-70 -95l70 -96v0zM137.998 270.997l-82.9961 114.001l83 113l1.5 1.5c0.333008 0.333008 0.5 0.833008 0.5 1.5c0.666992 0 1 0.166992 1 0.5v1.5v1.5
c0 0.333008 -0.333008 0.833008 -1 1.5l-1 0.5c-0.666992 0.333008 -1.33398 0.833008 -2.00098 1.5s-1.33398 1.16699 -2.00098 1.5s-1.33398 0.833008 -2.00098 1.5h-1h-1c-0.666992 -0.666992 -1.33398 -1.16699 -2.00098 -1.5s-1.33398 -1.16602 -2.00098 -2.49902
l-86 -118c-0.666992 -0.666992 -1.16699 -1.33398 -1.5 -2.00098s-0.166016 -1.66699 0.500977 -3v-2c0 -0.666992 0.333008 -1.33398 1 -2.00098l86 -118c0.666992 -0.666992 1.5 -1.33398 2.5 -2.00098s1.83301 -1 2.5 -1s1.5 0.166992 2.5 0.5s1.83301 0.833008 2.5 1.5
l3 3c0.666992 0.666992 1 1.33398 1 2.00098v1.5c0 0.333008 -0.333008 0.833008 -1 1.5l-0.5 0.5l-1.5 1.5v0zM303.002 278.998c1.33301 -1.33301 2.33105 -2.66895 2.99805 -4.00195l2 -4c1.33301 -2.66699 2.33301 -5.33398 3 -8.00098s1 -5.33398 1 -8.00098
c0 -6.66699 -1.5 -12.5 -4.5 -17.5s-6.83301 -9.16699 -11.5 -12.5c-3.33301 -2.66699 -7 -4.66699 -11 -6s-8 -2 -12 -2h-3.5c-1 0 -2.16699 0.333008 -3.5 1c-4 0.666992 -8.16699 2.33398 -12.5 5.00098s-8.16602 6.33398 -11.499 11.001l-103 141l103 140
c4.66699 6.66699 9.66699 11.334 15 14.001s11 4 17 4c4 0 8 -0.666992 12 -2s7.33301 -3.33301 10 -6c4.66699 -3.33301 8.5 -7.66602 11.5 -12.999s4.5 -11.333 4.5 -18c0 -4 -0.666992 -8 -2 -12s-3.66602 -8 -6.99902 -12l-70 -95l70 -96v0zM268 270.995
l-82.9961 114.001l83 113l1.5 1.5c0.333008 0.333008 0.5 0.833008 0.5 1.5c0.666992 0 1 0.166992 1 0.5v1.5v1.5c0 0.333008 -0.333008 0.833008 -1 1.5l-1 0.5c-0.666992 0.333008 -1.33398 0.833008 -2.00098 1.5s-1.33398 1.16699 -2.00098 1.5
s-1.33398 0.833008 -2.00098 1.5h-1h-1c-0.666992 -0.666992 -1.33398 -1.16699 -2.00098 -1.5s-1.33398 -1.16602 -2.00098 -2.49902l-86 -118c-0.666992 -0.666992 -1.16699 -1.33398 -1.5 -2.00098s-0.166016 -1.66699 0.500977 -3v-2
c0 -0.666992 0.333008 -1.33398 1 -2.00098l86 -118c0.666992 -0.666992 1.5 -1.33398 2.5 -2.00098s1.83301 -1 2.5 -1s1.5 0.166992 2.5 0.5s1.83301 0.833008 2.5 1.5l3 3c0.666992 0.666992 1 1.33398 1 2.00098v1.5c0 0.333008 -0.333008 0.833008 -1 1.5l-0.5 0.5
l-1.5 1.5v0z" />
    <glyph glyph-name="logicalnot" unicode="&#xac;" horiz-adv-x="500" 
 />
    <glyph glyph-name="sfthyphen" unicode="&#xad;" horiz-adv-x="500" 
 />
    <glyph glyph-name="registered" unicode="&#xae;" horiz-adv-x="500" 
 />
    <glyph glyph-name="overstore" unicode="&#xaf;" 
 />
    <glyph glyph-name="degree" unicode="&#xb0;" horiz-adv-x="500" 
 />
    <glyph glyph-name="plusminus" unicode="&#xb1;" horiz-adv-x="500" 
 />
    <glyph glyph-name="twosuperior" unicode="&#xb2;" horiz-adv-x="500" 
 />
    <glyph glyph-name="threesuperior" unicode="&#xb3;" horiz-adv-x="500" 
 />
    <glyph glyph-name="acute" unicode="&#xb4;" horiz-adv-x="323" 
d="M262 886c0.666992 -1.33301 1.1709 -2.67188 1.50391 -4.00488s0.5 -2.66602 0.5 -3.99902c0.666992 -1.33301 1 -2.66602 1 -3.99902v-4c0 -6.66699 -2 -13.167 -6 -19.5s-10.667 -11.166 -20 -14.499l-164 -65l-8 -2c-2.66699 -0.666992 -5.33398 -1 -8.00098 -1
c-8.66699 0 -16 2.33301 -22 7s-10.333 10.334 -13 17.001c-0.666992 2.66699 -1.33398 5.16699 -2.00098 7.5s-1 4.83301 -1 7.5v2.5v2.5c1.33301 6 4 11.833 8 17.5s10 10.167 18 13.5l164 64c1.33301 0.666992 2.66602 1.16699 3.99902 1.5s3 0.5 5 0.5
c1.33301 0.666992 2.66602 1 3.99902 1h4c8 0 15 -2.16699 21 -6.5s10.333 -10.166 13 -17.499v0zM222.004 883.994c-0.666992 2 -1.33301 3.33203 -2 3.99902s-1.66699 1 -3 1h-1.5h-0.5c-0.666992 -0.666992 -1.16699 -1 -1.5 -1h-0.5l-164 -65l-0.5 -0.5
c-0.333008 -0.333008 -0.833008 -0.5 -1.5 -0.5c-0.666992 -0.666992 -1.5 -1.33398 -2.5 -2.00098s-1.16699 -1.66699 -0.5 -3v-1.5c0 -0.333008 0.333008 -0.833008 1 -1.5c1.33301 -2 2.5 -3.33301 3.5 -4s1.83301 -1 2.5 -1h0.5c0.333008 0 0.833008 0.333008 1.5 1h0.5
h0.5l164 64c1.33301 0.666992 2.5 1.33398 3.5 2.00098s1.5 2 1.5 4v2c0 0.666992 -0.333008 1.33398 -1 2.00098v0z" />
    <glyph glyph-name="mu" unicode="&#xb5;" horiz-adv-x="500" 
 />
    <glyph glyph-name="paragraph" unicode="&#xb6;" horiz-adv-x="500" 
 />
    <glyph glyph-name="middot" unicode="&#xb7;" 
 />
    <glyph glyph-name="cedilla" unicode="&#xb8;" horiz-adv-x="323" 
d="M241 -160c-0.666992 -24.667 -10.999 -46.002 -30.999 -64.002s-43 -26.333 -69 -25c-12.667 0.666992 -22.167 4.83398 -28.5 12.501s-9.5 15.834 -9.5 24.501v1.5v1.5c0.666992 9.33301 4.5 17.833 11.5 25.5s17.167 11.167 30.5 10.5
c5.33301 0 9.83301 1.66699 13.5 5s5.83398 7.66602 6.50098 12.999c0 5.33301 -1.66699 10 -5 14s-7.66602 6 -12.999 6l-100 -1l77 164c4 8.66699 9.33301 14.834 16 18.501s13.334 5.5 20.001 5.5c1.33301 0 2.66602 -0.166992 3.99902 -0.5s2.66602 -0.5 3.99902 -0.5
c1.33301 -0.666992 2.66602 -1.16699 3.99902 -1.5s2.66602 -0.833008 3.99902 -1.5c6 -3.33301 11.167 -8 15.5 -14s6.5 -13 6.5 -21c0 -2.66699 -0.5 -5.5 -1.5 -8.5s-2.16699 -5.83301 -3.5 -8.5l-26 -57c22.667 -4.66699 41 -16.5 55 -35.5s20.333 -39.833 19 -62.5v-1z
M201.001 -149.002c0.666992 18 -5.16797 34.1699 -17.501 48.5029s-27.166 21.166 -44.499 20.499l-30 -1l47 99v0.5c0 0.333008 0.333008 0.833008 1 1.5v1.5v0.5c0 1.33301 -0.333008 2.5 -1 3.5s-2 1.83301 -4 2.5l-0.5 0.5c-0.333008 0.333008 -0.833008 0.5 -1.5 0.5
h-1.5h-0.5c-1.33301 0 -2.33301 -0.333008 -3 -1s-1 -1.33398 -1 -2.00098s-0.166992 -1.16699 -0.5 -1.5l-0.5 -0.5l-52 -109c0 0.666992 0 0.833984 0 0.500977v-1.5c-0.666992 0 -1 -0.166992 -1 -0.5v-0.5c0 -2 0.666992 -3.66699 2 -5s3.33301 -2 6 -2l41 -1
c14 0.666992 25.667 -4.5 35 -15.5s13.333 -23.167 12 -36.5c-0.666992 -13.333 -6.33398 -24.833 -17.001 -34.5s-22.667 -13.834 -36 -12.501h-0.5h-1.5c-1.33301 0 -2.5 -0.5 -3.5 -1.5s-1.5 -2.83301 -1.5 -5.5c0 -3.33301 0.5 -5.33301 1.5 -6
s2.5 -1.33398 4.5 -2.00098h0.5h0.5c17.333 -0.666992 32.833 4.83301 46.5 16.5s20.834 26.5 21.501 44.5v-1z" />
    <glyph glyph-name="onesuperior" unicode="&#xb9;" horiz-adv-x="500" 
 />
    <glyph glyph-name="ordmasculine" unicode="&#xba;" horiz-adv-x="262" 
d="M250 428c0 -32.667 -11.667 -60.834 -35 -84.501s-51.333 -35.5 -84 -35.5s-60.667 11.833 -84 35.5s-35 51.834 -35 84.501v199c0 32.667 11.667 60.667 35 84s51.333 35 84 35s60.667 -11.667 84 -35s35 -51.333 35 -84v-199v0zM209 437v199
c0 24 -8.66699 44.667 -26 62s-38 26 -62 26s-44.667 -8.66699 -62 -26s-26 -38 -26 -62v-199c0 -24 8.66699 -44.667 26 -62s38 -26 62 -26s44.667 8.66699 62 26s26 38 26 62v0zM195 437c0 -20 -7.16699 -37.333 -21.5 -52s-31.833 -22 -52.5 -22
c-20 0 -37.167 7.33301 -51.5 22s-21.5 32 -21.5 52v199c0 20 7.16699 37.333 21.5 52s31.5 22 51.5 22c20.667 0 38.167 -7.33301 52.5 -22s21.5 -32 21.5 -52v-199v0zM174 428v199c0 11.333 -4.33301 21.166 -13 29.499s-18.667 12.5 -30 12.5s-21.333 -4.16699 -30 -12.5
s-13 -18.166 -13 -29.499v-199c0 -12 4.33301 -22.167 13 -30.5s18.667 -12.5 30 -12.5s21.333 4.16699 30 12.5s13 18.5 13 30.5v0z" />
    <glyph glyph-name="guillemotright" unicode="&#xbb;" horiz-adv-x="311" 
d="M182 375l-103 -140.996c-3.33301 -4.66699 -7 -8.33398 -11 -11.001s-8.33301 -4.33398 -13 -5.00098c-1.33301 -0.666992 -2.66602 -1 -3.99902 -1h-4c-4 0 -7.83301 0.666992 -11.5 2s-7.16699 3.33301 -10.5 6c-4.66699 3.33301 -8.5 7.66602 -11.5 12.999
s-4.5 11.333 -4.5 18c0 3.33301 0.666992 7 2 11s3.33301 8 6 12l70 96l-70 95c-2.66699 4.66699 -4.66699 9 -6 13s-2 8 -2 12c0 6.66699 1.5 12.5 4.5 17.5s6.83301 9.16699 11.5 12.5c3.33301 2.66699 7 4.66699 11 6s8 2 12 2
c5.33301 -0.666992 10.666 -2.33398 15.999 -5.00098s10.333 -7 15 -13l103 -140v0zM131 380.004c0.666992 0.666992 1.00293 1.49805 1.00293 2.49805v2.5v1.5v0.5c-0.666992 0.666992 -1 1.16699 -1 1.5v0.5l-87 118c-0.666992 1.33301 -1.33398 2.33301 -2.00098 3
s-1.66699 1 -3 1c-0.666992 0 -1.33398 -0.166992 -2.00098 -0.5s-1.66699 -1.16602 -3 -2.49902c-1.33301 -0.666992 -2.33301 -1.5 -3 -2.5s-0.666992 -1.83301 0 -2.5c0 -0.666992 0.166992 -1.5 0.5 -2.5s0.833008 -1.83301 1.5 -2.5l83 -113l-83 -114l-0.5 -0.5
c-0.333008 -0.333008 -0.5 -0.833008 -0.5 -1.5h-0.5h-0.5c0 -0.666992 -0.166992 -1.16699 -0.5 -1.5s-0.5 -0.833008 -0.5 -1.5v-1.5c0 -0.333008 0.333008 -0.5 1 -0.5c0 -0.666992 0.333008 -1.16699 1 -1.5s1.33398 -0.833008 2.00098 -1.5
c1.33301 -0.666992 2.16602 -1.16699 2.49902 -1.5s0.833008 -0.5 1.5 -0.5h1.5h0.5c1.33301 0 2.16602 0.333008 2.49902 1s0.833008 1.33398 1.5 2.00098l87 118v0zM302.003 375.002l-103 -140.996c-3.33301 -4.66699 -7 -8.33398 -11 -11.001
s-8.33301 -4.33398 -13 -5.00098c-1.33301 -0.666992 -2.66602 -1 -3.99902 -1h-4c-4 0 -7.83301 0.666992 -11.5 2s-7.16699 3.33301 -10.5 6c-4.66699 3.33301 -8.5 7.66602 -11.5 12.999s-4.5 11.333 -4.5 18c0 3.33301 0.666992 7 2 11s3.33301 8 6 12l70 96l-70 95
c-2.66699 4.66699 -4.66699 9 -6 13s-2 8 -2 12c0 6.66699 1.5 12.5 4.5 17.5s6.83301 9.16699 11.5 12.5c3.33301 2.66699 7 4.66699 11 6s8 2 12 2c5.33301 -0.666992 10.666 -2.33398 15.999 -5.00098s10.333 -7 15 -13l103 -140v0zM251.003 380.006
c0.666992 0.666992 1.00293 1.49805 1.00293 2.49805v2.5v1.5v0.5c-0.666992 0.666992 -1 1.16699 -1 1.5v0.5l-87 118c-0.666992 1.33301 -1.33398 2.33301 -2.00098 3s-1.66699 1 -3 1c-0.666992 0 -1.33398 -0.166992 -2.00098 -0.5s-1.66699 -1.16602 -3 -2.49902
c-1.33301 -0.666992 -2.33301 -1.5 -3 -2.5s-0.666992 -1.83301 0 -2.5c0 -0.666992 0.166992 -1.5 0.5 -2.5s0.833008 -1.83301 1.5 -2.5l83 -113l-83 -114l-0.5 -0.5c-0.333008 -0.333008 -0.5 -0.833008 -0.5 -1.5h-0.5h-0.5c0 -0.666992 -0.166992 -1.16699 -0.5 -1.5
s-0.5 -0.833008 -0.5 -1.5v-1.5c0 -0.333008 0.333008 -0.5 1 -0.5c0 -0.666992 0.333008 -1.16699 1 -1.5s1.33398 -0.833008 2.00098 -1.5c1.33301 -0.666992 2.16602 -1.16699 2.49902 -1.5s0.833008 -0.5 1.5 -0.5h1.5h0.5c1.33301 0 2.16602 0.333008 2.49902 1
s0.833008 1.33398 1.5 2.00098l87 118v0z" />
    <glyph glyph-name="onequarter" unicode="&#xbc;" horiz-adv-x="500" 
 />
    <glyph glyph-name="onehalf" unicode="&#xbd;" horiz-adv-x="500" 
 />
    <glyph glyph-name="threequarters" unicode="&#xbe;" horiz-adv-x="500" 
 />
    <glyph glyph-name="questiondown" unicode="&#xbf;" horiz-adv-x="350" 
d="M334 56c0 -44 -15.832 -81.6631 -47.499 -112.996s-69.5 -47 -113.5 -47c-42.667 0 -79.5 14.833 -110.5 44.5s-46.5 65.834 -46.5 108.501v7.5c0 2.33301 0.333008 4.83301 1 7.5c1.33301 17.333 5.5 34.666 12.5 51.999s15.833 33.333 26.5 48l84 114v184
c0 13.333 4 23.333 12 30s16.667 10 26 10s18 -3.33301 26 -10s12 -16.667 12 -30v-194v-3.5c0 -1 -0.333008 -2.16699 -1 -3.5c0 -3.33301 -0.666992 -6.66602 -2 -9.99902s-3 -6.33301 -5 -9l-90 -123c-6.66699 -8.66699 -12.167 -17.667 -16.5 -27
s-7.16602 -19 -8.49902 -29c0 -2 -0.166992 -4.16699 -0.5 -6.5s-0.5 -4.83301 -0.5 -7.5c0 -22 8.16699 -40.167 24.5 -54.5s35.166 -21.5 56.499 -21.5c23.333 0 43.166 8 59.499 24s24.5 35.667 24.5 59c0 11.333 -2.16699 22 -6.5 32s-10.166 19 -17.499 27
c-4.66699 4.66699 -8 9.5 -10 14.5s-3 9.83301 -3 14.5c0 5.33301 1.16699 10.166 3.5 14.499s5.16602 8.16602 8.49902 11.499s7.5 6.16602 12.5 8.49902s9.83301 3.5 14.5 3.5c2 0 4.16699 -0.333008 6.5 -1s4.83301 -1.33398 7.5 -2.00098
c2.66699 -1.33301 5.16699 -2.83301 7.5 -4.5s4.5 -3.5 6.5 -5.5c15.333 -15.333 27 -32.833 35 -52.5s12 -39.834 12 -60.501v0zM288.001 65.0039c0 16.667 -2.99512 32.9941 -8.99512 48.9941s-15.667 30.333 -29 43l-0.5 0.5l-0.5 0.5
c-0.666992 0.666992 -1.33398 1.16699 -2.00098 1.5s-1.33398 0.5 -2.00098 0.5h-1.5c-0.333008 0 -0.5 -0.333008 -0.5 -1c-0.666992 0 -1.16699 -0.166992 -1.5 -0.5l-1.5 -1.5c-0.666992 -0.666992 -1.33398 -1.5 -2.00098 -2.5s-1 -2.16699 -1 -3.5
c0 -0.666992 0.166992 -1.16699 0.5 -1.5l0.5 -0.5c0 -0.666992 0.166992 -1 0.5 -1h0.5c0 -0.666992 0.166992 -1 0.5 -1s0.5 -0.333008 0.5 -1c11.333 -10.667 19.833 -23 25.5 -37s8.5 -28.667 8.5 -44c0 -31.333 -11.333 -58.166 -34 -80.499s-49.667 -33.5 -81 -33.5
c-30 0 -56.167 10.333 -78.5 31s-33.5 46.334 -33.5 77.001c0 3.33301 0.166992 6.5 0.5 9.5s0.5 5.83301 0.5 8.5c2 12 5.5 24 10.5 36s11.5 23.333 19.5 34l91 124c0.666992 0.666992 1.16699 1.33398 1.5 2.00098s0.5 1.33398 0.5 2.00098v197v0.5v1.5
c0 1.33301 -0.5 2.5 -1.5 3.5s-3.16699 1.5 -6.5 1.5c-2.66699 0 -4.5 -0.5 -5.5 -1.5s-1.5 -2.16699 -1.5 -3.5v-1.5v-0.5v-195l-89 -121c-8.66699 -12 -15.834 -24.5 -21.501 -37.5s-9.5 -26.167 -11.5 -39.5c-0.666992 -3.33301 -1.16699 -6.66602 -1.5 -9.99902
s-0.5 -6.66602 -0.5 -9.99902c0 -34.667 12.667 -63.667 38 -87s55 -35 89 -35c35.333 0 65.666 12.5 90.999 37.5s38 55.167 38 90.5v0zM230.006 597.998c0 -14.667 -5.5 -27.5 -16.5 -38.5s-24.167 -16.5 -39.5 -16.5c-14.667 0 -27.5 5.5 -38.5 16.5
s-16.5 23.833 -16.5 38.5c0 15.333 5.5 28.5 16.5 39.5s23.833 16.5 38.5 16.5c15.333 0 28.5 -5.5 39.5 -16.5s16.5 -24.167 16.5 -39.5v0zM184.006 607.998c0 6.66699 -2.33301 12.334 -7 17.001s-10.334 7 -17.001 7s-12.334 -2.33301 -17.001 -7s-7 -10.334 -7 -17.001
s2.33301 -12.334 7 -17.001s10.334 -7 17.001 -7s12.334 2.33301 17.001 7s7 10.334 7 17.001v0zM170.006 607.998c0 -2.66699 -1 -5 -3 -7s-4.33301 -3 -7 -3s-5 1 -7 3s-3 4.33301 -3 7s1 5 3 7s4.33301 3 7 3s5 -1 7 -3s3 -4.33301 3 -7v0z" />
    <glyph glyph-name="Agrave" unicode="&#xc0;" horiz-adv-x="490" 
d="M456 38c0 -12.667 -3.83105 -22.167 -11.498 -28.5s-15.834 -9.83301 -24.501 -10.5h-1.5h-1.5c-9.33301 0 -18 3.16699 -26 9.5s-12 16.166 -12 29.499v181h-224v-181c0 -13.333 -4 -23.166 -12 -29.499s-16.667 -9.5 -26 -9.5s-18 3.16699 -26 9.5
s-12 16.166 -12 29.499v181h-17c-12.667 0 -22.5 3.83301 -29.5 11.5s-10.5 15.834 -10.5 24.501v1.5v1.5c0 9.33301 3.33301 17.833 10 25.5s16.667 11.5 30 11.5h17v267c0 51.333 18.5 95.5 55.5 132.5s81.167 55.5 132.5 55.5s95.666 -18.5 132.999 -55.5
s56 -81.167 56 -132.5v-524v0zM413.002 45v524c0 43.333 -15.333 80.333 -46 111s-67.667 46 -111 46c-42.667 0 -79.5 -15.333 -110.5 -46s-46.5 -67.667 -46.5 -111v-298h-49h-0.5h-1.5c-1.33301 0 -2.5 -0.5 -3.5 -1.5s-1.5 -2.83301 -1.5 -5.5s0.5 -4.5 1.5 -5.5
s2.16699 -1.5 3.5 -1.5h1.5h0.5h49v-212v-0.5v-1.5c0 -1.33301 0.5 -2.5 1.5 -3.5s2.83301 -1.5 5.5 -1.5s4.5 0.5 5.5 1.5s1.5 2.16699 1.5 3.5v1.5v0.5v212h286v-212v-0.5v-1.5c0 -1.33301 0.5 -2.5 1.5 -3.5s2.83301 -1.5 5.5 -1.5s4.5 0.5 5.5 1.5s1.5 2.16699 1.5 3.5
v1.5v0.5v0zM399.002 271h-286v298c0 39.333 14.167 73 42.5 101s61.833 42 100.5 42c39.333 0 73 -14 101 -42s42 -61.667 42 -101v-298v0zM379.002 295v267c0 30.667 -11 57 -33 79s-48.333 33 -79 33s-57 -11 -79 -33s-33 -48.333 -33 -79v-267h224v0zM334.002 792
c-2.66699 -6.66699 -7.16895 -12.335 -13.502 -17.002s-13.5 -7 -21.5 -7h-4c-1.33301 0 -2.66602 0.333008 -3.99902 1c-1.33301 0 -2.66602 0.166992 -3.99902 0.5s-2.66602 0.833008 -3.99902 1.5l-164 65c-9.33301 3.33301 -16.166 8.33301 -20.499 15
s-6.5 13.667 -6.5 21v3.5c0 1 0.333008 2.16699 1 3.5c0 1.33301 0.166992 2.5 0.5 3.5s0.833008 2.16699 1.5 3.5c2.66699 6.66699 7.16699 12.334 13.5 17.001s13.833 7 22.5 7c2.66699 0 5.16699 -0.166992 7.5 -0.5s4.83301 -1.16602 7.5 -2.49902l164 -65
c9.33301 -3.33301 16.166 -8.5 20.499 -15.5s6.16602 -14.167 5.49902 -21.5v-3c0 -1.33301 -0.333008 -2.33301 -1 -3c0 -1.33301 -0.166992 -2.5 -0.5 -3.5s-0.5 -2.16699 -0.5 -3.5v0zM298 818.999c0 0.666992 0.165039 1.16895 0.498047 1.50195s0.5 0.833008 0.5 1.5
v0.5v1.5c0 1.33301 -0.5 2.16602 -1.5 2.49902s-2.16699 0.833008 -3.5 1.5l-164 64h-0.5c-0.333008 0 -0.833008 0.333008 -1.5 1h-1.5h-0.5c-0.666992 0 -1.5 -0.333008 -2.5 -1s-1.83301 -2 -2.5 -4c-0.666992 -0.666992 -1 -1.33398 -1 -2.00098v-2
c0 -1.33301 0.333008 -2.33301 1 -3s1.33398 -1 2.00098 -1h0.5h0.5c0 -0.666992 0.166992 -1 0.5 -1h0.5l164 -64l0.5 -0.5c0.333008 -0.333008 0.833008 -0.5 1.5 -0.5h1.5h0.5c1.33301 0 2.33301 0.333008 3 1s1.33398 2 2.00098 4v0z" />
    <glyph glyph-name="Aacute" unicode="&#xc1;" horiz-adv-x="490" 
d="M456 38c0 -12.667 -3.83105 -22.167 -11.498 -28.5s-15.834 -9.83301 -24.501 -10.5h-1.5h-1.5c-9.33301 0 -18 3.16699 -26 9.5s-12 16.166 -12 29.499v181h-224v-181c0 -13.333 -4 -23.166 -12 -29.499s-16.667 -9.5 -26 -9.5s-18 3.16699 -26 9.5
s-12 16.166 -12 29.499v181h-17c-12.667 0 -22.5 3.83301 -29.5 11.5s-10.5 15.834 -10.5 24.501v1.5v1.5c0 9.33301 3.33301 17.833 10 25.5s16.667 11.5 30 11.5h17v267c0 51.333 18.5 95.5 55.5 132.5s81.167 55.5 132.5 55.5s95.666 -18.5 132.999 -55.5
s56 -81.167 56 -132.5v-524v0zM413.002 45v524c0 43.333 -15.333 80.333 -46 111s-67.667 46 -111 46c-42.667 0 -79.5 -15.333 -110.5 -46s-46.5 -67.667 -46.5 -111v-298h-49h-0.5h-1.5c-1.33301 0 -2.5 -0.5 -3.5 -1.5s-1.5 -2.83301 -1.5 -5.5s0.5 -4.5 1.5 -5.5
s2.16699 -1.5 3.5 -1.5h1.5h0.5h49v-212v-0.5v-1.5c0 -1.33301 0.5 -2.5 1.5 -3.5s2.83301 -1.5 5.5 -1.5s4.5 0.5 5.5 1.5s1.5 2.16699 1.5 3.5v1.5v0.5v212h286v-212v-0.5v-1.5c0 -1.33301 0.5 -2.5 1.5 -3.5s2.83301 -1.5 5.5 -1.5s4.5 0.5 5.5 1.5s1.5 2.16699 1.5 3.5
v1.5v0.5v0zM399.002 271h-286v298c0 39.333 14.167 73 42.5 101s61.833 42 100.5 42c39.333 0 73 -14 101 -42s42 -61.667 42 -101v-298v0zM379.002 295v267c0 30.667 -11 57 -33 79s-48.333 33 -79 33s-57 -11 -79 -33s-33 -48.333 -33 -79v-267h224v0zM432.002 886
c0.666992 -1.33301 1.1709 -2.67188 1.50391 -4.00488s0.5 -2.66602 0.5 -3.99902c0.666992 -1.33301 1 -2.66602 1 -3.99902v-4c0 -6.66699 -2 -13.167 -6 -19.5s-10.667 -11.166 -20 -14.499l-164 -65l-8 -2c-2.66699 -0.666992 -5.33398 -1 -8.00098 -1
c-8.66699 0 -16 2.33301 -22 7s-10.333 10.334 -13 17.001c-0.666992 2.66699 -1.33398 5.16699 -2.00098 7.5s-1 4.83301 -1 7.5v2.5v2.5c1.33301 6 4 11.833 8 17.5s10 10.167 18 13.5l164 64c1.33301 0.666992 2.66602 1.16699 3.99902 1.5s3 0.5 5 0.5
c1.33301 0.666992 2.66602 1 3.99902 1h4c8 0 15 -2.16699 21 -6.5s10.333 -10.166 13 -17.499v0zM392.006 883.994c-0.666992 2 -1.33301 3.33203 -2 3.99902s-1.66699 1 -3 1h-1.5h-0.5c-0.666992 -0.666992 -1.16699 -1 -1.5 -1h-0.5l-164 -65l-0.5 -0.5
c-0.333008 -0.333008 -0.833008 -0.5 -1.5 -0.5c-0.666992 -0.666992 -1.5 -1.33398 -2.5 -2.00098s-1.16699 -1.66699 -0.5 -3v-1.5c0 -0.333008 0.333008 -0.833008 1 -1.5c1.33301 -2 2.5 -3.33301 3.5 -4s1.83301 -1 2.5 -1h0.5c0.333008 0 0.833008 0.333008 1.5 1h0.5
h0.5l164 64c1.33301 0.666992 2.5 1.33398 3.5 2.00098s1.5 2 1.5 4v2c0 0.666992 -0.333008 1.33398 -1 2.00098v0z" />
    <glyph glyph-name="Acircumflex" unicode="&#xc2;" horiz-adv-x="490" 
d="M456 38c0 -12.667 -3.83105 -22.167 -11.498 -28.5s-15.834 -9.83301 -24.501 -10.5h-1.5h-1.5c-9.33301 0 -18 3.16699 -26 9.5s-12 16.166 -12 29.499v181h-224v-181c0 -13.333 -4 -23.166 -12 -29.499s-16.667 -9.5 -26 -9.5s-18 3.16699 -26 9.5
s-12 16.166 -12 29.499v181h-17c-12.667 0 -22.5 3.83301 -29.5 11.5s-10.5 15.834 -10.5 24.501v1.5v1.5c0 9.33301 3.33301 17.833 10 25.5s16.667 11.5 30 11.5h17v267c0 51.333 18.5 95.5 55.5 132.5s81.167 55.5 132.5 55.5s95.666 -18.5 132.999 -55.5
s56 -81.167 56 -132.5v-524v0zM413.002 45v524c0 43.333 -15.333 80.333 -46 111s-67.667 46 -111 46c-42.667 0 -79.5 -15.333 -110.5 -46s-46.5 -67.667 -46.5 -111v-298h-49h-0.5h-1.5c-1.33301 0 -2.5 -0.5 -3.5 -1.5s-1.5 -2.83301 -1.5 -5.5s0.5 -4.5 1.5 -5.5
s2.16699 -1.5 3.5 -1.5h1.5h0.5h49v-212v-0.5v-1.5c0 -1.33301 0.5 -2.5 1.5 -3.5s2.83301 -1.5 5.5 -1.5s4.5 0.5 5.5 1.5s1.5 2.16699 1.5 3.5v1.5v0.5v212h286v-212v-0.5v-1.5c0 -1.33301 0.5 -2.5 1.5 -3.5s2.83301 -1.5 5.5 -1.5s4.5 0.5 5.5 1.5s1.5 2.16699 1.5 3.5
v1.5v0.5v0zM399.002 271h-286v298c0 39.333 14.167 73 42.5 101s61.833 42 100.5 42c39.333 0 73 -14 101 -42s42 -61.667 42 -101v-298v0zM379.002 295v267c0 30.667 -11 57 -33 79s-48.333 33 -79 33s-57 -11 -79 -33s-33 -48.333 -33 -79v-267h224v0zM401.002 785
c-3.33301 -5.33301 -7.66797 -9.66602 -13.001 -12.999s-11.333 -5 -18 -5c-3.33301 0.666992 -7 1.5 -11 2.5s-8 2.83301 -12 5.5l-86 56l-86 -56c-4 -2.66699 -8 -4.66699 -12 -6s-7.66699 -2 -11 -2c-6.66699 0 -12.667 1.83301 -18 5.5s-9.66602 7.83398 -12.999 12.501
c-2 3.33301 -3.5 6.83301 -4.5 10.5s-1.5 7.5 -1.5 11.5v4c0 1.33301 0.333008 2.66602 1 3.99902c1.33301 4.66699 3.33301 9 6 13s6.66699 7.66699 12 11l127 83l128 -83c6.66699 -4.66699 11.5 -9.83398 14.5 -15.501s4.5 -11.5 4.5 -17.5v-3.5
c0 -1 -0.333008 -2.16699 -1 -3.5c-0.666992 -2.66699 -1.5 -5.16699 -2.5 -7.5s-2.16699 -4.5 -3.5 -6.5v0zM364 813c1.33301 1.33301 2.00098 2.33203 2.00098 2.99902v2c0 1.33301 -0.333008 2.33301 -1 3s-1.66699 1.33398 -3 2.00098l-106 69
c-0.666992 0.666992 -1.33398 1 -2.00098 1h-3h-0.5h-0.5c-0.666992 -0.666992 -1.16699 -1 -1.5 -1h-0.5l-107 -69c-0.666992 -0.666992 -1.5 -1.33398 -2.5 -2.00098s-1.5 -1.66699 -1.5 -3v-1.5c0 -0.333008 0.333008 -0.5 1 -0.5
c0 -0.666992 0.166992 -1.16699 0.5 -1.5s0.5 -0.833008 0.5 -1.5c1.33301 -1.33301 2.5 -2.33301 3.5 -3s1.83301 -1 2.5 -1h0.5c0.333008 0 0.833008 0.333008 1.5 1c0.666992 0 1.16699 0.166992 1.5 0.5l0.5 0.5l103 67l103 -67c0.666992 0 1.16699 -0.166992 1.5 -0.5
s0.833008 -0.5 1.5 -0.5c0 -0.666992 0.166992 -1 0.5 -1h1.5h0.5c0.333008 0 0.833008 0.333008 1.5 1c0.666992 0 1.16699 0.333008 1.5 1s0.5 1.33398 0.5 2.00098v0z" />
    <glyph glyph-name="Atilde" unicode="&#xc3;" horiz-adv-x="490" 
d="M456 38c0 -12.667 -3.83105 -22.167 -11.498 -28.5s-15.834 -9.83301 -24.501 -10.5h-1.5h-1.5c-9.33301 0 -18 3.16699 -26 9.5s-12 16.166 -12 29.499v181h-224v-181c0 -13.333 -4 -23.166 -12 -29.499s-16.667 -9.5 -26 -9.5s-18 3.16699 -26 9.5
s-12 16.166 -12 29.499v181h-17c-12.667 0 -22.5 3.83301 -29.5 11.5s-10.5 15.834 -10.5 24.501v1.5v1.5c0 9.33301 3.33301 17.833 10 25.5s16.667 11.5 30 11.5h17v267c0 51.333 18.5 95.5 55.5 132.5s81.167 55.5 132.5 55.5s95.666 -18.5 132.999 -55.5
s56 -81.167 56 -132.5v-524v0zM413.002 45v524c0 43.333 -15.333 80.333 -46 111s-67.667 46 -111 46c-42.667 0 -79.5 -15.333 -110.5 -46s-46.5 -67.667 -46.5 -111v-298h-49h-0.5h-1.5c-1.33301 0 -2.5 -0.5 -3.5 -1.5s-1.5 -2.83301 -1.5 -5.5s0.5 -4.5 1.5 -5.5
s2.16699 -1.5 3.5 -1.5h1.5h0.5h49v-212v-0.5v-1.5c0 -1.33301 0.5 -2.5 1.5 -3.5s2.83301 -1.5 5.5 -1.5s4.5 0.5 5.5 1.5s1.5 2.16699 1.5 3.5v1.5v0.5v212h286v-212v-0.5v-1.5c0 -1.33301 0.5 -2.5 1.5 -3.5s2.83301 -1.5 5.5 -1.5s4.5 0.5 5.5 1.5s1.5 2.16699 1.5 3.5
v1.5v0.5v0zM399.002 271h-286v298c0 39.333 14.167 73 42.5 101s61.833 42 100.5 42c39.333 0 73 -14 101 -42s42 -61.667 42 -101v-298v0zM379.002 295v267c0 30.667 -11 57 -33 79s-48.333 33 -79 33s-57 -11 -79 -33s-33 -48.333 -33 -79v-267h224v0zM411.002 836
c-2 -11.333 -6.00293 -21.835 -12.0029 -31.502s-13.667 -17.834 -23 -24.501c-8.66699 -6.66699 -17.167 -11.167 -25.5 -13.5s-16.166 -3.5 -23.499 -3.5c-11.333 0 -22.5 2.33301 -33.5 7s-21.833 9.66699 -32.5 15c-0.666992 0.666992 -1.5 1.16699 -2.5 1.5
s-1.83301 0.833008 -2.5 1.5l-19 9.5c-6 3 -11 4.5 -15 4.5c-0.666992 0 -1.16699 -0.166992 -1.5 -0.5s-0.833008 -0.5 -1.5 -0.5s-1.16699 -0.166992 -1.5 -0.5l-0.5 -0.5c-0.666992 0 -1.16699 -0.5 -1.5 -1.5s-0.833008 -1.83301 -1.5 -2.5l-0.5 -0.5
c-0.333008 -0.333008 -0.5 -0.833008 -0.5 -1.5c-2 -11.333 -6.66699 -19.833 -14 -25.5s-15.333 -8.5 -24 -8.5h-1.5c-0.333008 0 -0.833008 0.333008 -1.5 1h-1.5h-1.5c-8.66699 1.33301 -16.167 5.16602 -22.5 11.499s-9.5 14.833 -9.5 25.5v4.5
c0 1.66699 0.333008 3.16699 1 4.5c2 11.333 6.16699 21.833 12.5 31.5s13.833 17.834 22.5 24.501c9.33301 6 18 10.333 26 13s15.667 4 23 4c11.333 0 22.5 -2.33301 33.5 -7s21.833 -9.66699 32.5 -15c0.666992 -0.666992 1.5 -1.16699 2.5 -1.5
s1.83301 -0.833008 2.5 -1.5s1.33398 -1.16699 2.00098 -1.5s1.33398 -0.5 2.00098 -0.5c6 -3.33301 11.667 -6.33301 17 -9s9.66602 -3.66699 12.999 -3h3c0.666992 0 1.33398 0.333008 2.00098 1s1.16699 1.33398 1.5 2.00098s0.833008 1.33398 1.5 2.00098l0.5 1
c0.333008 0.666992 0.5 1.33398 0.5 2.00098c2 11.333 6.66699 19.833 14 25.5s15.333 8.5 24 8.5h1.5h1.5c0.666992 -0.666992 1.16699 -1 1.5 -1h1.5c8.66699 -2 16.167 -6 22.5 -12s9.5 -14.333 9.5 -25v-4.5c0 -1.66699 -0.333008 -3.16699 -1 -4.5v0zM370.999 850.998
l0.00292969 0.493164v0.5c0 0.666992 0.166992 1.16699 0.5 1.5s0.166016 0.5 -0.500977 0.5c0 1.33301 -0.333008 2.33301 -1 3s-2.33398 1.33398 -5.00098 2.00098h-1.5h-0.5c-2.66699 0 -4.33398 -0.666992 -5.00098 -2s-1 -2.66602 -1 -3.99902
c-0.666992 -5.33301 -2.5 -10.166 -5.5 -14.499s-6.83301 -8.16602 -11.5 -11.499c-4 -2.66699 -8 -4.66699 -12 -6s-8 -2 -12 -2c-7.33301 0 -15 1.83301 -23 5.5s-16.333 7.83398 -25 12.501c-0.666992 0.666992 -1.33398 1.16699 -2.00098 1.5s-1.33398 0.5 -2.00098 0.5
c-8.66699 4.66699 -17.334 9 -26.001 13s-17.334 5.66699 -26.001 5c-4.66699 0 -9.66699 -0.833008 -15 -2.5s-10.666 -4.16699 -15.999 -7.5c-5.33301 -4.66699 -10 -10 -14 -16s-6.66699 -12.667 -8 -20v-0.5v-0.5v-1v-1c0 -0.666992 0.333008 -1.5 1 -2.5
s2.33398 -1.83301 5.00098 -2.5h1.5h0.5c2 0 3.33301 0.333008 4 1s1.33398 1.66699 2.00098 3v1.5v0.5c1.33301 5.33301 3.33301 10.333 6 15s6.33398 8.33398 11.001 11.001c4 2.66699 8 4.5 12 5.5s7.66699 1.5 11 1.5c8 0 16 -1.66699 24 -5s16 -7.33301 24 -12
c9.33301 -5.33301 18.833 -10.166 28.5 -14.499s19.167 -6.16602 28.5 -5.49902c5.33301 0 10.5 0.833008 15.5 2.5s9.83301 4.16699 14.5 7.5c6 4 11 9.16699 15 15.5s6.66699 13.166 8 20.499v0z" />
    <glyph glyph-name="Adieresis" unicode="&#xc4;" horiz-adv-x="490" 
d="M456 38c0 -12.667 -3.83105 -22.167 -11.498 -28.5s-15.834 -9.83301 -24.501 -10.5h-1.5h-1.5c-9.33301 0 -18 3.16699 -26 9.5s-12 16.166 -12 29.499v181h-224v-181c0 -13.333 -4 -23.166 -12 -29.499s-16.667 -9.5 -26 -9.5s-18 3.16699 -26 9.5
s-12 16.166 -12 29.499v181h-17c-12.667 0 -22.5 3.83301 -29.5 11.5s-10.5 15.834 -10.5 24.501v1.5v1.5c0 9.33301 3.33301 17.833 10 25.5s16.667 11.5 30 11.5h17v267c0 51.333 18.5 95.5 55.5 132.5s81.167 55.5 132.5 55.5s95.666 -18.5 132.999 -55.5
s56 -81.167 56 -132.5v-524v0zM413.002 45v524c0 43.333 -15.333 80.333 -46 111s-67.667 46 -111 46c-42.667 0 -79.5 -15.333 -110.5 -46s-46.5 -67.667 -46.5 -111v-298h-49h-0.5h-1.5c-1.33301 0 -2.5 -0.5 -3.5 -1.5s-1.5 -2.83301 -1.5 -5.5s0.5 -4.5 1.5 -5.5
s2.16699 -1.5 3.5 -1.5h1.5h0.5h49v-212v-0.5v-1.5c0 -1.33301 0.5 -2.5 1.5 -3.5s2.83301 -1.5 5.5 -1.5s4.5 0.5 5.5 1.5s1.5 2.16699 1.5 3.5v1.5v0.5v212h286v-212v-0.5v-1.5c0 -1.33301 0.5 -2.5 1.5 -3.5s2.83301 -1.5 5.5 -1.5s4.5 0.5 5.5 1.5s1.5 2.16699 1.5 3.5
v1.5v0.5v0zM399.002 271h-286v298c0 39.333 14.167 73 42.5 101s61.833 42 100.5 42c39.333 0 73 -14 101 -42s42 -61.667 42 -101v-298v0zM379.002 295v267c0 30.667 -11 57 -33 79s-48.333 33 -79 33s-57 -11 -79 -33s-33 -48.333 -33 -79v-267h224v0zM261.002 806
c0 -11.333 -4.16699 -21.166 -12.5 -29.499s-18.166 -12.5 -29.499 -12.5s-21.166 4.16699 -29.499 12.5s-12.5 18.166 -12.5 29.499s4.16699 21.166 12.5 29.499s18.166 12.5 29.499 12.5s21.166 -4.16699 29.499 -12.5s12.5 -18.166 12.5 -29.499v0zM220.002 816
c0 3.33301 -1.16699 6.33301 -3.5 9s-5.16602 4 -8.49902 4s-6.33301 -1.33301 -9 -4s-4 -5.66699 -4 -9s1.33301 -6.16602 4 -8.49902s5.66699 -3.5 9 -3.5s6.16602 1.16699 8.49902 3.5s3.5 5.16602 3.5 8.49902v0zM362.002 806c0 -11.333 -4.16699 -21.166 -12.5 -29.499
s-18.166 -12.5 -29.499 -12.5s-21.166 4.16699 -29.499 12.5s-12.5 18.166 -12.5 29.499s4.16699 21.166 12.5 29.499s18.166 12.5 29.499 12.5s21.166 -4.16699 29.499 -12.5s12.5 -18.166 12.5 -29.499v0zM318.002 816c0 3.33301 -1.33301 6.33301 -4 9s-5.66699 4 -9 4
s-6.16602 -1.33301 -8.49902 -4s-3.5 -5.66699 -3.5 -9s1.16699 -6.16602 3.5 -8.49902s5.16602 -3.5 8.49902 -3.5s6.33301 1.16699 9 3.5s4 5.16602 4 8.49902v0z" />
    <glyph glyph-name="Aring" unicode="&#xc5;" horiz-adv-x="490" 
d="M456 38c0 -12.667 -3.83105 -22.167 -11.498 -28.5s-15.834 -9.83301 -24.501 -10.5h-1.5h-1.5c-9.33301 0 -18 3.16699 -26 9.5s-12 16.166 -12 29.499v181h-224v-181c0 -13.333 -4 -23.166 -12 -29.499s-16.667 -9.5 -26 -9.5s-18 3.16699 -26 9.5
s-12 16.166 -12 29.499v181h-17c-12.667 0 -22.5 3.83301 -29.5 11.5s-10.5 15.834 -10.5 24.501v1.5v1.5c0 9.33301 3.33301 17.833 10 25.5s16.667 11.5 30 11.5h17v267c0 51.333 18.5 95.5 55.5 132.5s81.167 55.5 132.5 55.5s95.666 -18.5 132.999 -55.5
s56 -81.167 56 -132.5v-524v0zM413.002 45v524c0 43.333 -15.333 80.333 -46 111s-67.667 46 -111 46c-42.667 0 -79.5 -15.333 -110.5 -46s-46.5 -67.667 -46.5 -111v-298h-49h-0.5h-1.5c-1.33301 0 -2.5 -0.5 -3.5 -1.5s-1.5 -2.83301 -1.5 -5.5s0.5 -4.5 1.5 -5.5
s2.16699 -1.5 3.5 -1.5h1.5h0.5h49v-212v-0.5v-1.5c0 -1.33301 0.5 -2.5 1.5 -3.5s2.83301 -1.5 5.5 -1.5s4.5 0.5 5.5 1.5s1.5 2.16699 1.5 3.5v1.5v0.5v212h286v-212v-0.5v-1.5c0 -1.33301 0.5 -2.5 1.5 -3.5s2.83301 -1.5 5.5 -1.5s4.5 0.5 5.5 1.5s1.5 2.16699 1.5 3.5
v1.5v0.5v0zM399.002 271h-286v298c0 39.333 14.167 73 42.5 101s61.833 42 100.5 42c39.333 0 73 -14 101 -42s42 -61.667 42 -101v-298v0zM379.002 295v267c0 30.667 -11 57 -33 79s-48.333 33 -79 33s-57 -11 -79 -33s-33 -48.333 -33 -79v-267h224v0zM382.002 876
c0 -33.333 -11.833 -62 -35.5 -86s-52.167 -36 -85.5 -36s-62 12 -86 36s-36 52.667 -36 86s12 61.833 36 85.5s52.667 35.5 86 35.5s61.833 -11.833 85.5 -35.5s35.5 -52.167 35.5 -85.5v0zM342.002 885c0 25.333 -8.83301 46.833 -26.5 64.5s-39.167 26.5 -64.5 26.5
c-24.667 0 -45.834 -8.83301 -63.501 -26.5s-26.5 -39.167 -26.5 -64.5c0 -24.667 8.83301 -45.834 26.5 -63.501s38.834 -26.5 63.501 -26.5c25.333 0 46.833 8.83301 64.5 26.5s26.5 38.834 26.5 63.501v0zM327.002 885c0 -20.667 -7.33301 -38.5 -22 -53.5
s-32.667 -22.5 -54 -22.5c-20.667 0 -38.5 7.5 -53.5 22.5s-22.5 32.833 -22.5 53.5c0 21.333 7.5 39.333 22.5 54s32.833 22 53.5 22c21.333 0 39.333 -7.33301 54 -22s22 -32.667 22 -54v0zM306.002 876c0 12 -4.5 22.5 -13.5 31.5s-19.5 13.5 -31.5 13.5
c-12.667 0 -23.334 -4.5 -32.001 -13.5s-13 -19.5 -13 -31.5c0 -12.667 4.33301 -23.5 13 -32.5s19.334 -13.5 32.001 -13.5c12 0 22.5 4.5 31.5 13.5s13.5 19.833 13.5 32.5v0z" />
    <glyph glyph-name="AE" unicode="&#xc6;" horiz-adv-x="775" 
d="M740 257c0 -9.33301 -3.33398 -17.999 -10.001 -25.999s-16.667 -12 -30 -12h-231v-100c0 -11.333 4.33301 -21.333 13 -30s18.667 -13 30 -13h143c13.333 0 23.333 -4 30 -12s10 -16.667 10 -26s-3.33301 -18 -10 -26s-16.667 -12 -30 -12h-143
c-8.66699 0 -17.5 1 -26.5 3s-17.167 5 -24.5 9c-4 -4.66699 -8.66699 -8 -14 -10s-10.666 -3 -15.999 -3c-9.33301 0 -18 3.16699 -26 9.5s-12 16.166 -12 29.499v81v100h-224v-181c0 -13.333 -4 -23.166 -12 -29.499s-16.667 -9.5 -26 -9.5s-18 3.16699 -26 9.5
s-12 16.166 -12 29.499v181h-18c-12.667 0 -22.334 3.83301 -29.001 11.5s-10.334 15.834 -11.001 24.501v1.5v1.5c0.666992 9.33301 4.33398 17.833 11.001 25.5s16.334 11.5 29.001 11.5h18v267c0 51.333 18.5 95.5 55.5 132.5s81.167 55.5 132.5 55.5
c25.333 0 49.333 -4.83301 72 -14.5s42.334 -22.834 59.001 -39.501c11.333 16 25.666 29 42.999 39s36.333 15 57 15h143c13.333 0 23.333 -4 30 -12s10 -16.667 10 -26s-3.33301 -18 -10 -26s-16.667 -12 -30 -12h-143c-11.333 0 -21.333 -4.33301 -30 -13
s-13 -19 -13 -31v-68v-267h231c13.333 0 23.333 -4 30 -12s10 -16.667 10 -26v0zM695.999 268.001c0 2.66699 -0.500977 4.5 -1.50098 5.5s-2.16699 1.5 -3.5 1.5h-1.5h-0.5h-262v366c0 20.667 7.33301 38.167 22 52.5s32 21.5 52 21.5h143h0.5h1.5
c1.33301 0 2.5 0.5 3.5 1.5s1.5 2.83301 1.5 5.5c0 3.33301 -0.5 5.5 -1.5 6.5s-2.16699 1.5 -3.5 1.5h-1.5h-0.5h-143c-24 0 -44.667 -8.83301 -62 -26.5s-26 -38.5 -26 -62.5v-7c-12.667 27.333 -31.834 49.5 -57.501 66.5s-54.167 25.5 -85.5 25.5
c-42.667 0 -79.5 -15.333 -110.5 -46s-46.5 -67.667 -46.5 -111v-294h-49c-2 0 -3.66699 -0.333008 -5 -1s-2 -3 -2 -7c0 -3.33301 0.666992 -5.33301 2 -6s3 -1 5 -1h49v-215v-0.5v-1.5c0 -1.33301 0.5 -2.5 1.5 -3.5s2.83301 -1.5 5.5 -1.5s4.5 0.5 5.5 1.5
s1.5 2.16699 1.5 3.5v1.5v0.5v215h286v-215v-0.5v-1.5c0 -1.33301 0.5 -2.5 1.5 -3.5s2.83301 -1.5 5.5 -1.5s4.5 0.5 5.5 1.5s1.5 2.16699 1.5 3.5v1.5v0.5v37c8 -12 18.5 -21.833 31.5 -29.5s27.167 -11.5 42.5 -11.5h143h0.5h1.5c1.33301 0 2.5 0.5 3.5 1.5
s1.5 3.16699 1.5 6.5c0 2.66699 -0.5 4.5 -1.5 5.5s-2.16699 1.5 -3.5 1.5h-1.5h-0.5h-143c-19.333 0 -36.166 7 -50.499 21s-22.166 30.333 -23.499 49v134h262h0.5h1.5c1.33301 0 2.5 0.5 3.5 1.5s1.5 3.16699 1.5 6.5v0zM412.998 275.001h-286v294
c0 39.333 14.167 73 42.5 101s61.833 42 100.5 42c38 0 71 -13.667 99 -41s42.667 -60 44 -98v-298v0zM392.998 295.001l0.00195312 267c-0.666992 30.667 -11.834 57 -33.501 79s-47.834 33 -78.501 33s-57 -11 -79 -33s-33 -48.333 -33 -79v-267h224v0z" />
    <glyph glyph-name="Ccedilla" unicode="&#xc7;" horiz-adv-x="416" 
d="M397 189c0 -47.333 -15.8359 -88.8301 -47.5029 -124.497s-70.167 -56.5 -115.5 -62.5l-6 -13c22.667 -4.66699 41 -16.334 55 -35.001s20.333 -39.334 19 -62.001c-0.666992 -25.333 -11 -47.166 -31 -65.499s-43 -26.833 -69 -25.5
c-13.333 0.666992 -23.166 5.16699 -29.499 13.5s-9.16602 17.166 -8.49902 26.499c0.666992 10 4.5 18.833 11.5 26.5s17.167 11.167 30.5 10.5c5.33301 -0.666992 9.83301 0.833008 13.5 4.5s5.83398 8.16699 6.50098 13.5c0 4.66699 -1.66699 9 -5 13
s-7.66602 6.33301 -12.999 7l-71 -1c-6 0.666992 -10.5 2.66699 -13.5 6s-4.5 7.66602 -4.5 12.999c0 2 0.333008 4 1 6l2 6l30 62c-38 12 -69.667 34.667 -95 68s-38 71 -38 113v372c0 51.333 18.667 95.666 56 132.999s81.666 56 132.999 56c52 0 96.5 -18.667 133.5 -56
s55.5 -81.666 55.5 -132.999v-132c0 -12.667 -4 -22.334 -12 -29.001s-16.667 -10 -26 -10s-18 3.33301 -26 10s-12 16.334 -12 29.001v132c0 30.667 -11 57.167 -33 79.5s-48.667 33.5 -80 33.5c-30.667 0 -57.167 -11.167 -79.5 -33.5s-33.5 -48.833 -33.5 -79.5v-372
c0 -30.667 11.167 -57.167 33.5 -79.5s48.833 -33.5 79.5 -33.5s57.167 11.167 79.5 33.5s33.5 48.833 33.5 79.5c0 13.333 4 23.333 12 30s16.667 10 26 10s18 -3.33301 26 -10s12 -16.667 12 -30v0zM354.997 200.003v0.494141v1.5c0 1.33301 -0.5 2.5 -1.5 3.5
s-2.83301 1.5 -5.5 1.5s-4.5 -0.5 -5.5 -1.5s-1.5 -2.16699 -1.5 -3.5v-1.5v-0.5c0 -39.333 -14.167 -73.166 -42.5 -101.499s-62.166 -42.5 -101.499 -42.5s-73.166 14.167 -101.499 42.5s-42.5 62.166 -42.5 101.499v371c0 39.333 14.167 73.166 42.5 101.499
s62.166 42.5 101.499 42.5s73.166 -14.167 101.499 -42.5s42.5 -62.166 42.5 -101.499v-131v-0.5v-1.5c0 -1.33301 0.5 -2.5 1.5 -3.5s2.83301 -1.5 5.5 -1.5s4.5 0.5 5.5 1.5s1.5 2.16699 1.5 3.5v1.5v0.5v131c0 43.333 -15.5 80.666 -46.5 111.999s-68.167 47 -111.5 47
s-80.5 -15.667 -111.5 -47s-46.5 -68.666 -46.5 -111.999v-371c0 -42 14.667 -78.333 44 -109s64.333 -47 105 -49l-36 -76c0 0.666992 0 0.833984 0 0.500977v-1.5c-0.666992 -0.666992 -1 -1.16699 -1 -1.5v-0.5c0 -1.33301 0.666992 -2.66602 2 -3.99902s3.33301 -2 6 -2
l41 -1c14 0.666992 25.667 -4.66602 35 -15.999s13.333 -23.666 12 -36.999c-0.666992 -13.333 -6.16699 -24.666 -16.5 -33.999s-22.5 -13.666 -36.5 -12.999h-0.5h-0.5h-0.5h-0.5c-1.33301 0 -2.5 -0.333008 -3.5 -1s-1.5 -2.66699 -1.5 -6s0.666992 -5.33301 2 -6
s3 -1 5 -1c17.333 -1.33301 32.833 4 46.5 16s20.834 27 21.501 45c1.33301 17.333 -4.33398 33 -17.001 47s-27.667 21 -45 21l-30 -1l34 72c41.333 1.33301 76.833 17.5 106.5 48.5s44.5 67.5 44.5 109.5v0z" />
    <glyph glyph-name="Egrave" unicode="&#xc8;" horiz-adv-x="445" 
d="M425 257c0 -9.33301 -3.33301 -17.999 -10 -25.999s-16.667 -12 -30 -12h-231v-100c0 -11.333 4.33301 -21.333 13 -30s18.667 -13 30 -13h143c13.333 0 23.333 -4 30 -12s10 -16.667 10 -26s-3.33301 -18 -10 -26s-16.667 -12 -30 -12h-143
c-32.667 0 -60.667 11.667 -84 35s-35 51.333 -35 84v100h-18c-12.667 0 -22.5 4 -29.5 12s-10.5 16.667 -10.5 26s3.5 18 10.5 26s16.833 12 29.5 12h18v335c0 33.333 11.667 61.666 35 84.999s51.333 35 84 35h143c13.333 0 23.333 -4 30 -12s10 -16.667 10 -26
s-3.33301 -18 -10 -26s-16.667 -12 -30 -12h-143c-11.333 0 -21.333 -4.33301 -30 -13s-13 -19 -13 -31v-335h231c13.333 0 23.333 -4 30 -12s10 -16.667 10 -26v0zM381 268.001c0 2.66699 -0.5 4.5 -1.5 5.5s-2.16699 1.5 -3.5 1.5h-1.5h-0.5h-262v366
c0 20.667 7.33301 38.167 22 52.5s32 21.5 52 21.5h143h0.5h1.5c1.33301 0 2.5 0.5 3.5 1.5s1.5 2.83301 1.5 5.5c0 3.33301 -0.5 5.5 -1.5 6.5s-2.16699 1.5 -3.5 1.5h-1.5h-0.5h-143c-24 0 -44.667 -8.83301 -62 -26.5s-26 -38.5 -26 -62.5v-366h-49
c-2 0 -3.66699 -0.333008 -5 -1s-2 -2.66699 -2 -6c0 -4 0.666992 -6.33301 2 -7s3 -1 5 -1h49v-130c0 -24 8.66699 -44.833 26 -62.5s38 -26.5 62 -26.5h143h0.5h1.5c1.33301 0 2.5 0.5 3.5 1.5s1.5 3.16699 1.5 6.5c0 2.66699 -0.5 4.5 -1.5 5.5s-2.16699 1.5 -3.5 1.5
h-1.5h-0.5h-143c-20 0 -37.333 7.16699 -52 21.5s-22 31.833 -22 52.5v130h262h0.5h1.5c1.33301 0 2.5 0.5 3.5 1.5s1.5 3.16699 1.5 6.5v0zM304 792.001c-2.66699 -6.66699 -7.16895 -12.335 -13.502 -17.002s-13.5 -7 -21.5 -7h-4
c-1.33301 0 -2.66602 0.333008 -3.99902 1c-1.33301 0 -2.66602 0.166992 -3.99902 0.5s-2.66602 0.833008 -3.99902 1.5l-164 65c-9.33301 3.33301 -16.166 8.33301 -20.499 15s-6.5 13.667 -6.5 21v3.5c0 1 0.333008 2.16699 1 3.5c0 1.33301 0.166992 2.5 0.5 3.5
s0.833008 2.16699 1.5 3.5c2.66699 6.66699 7.16699 12.334 13.5 17.001s13.833 7 22.5 7c2.66699 0 5.16699 -0.166992 7.5 -0.5s4.83301 -1.16602 7.5 -2.49902l164 -65c9.33301 -3.33301 16.166 -8.5 20.499 -15.5s6.16602 -14.167 5.49902 -21.5v-3
c0 -1.33301 -0.333008 -2.33301 -1 -3c0 -1.33301 -0.166992 -2.5 -0.5 -3.5s-0.5 -2.16699 -0.5 -3.5v0zM267.998 819c0 0.666992 0.165039 1.16895 0.498047 1.50195s0.5 0.833008 0.5 1.5v0.5v1.5c0 1.33301 -0.5 2.16602 -1.5 2.49902s-2.16699 0.833008 -3.5 1.5
l-164 64h-0.5c-0.333008 0 -0.833008 0.333008 -1.5 1h-1.5h-0.5c-0.666992 0 -1.5 -0.333008 -2.5 -1s-1.83301 -2 -2.5 -4c-0.666992 -0.666992 -1 -1.33398 -1 -2.00098v-2c0 -1.33301 0.333008 -2.33301 1 -3s1.33398 -1 2.00098 -1h0.5h0.5
c0 -0.666992 0.166992 -1 0.5 -1h0.5l164 -64l0.5 -0.5c0.333008 -0.333008 0.833008 -0.5 1.5 -0.5h1.5h0.5c1.33301 0 2.33301 0.333008 3 1s1.33398 2 2.00098 4v0z" />
    <glyph glyph-name="Eacute" unicode="&#xc9;" horiz-adv-x="445" 
d="M425 257c0 -9.33301 -3.33301 -17.999 -10 -25.999s-16.667 -12 -30 -12h-231v-100c0 -11.333 4.33301 -21.333 13 -30s18.667 -13 30 -13h143c13.333 0 23.333 -4 30 -12s10 -16.667 10 -26s-3.33301 -18 -10 -26s-16.667 -12 -30 -12h-143
c-32.667 0 -60.667 11.667 -84 35s-35 51.333 -35 84v100h-18c-12.667 0 -22.5 4 -29.5 12s-10.5 16.667 -10.5 26s3.5 18 10.5 26s16.833 12 29.5 12h18v335c0 33.333 11.667 61.666 35 84.999s51.333 35 84 35h143c13.333 0 23.333 -4 30 -12s10 -16.667 10 -26
s-3.33301 -18 -10 -26s-16.667 -12 -30 -12h-143c-11.333 0 -21.333 -4.33301 -30 -13s-13 -19 -13 -31v-335h231c13.333 0 23.333 -4 30 -12s10 -16.667 10 -26v0zM381 268.001c0 2.66699 -0.5 4.5 -1.5 5.5s-2.16699 1.5 -3.5 1.5h-1.5h-0.5h-262v366
c0 20.667 7.33301 38.167 22 52.5s32 21.5 52 21.5h143h0.5h1.5c1.33301 0 2.5 0.5 3.5 1.5s1.5 2.83301 1.5 5.5c0 3.33301 -0.5 5.5 -1.5 6.5s-2.16699 1.5 -3.5 1.5h-1.5h-0.5h-143c-24 0 -44.667 -8.83301 -62 -26.5s-26 -38.5 -26 -62.5v-366h-49
c-2 0 -3.66699 -0.333008 -5 -1s-2 -2.66699 -2 -6c0 -4 0.666992 -6.33301 2 -7s3 -1 5 -1h49v-130c0 -24 8.66699 -44.833 26 -62.5s38 -26.5 62 -26.5h143h0.5h1.5c1.33301 0 2.5 0.5 3.5 1.5s1.5 3.16699 1.5 6.5c0 2.66699 -0.5 4.5 -1.5 5.5s-2.16699 1.5 -3.5 1.5
h-1.5h-0.5h-143c-20 0 -37.333 7.16699 -52 21.5s-22 31.833 -22 52.5v130h262h0.5h1.5c1.33301 0 2.5 0.5 3.5 1.5s1.5 3.16699 1.5 6.5v0zM402 886.001c0.666992 -1.33301 1.1709 -2.67188 1.50391 -4.00488s0.5 -2.66602 0.5 -3.99902
c0.666992 -1.33301 1 -2.66602 1 -3.99902v-4c0 -6.66699 -2 -13.167 -6 -19.5s-10.667 -11.166 -20 -14.499l-164 -65l-8 -2c-2.66699 -0.666992 -5.33398 -1 -8.00098 -1c-8.66699 0 -16 2.33301 -22 7s-10.333 10.334 -13 17.001
c-0.666992 2.66699 -1.33398 5.16699 -2.00098 7.5s-1 4.83301 -1 7.5v2.5v2.5c1.33301 6 4 11.833 8 17.5s10 10.167 18 13.5l164 64c1.33301 0.666992 2.66602 1.16699 3.99902 1.5s3 0.5 5 0.5c1.33301 0.666992 2.66602 1 3.99902 1h4c8 0 15 -2.16699 21 -6.5
s10.333 -10.166 13 -17.499v0zM362.004 883.995c-0.666992 2 -1.33301 3.33203 -2 3.99902s-1.66699 1 -3 1h-1.5h-0.5c-0.666992 -0.666992 -1.16699 -1 -1.5 -1h-0.5l-164 -65l-0.5 -0.5c-0.333008 -0.333008 -0.833008 -0.5 -1.5 -0.5
c-0.666992 -0.666992 -1.5 -1.33398 -2.5 -2.00098s-1.16699 -1.66699 -0.5 -3v-1.5c0 -0.333008 0.333008 -0.833008 1 -1.5c1.33301 -2 2.5 -3.33301 3.5 -4s1.83301 -1 2.5 -1h0.5c0.333008 0 0.833008 0.333008 1.5 1h0.5h0.5l164 64
c1.33301 0.666992 2.5 1.33398 3.5 2.00098s1.5 2 1.5 4v2c0 0.666992 -0.333008 1.33398 -1 2.00098v0z" />
    <glyph glyph-name="Ecircumflex" unicode="&#xca;" horiz-adv-x="445" 
d="M425 257c0 -9.33301 -3.33301 -17.999 -10 -25.999s-16.667 -12 -30 -12h-231v-100c0 -11.333 4.33301 -21.333 13 -30s18.667 -13 30 -13h143c13.333 0 23.333 -4 30 -12s10 -16.667 10 -26s-3.33301 -18 -10 -26s-16.667 -12 -30 -12h-143
c-32.667 0 -60.667 11.667 -84 35s-35 51.333 -35 84v100h-18c-12.667 0 -22.5 4 -29.5 12s-10.5 16.667 -10.5 26s3.5 18 10.5 26s16.833 12 29.5 12h18v335c0 33.333 11.667 61.666 35 84.999s51.333 35 84 35h143c13.333 0 23.333 -4 30 -12s10 -16.667 10 -26
s-3.33301 -18 -10 -26s-16.667 -12 -30 -12h-143c-11.333 0 -21.333 -4.33301 -30 -13s-13 -19 -13 -31v-335h231c13.333 0 23.333 -4 30 -12s10 -16.667 10 -26v0zM381 268.001c0 2.66699 -0.5 4.5 -1.5 5.5s-2.16699 1.5 -3.5 1.5h-1.5h-0.5h-262v366
c0 20.667 7.33301 38.167 22 52.5s32 21.5 52 21.5h143h0.5h1.5c1.33301 0 2.5 0.5 3.5 1.5s1.5 2.83301 1.5 5.5c0 3.33301 -0.5 5.5 -1.5 6.5s-2.16699 1.5 -3.5 1.5h-1.5h-0.5h-143c-24 0 -44.667 -8.83301 -62 -26.5s-26 -38.5 -26 -62.5v-366h-49
c-2 0 -3.66699 -0.333008 -5 -1s-2 -2.66699 -2 -6c0 -4 0.666992 -6.33301 2 -7s3 -1 5 -1h49v-130c0 -24 8.66699 -44.833 26 -62.5s38 -26.5 62 -26.5h143h0.5h1.5c1.33301 0 2.5 0.5 3.5 1.5s1.5 3.16699 1.5 6.5c0 2.66699 -0.5 4.5 -1.5 5.5s-2.16699 1.5 -3.5 1.5
h-1.5h-0.5h-143c-20 0 -37.333 7.16699 -52 21.5s-22 31.833 -22 52.5v130h262h0.5h1.5c1.33301 0 2.5 0.5 3.5 1.5s1.5 3.16699 1.5 6.5v0zM381 785.001c-3.33301 -5.33301 -7.66797 -9.66602 -13.001 -12.999s-11.333 -5 -18 -5c-3.33301 0.666992 -7 1.5 -11 2.5
s-8 2.83301 -12 5.5l-86 56l-86 -56c-4 -2.66699 -8 -4.66699 -12 -6s-7.66699 -2 -11 -2c-6.66699 0 -12.667 1.83301 -18 5.5s-9.66602 7.83398 -12.999 12.501c-2 3.33301 -3.5 6.83301 -4.5 10.5s-1.5 7.5 -1.5 11.5v4c0 1.33301 0.333008 2.66602 1 3.99902
c1.33301 4.66699 3.33301 9 6 13s6.66699 7.66699 12 11l127 83l128 -83c6.66699 -4.66699 11.5 -9.83398 14.5 -15.501s4.5 -11.5 4.5 -17.5v-3.5c0 -1 -0.333008 -2.16699 -1 -3.5c-0.666992 -2.66699 -1.5 -5.16699 -2.5 -7.5s-2.16699 -4.5 -3.5 -6.5v0z
M343.998 813.001c1.33301 1.33301 2.00098 2.33203 2.00098 2.99902v2c0 1.33301 -0.333008 2.33301 -1 3s-1.66699 1.33398 -3 2.00098l-106 69c-0.666992 0.666992 -1.33398 1 -2.00098 1h-3h-0.5h-0.5c-0.666992 -0.666992 -1.16699 -1 -1.5 -1h-0.5l-107 -69
c-0.666992 -0.666992 -1.5 -1.33398 -2.5 -2.00098s-1.5 -1.66699 -1.5 -3v-1.5c0 -0.333008 0.333008 -0.5 1 -0.5c0 -0.666992 0.166992 -1.16699 0.5 -1.5s0.5 -0.833008 0.5 -1.5c1.33301 -1.33301 2.5 -2.33301 3.5 -3s1.83301 -1 2.5 -1h0.5
c0.333008 0 0.833008 0.333008 1.5 1c0.666992 0 1.16699 0.166992 1.5 0.5l0.5 0.5l103 67l103 -67c0.666992 0 1.16699 -0.166992 1.5 -0.5s0.833008 -0.5 1.5 -0.5c0 -0.666992 0.166992 -1 0.5 -1h1.5h0.5c0.333008 0 0.833008 0.333008 1.5 1
c0.666992 0 1.16699 0.333008 1.5 1s0.5 1.33398 0.5 2.00098v0z" />
    <glyph glyph-name="Edieresis" unicode="&#xcb;" horiz-adv-x="445" 
d="M425 257c0 -9.33301 -3.33301 -17.999 -10 -25.999s-16.667 -12 -30 -12h-231v-100c0 -11.333 4.33301 -21.333 13 -30s18.667 -13 30 -13h143c13.333 0 23.333 -4 30 -12s10 -16.667 10 -26s-3.33301 -18 -10 -26s-16.667 -12 -30 -12h-143
c-32.667 0 -60.667 11.667 -84 35s-35 51.333 -35 84v100h-18c-12.667 0 -22.5 4 -29.5 12s-10.5 16.667 -10.5 26s3.5 18 10.5 26s16.833 12 29.5 12h18v335c0 33.333 11.667 61.666 35 84.999s51.333 35 84 35h143c13.333 0 23.333 -4 30 -12s10 -16.667 10 -26
s-3.33301 -18 -10 -26s-16.667 -12 -30 -12h-143c-11.333 0 -21.333 -4.33301 -30 -13s-13 -19 -13 -31v-335h231c13.333 0 23.333 -4 30 -12s10 -16.667 10 -26v0zM381 268.001c0 2.66699 -0.5 4.5 -1.5 5.5s-2.16699 1.5 -3.5 1.5h-1.5h-0.5h-262v366
c0 20.667 7.33301 38.167 22 52.5s32 21.5 52 21.5h143h0.5h1.5c1.33301 0 2.5 0.5 3.5 1.5s1.5 2.83301 1.5 5.5c0 3.33301 -0.5 5.5 -1.5 6.5s-2.16699 1.5 -3.5 1.5h-1.5h-0.5h-143c-24 0 -44.667 -8.83301 -62 -26.5s-26 -38.5 -26 -62.5v-366h-49
c-2 0 -3.66699 -0.333008 -5 -1s-2 -2.66699 -2 -6c0 -4 0.666992 -6.33301 2 -7s3 -1 5 -1h49v-130c0 -24 8.66699 -44.833 26 -62.5s38 -26.5 62 -26.5h143h0.5h1.5c1.33301 0 2.5 0.5 3.5 1.5s1.5 3.16699 1.5 6.5c0 2.66699 -0.5 4.5 -1.5 5.5s-2.16699 1.5 -3.5 1.5
h-1.5h-0.5h-143c-20 0 -37.333 7.16699 -52 21.5s-22 31.833 -22 52.5v130h262h0.5h1.5c1.33301 0 2.5 0.5 3.5 1.5s1.5 3.16699 1.5 6.5v0zM231 806.001c0 -11.333 -4.16699 -21.166 -12.5 -29.499s-18.166 -12.5 -29.499 -12.5s-21.166 4.16699 -29.499 12.5
s-12.5 18.166 -12.5 29.499s4.16699 21.166 12.5 29.499s18.166 12.5 29.499 12.5s21.166 -4.16699 29.499 -12.5s12.5 -18.166 12.5 -29.499v0zM190 816.001c0 3.33301 -1.16699 6.33301 -3.5 9s-5.16602 4 -8.49902 4s-6.33301 -1.33301 -9 -4s-4 -5.66699 -4 -9
s1.33301 -6.16602 4 -8.49902s5.66699 -3.5 9 -3.5s6.16602 1.16699 8.49902 3.5s3.5 5.16602 3.5 8.49902v0zM332 806.001c0 -11.333 -4.16699 -21.166 -12.5 -29.499s-18.166 -12.5 -29.499 -12.5s-21.166 4.16699 -29.499 12.5s-12.5 18.166 -12.5 29.499
s4.16699 21.166 12.5 29.499s18.166 12.5 29.499 12.5s21.166 -4.16699 29.499 -12.5s12.5 -18.166 12.5 -29.499v0zM288 816.001c0 3.33301 -1.33301 6.33301 -4 9s-5.66699 4 -9 4s-6.16602 -1.33301 -8.49902 -4s-3.5 -5.66699 -3.5 -9s1.16699 -6.16602 3.5 -8.49902
s5.16602 -3.5 8.49902 -3.5s6.33301 1.16699 9 3.5s4 5.16602 4 8.49902v0z" />
    <glyph glyph-name="Igrave" unicode="&#xcc;" horiz-adv-x="139" 
d="M108 38c0 -12.667 -3.83301 -22.1641 -11.5 -28.4971s-15.834 -9.83301 -24.501 -10.5h-1.5h-1.5c-9.33301 0 -18 3.16699 -26 9.5s-12 16.166 -12 29.499v674c0 13.333 4 23.333 12 30s16.667 10 26 10h1.5h1.5c8.66699 -0.666992 16.834 -4.33398 24.501 -11.001
s11.5 -16.334 11.5 -29.001v-674v0zM65 49.0029v673c0 2 -0.333008 3.83301 -1 5.5s-2.66699 2.5 -6 2.5s-5.33301 -0.833008 -6 -2.5s-1 -3.5 -1 -5.5v-673c0 -2 0.333008 -3.83301 1 -5.5s2.66699 -2.5 6 -2.5s5.33301 0.833008 6 2.5s1 3.5 1 5.5v0zM134 792.003
c-2.66699 -6.66699 -7.16797 -12.335 -13.501 -17.002s-13.5 -7 -21.5 -7h-4c-1.33301 0 -2.66602 0.333008 -3.99902 1c-1.33301 0 -2.66602 0.166992 -3.99902 0.5s-2.66602 0.833008 -3.99902 1.5l-164 65c-8.66699 3.33301 -15.167 8.33301 -19.5 15
s-6.5 13.667 -6.5 21v3.5c0 1 0.333008 2.16699 1 3.5c0 1.33301 0.166992 2.5 0.5 3.5s0.833008 2.16699 1.5 3.5c2.66699 6.66699 7.16699 12.334 13.5 17.001s13.833 7 22.5 7c2.66699 0 5.16699 -0.166992 7.5 -0.5s4.83301 -1.16602 7.5 -2.49902l163 -65
c9.33301 -3.33301 16.166 -8.5 20.499 -15.5s6.16602 -14.167 5.49902 -21.5v-3c0 -1.33301 -0.333008 -2.33301 -1 -3c0 -1.33301 -0.166992 -2.5 -0.5 -3.5s-0.5 -2.16699 -0.5 -3.5v0zM97.999 819.002c0 0.666992 0.165039 1.16895 0.498047 1.50195
s0.5 0.833008 0.5 1.5v0.5v1.5c0 1.33301 -0.5 2.16602 -1.5 2.49902s-2.16699 0.833008 -3.5 1.5l-164 64c0.666992 0 0.833984 0 0.500977 0s-0.833008 0.333008 -1.5 1h-1.5h-0.5c-1.33301 0 -2.33301 -0.333008 -3 -1s-1.33398 -2 -2.00098 -4
c-0.666992 -0.666992 -1 -1.33398 -1 -2.00098v-2c0 -1.33301 0.333008 -2.33301 1 -3s1.33398 -1 2.00098 -1h0.5h0.5c0 -0.666992 0.166992 -1 0.5 -1h0.5l163 -64l0.5 -0.5c0.333008 -0.333008 0.833008 -0.5 1.5 -0.5h1.5h0.5c1.33301 0 2.33301 0.333008 3 1
s1.33398 2 2.00098 4v0z" />
    <glyph glyph-name="Iacute" unicode="&#xcd;" horiz-adv-x="139" 
d="M108 38c0 -12.667 -3.83301 -22.1641 -11.5 -28.4971s-15.834 -9.83301 -24.501 -10.5h-1.5h-1.5c-9.33301 0 -18 3.16699 -26 9.5s-12 16.166 -12 29.499v674c0 13.333 4 23.333 12 30s16.667 10 26 10h1.5h1.5c8.66699 -0.666992 16.834 -4.33398 24.501 -11.001
s11.5 -16.334 11.5 -29.001v-674v0zM65 49.0029v673c0 2 -0.333008 3.83301 -1 5.5s-2.66699 2.5 -6 2.5s-5.33301 -0.833008 -6 -2.5s-1 -3.5 -1 -5.5v-673c0 -2 0.333008 -3.83301 1 -5.5s2.66699 -2.5 6 -2.5s5.33301 0.833008 6 2.5s1 3.5 1 5.5v0zM262 886.003
c0.666992 -1.33301 1.1709 -2.67188 1.50391 -4.00488s0.5 -2.66602 0.5 -3.99902c0.666992 -1.33301 1 -2.66602 1 -3.99902v-4c0 -6.66699 -2 -13.167 -6 -19.5s-10.667 -11.166 -20 -14.499l-164 -65l-8 -2c-2.66699 -0.666992 -5.33398 -1 -8.00098 -1
c-8.66699 0 -16 2.33301 -22 7s-10.333 10.334 -13 17.001c-0.666992 2.66699 -1.33398 5.16699 -2.00098 7.5s-1 4.83301 -1 7.5v2.5v2.5c1.33301 6 4 11.833 8 17.5s10 10.167 18 13.5l164 64c1.33301 0.666992 2.66602 1.16699 3.99902 1.5s3 0.5 5 0.5
c1.33301 0.666992 2.66602 1 3.99902 1h4c8 0 15 -2.16699 21 -6.5s10.333 -10.166 13 -17.499v0zM222.004 883.997c-0.666992 2 -1.33301 3.33203 -2 3.99902s-1.66699 1 -3 1h-1.5h-0.5c-0.666992 -0.666992 -1.16699 -1 -1.5 -1h-0.5l-164 -65l-0.5 -0.5
c-0.333008 -0.333008 -0.833008 -0.5 -1.5 -0.5c-0.666992 -0.666992 -1.5 -1.33398 -2.5 -2.00098s-1.16699 -1.66699 -0.5 -3v-1.5c0 -0.333008 0.333008 -0.833008 1 -1.5c1.33301 -2 2.5 -3.33301 3.5 -4s1.83301 -1 2.5 -1h0.5c0.333008 0 0.833008 0.333008 1.5 1h0.5
h0.5l164 64c1.33301 0.666992 2.5 1.33398 3.5 2.00098s1.5 2 1.5 4v2c0 0.666992 -0.333008 1.33398 -1 2.00098v0z" />
    <glyph glyph-name="Icircumflex" unicode="&#xce;" horiz-adv-x="139" 
d="M108 38c0 -12.667 -3.83301 -22.1641 -11.5 -28.4971s-15.834 -9.83301 -24.501 -10.5h-1.5h-1.5c-9.33301 0 -18 3.16699 -26 9.5s-12 16.166 -12 29.499v674c0 13.333 4 23.333 12 30s16.667 10 26 10h1.5h1.5c8.66699 -0.666992 16.834 -4.33398 24.501 -11.001
s11.5 -16.334 11.5 -29.001v-674v0zM65 49.0029v673c0 2 -0.333008 3.83301 -1 5.5s-2.66699 2.5 -6 2.5s-5.33301 -0.833008 -6 -2.5s-1 -3.5 -1 -5.5v-673c0 -2 0.333008 -3.83301 1 -5.5s2.66699 -2.5 6 -2.5s5.33301 0.833008 6 2.5s1 3.5 1 5.5v0zM211 785.003
c-3.33301 -5.33301 -7.66504 -9.66602 -12.998 -12.999s-11.333 -5 -18 -5c-3.33301 0.666992 -7 1.5 -11 2.5s-8 2.83301 -12 5.5l-86 56l-86 -56c-3.33301 -2.66699 -7 -4.66699 -11 -6s-7.66699 -2 -11 -2c-6.66699 0 -12.834 1.83301 -18.501 5.5
s-9.83398 7.83398 -12.501 12.501c-2 3.33301 -3.5 6.83301 -4.5 10.5s-1.5 7.5 -1.5 11.5v4c0 1.33301 0.333008 2.66602 1 3.99902c1.33301 4.66699 3.33301 9 6 13s6.66699 7.66699 12 11l126 83l128 -83c6.66699 -4.66699 11.5 -9.83398 14.5 -15.501
s4.5 -11.5 4.5 -17.5v-3.5c0 -1 -0.333008 -2.16699 -1 -3.5c-0.666992 -2.66699 -1.5 -5.16699 -2.5 -7.5s-2.16699 -4.5 -3.5 -6.5v0zM174.001 813.003c1.33301 1.33301 2.00098 2.33105 2.00098 2.99805v2c0 1.33301 -0.333008 2.33301 -1 3s-1.66699 1.33398 -3 2.00098
l-106 69c-0.666992 0.666992 -1.33398 1 -2.00098 1h-3h-0.5h-0.5c-0.666992 -0.666992 -1.16699 -1 -1.5 -1h-0.5l-107 -69l-2 -2c-0.666992 -0.666992 -1 -1.66699 -1 -3v-1.5c0 -0.333008 0.333008 -0.5 1 -0.5c0 -0.666992 0.166992 -1.16699 0.5 -1.5
s0.5 -0.833008 0.5 -1.5c0.666992 -1.33301 1.5 -2.33301 2.5 -3s2.16699 -1 3.5 -1h0.5c0.333008 0 0.833008 0.333008 1.5 1c0.666992 0 1.16699 0.166992 1.5 0.5l0.5 0.5l102 67l103 -67c0.666992 0 1.16699 -0.166992 1.5 -0.5s0.833008 -0.5 1.5 -0.5
c0 -0.666992 0.166992 -1 0.5 -1h1.5h0.5c0.333008 0 0.833008 0.333008 1.5 1c0.666992 0 1.16699 0.333008 1.5 1s0.5 1.33398 0.5 2.00098v0z" />
    <glyph glyph-name="Idieresis" unicode="&#xcf;" horiz-adv-x="139" 
d="M108 38c0 -12.667 -3.83301 -22.1641 -11.5 -28.4971s-15.834 -9.83301 -24.501 -10.5h-1.5h-1.5c-9.33301 0 -18 3.16699 -26 9.5s-12 16.166 -12 29.499v674c0 13.333 4 23.333 12 30s16.667 10 26 10h1.5h1.5c8.66699 -0.666992 16.834 -4.33398 24.501 -11.001
s11.5 -16.334 11.5 -29.001v-674v0zM65 49.0029v673c0 2 -0.333008 3.83301 -1 5.5s-2.66699 2.5 -6 2.5s-5.33301 -0.833008 -6 -2.5s-1 -3.5 -1 -5.5v-673c0 -2 0.333008 -3.83301 1 -5.5s2.66699 -2.5 6 -2.5s5.33301 0.833008 6 2.5s1 3.5 1 5.5v0zM61 806.003
c0 -11.333 -4.16699 -21.166 -12.5 -29.499s-18.166 -12.5 -29.499 -12.5s-21 4.16699 -29 12.5s-12 18.166 -12 29.499s4 21.166 12 29.499s17.667 12.5 29 12.5s21.166 -4.16699 29.499 -12.5s12.5 -18.166 12.5 -29.499v0zM20 816.003c0 3.33301 -1.16699 6.33301 -3.5 9
s-5.16602 4 -8.49902 4s-6.16602 -1.33301 -8.49902 -4s-3.5 -5.66699 -3.5 -9s1.16699 -6.16602 3.5 -8.49902s5.16602 -3.5 8.49902 -3.5s6.16602 1.16699 8.49902 3.5s3.5 5.16602 3.5 8.49902v0zM162 806.003c0 -11.333 -4.16699 -21.166 -12.5 -29.499
s-18.166 -12.5 -29.499 -12.5s-21.166 4.16699 -29.499 12.5s-12.5 18.166 -12.5 29.499s4.16699 21.166 12.5 29.499s18.166 12.5 29.499 12.5s21.166 -4.16699 29.499 -12.5s12.5 -18.166 12.5 -29.499v0zM118 816.003c0 3.33301 -1.33301 6.33301 -4 9s-5.66699 4 -9 4
s-6.16602 -1.33301 -8.49902 -4s-3.5 -5.66699 -3.5 -9s1.16699 -6.16602 3.5 -8.49902s5.16602 -3.5 8.49902 -3.5s6.33301 1.16699 9 3.5s4 5.16602 4 8.49902v0z" />
    <glyph glyph-name="Eth" unicode="&#xd0;" horiz-adv-x="493" 
d="M470 189c0 -52 -18.5 -96.501 -55.5 -133.501s-81.5 -55.5 -133.5 -55.5h-189v337h-30c-12.667 0 -22.5 4 -29.5 12s-10.5 16.667 -10.5 26s3.5 18 10.5 26s16.833 12 29.5 12h30v337h189c52 0 96.5 -18.667 133.5 -56s55.5 -81.666 55.5 -132.999v-372v0zM428 199.999
v371.002c0 43.333 -15.5 80.666 -46.5 111.999s-68.167 47 -111.5 47h-151c-2 0 -3.66699 -0.833008 -5 -2.5s-2 -3.5 -2 -5.5v-330h-59c-2 0 -3.83301 -0.333008 -5.5 -1s-2.5 -2.66699 -2.5 -6s0.833008 -5.33301 2.5 -6s3.5 -1 5.5 -1l59 -1v-328
c0 -2 0.666992 -3.83301 2 -5.5s3 -2.5 5 -2.5h151c43.333 0 80.5 15.667 111.5 47s46.5 68.666 46.5 111.999v0zM414 200.001c0 -39.333 -14.167 -73.168 -42.5 -101.501s-62.166 -42.5 -101.499 -42.5h-144v321h70h0.5h1.5c1.33301 0 2.5 0.5 3.5 1.5s1.5 2.83301 1.5 5.5
s-0.5 4.5 -1.5 5.5s-2.16699 1.5 -3.5 1.5h-1.5h-0.5l-70 1v323h144c39.333 0 73.166 -14.167 101.499 -42.5s42.5 -62.166 42.5 -101.499v-371v0zM394 188.999v372c0 30.667 -11 57.167 -33 79.5s-48.667 33.5 -80 33.5h-113v-261h37c13.333 0 23.333 -4 30 -12
s10 -16.667 10 -26c0 -10 -3.33301 -19 -10 -27s-16.667 -12 -30 -12l-37 1v-261h113c31.333 0 58 11.167 80 33.5s33 48.833 33 79.5v0z" />
    <glyph glyph-name="Ntilde" unicode="&#xd1;" horiz-adv-x="370" 
d="M348 712l-1 -671.999c0 -13.333 -4 -23.333 -12 -30s-16.667 -10 -26 -10s-18 3.33301 -26 10s-12 16.667 -12 30v428c0 49.333 -16.167 93.333 -48.5 132s-72.833 62.667 -121.5 72v-632c0 -12.667 -3.83301 -22.334 -11.5 -29.001s-15.834 -10.334 -24.501 -11.001
h-1.5h-1.5c-9.33301 0 -18 3.33301 -26 10s-12 16.667 -12 30v673v39h38c41.333 0 80 -8.33301 116 -25s67 -39.334 93 -68.001v53c0 12.667 3.83301 22.334 11.5 29.001s15.834 10.334 24.501 11.001h1.5h1.5c9.33301 0 18 -3.33301 26 -10s12 -16.667 12 -30v0z
M306 49.001l0.000976562 673.002c0 2 -0.333008 3.83301 -1 5.5s-2.66699 2.5 -6 2.5c-4 0 -6.33301 -0.833008 -7 -2.5s-1 -3.5 -1 -5.5v-163c-17.333 49.333 -47.833 90.166 -91.5 122.499s-92.834 48.5 -147.501 48.5h-0.5h-1.5
c-1.33301 -0.666992 -2.5 -1.83398 -3.5 -3.50098s-1.5 -3.16699 -1.5 -4.5v-673c0 -2 0.333008 -3.83301 1 -5.5s2.66699 -2.5 6 -2.5s5.33301 0.833008 6 2.5s1 3.5 1 5.5v666c64 -2 118.667 -26.5 164 -73.5s68 -102.167 68 -165.5v-427c0 -2 0.333008 -3.83301 1 -5.5
s3 -2.5 7 -2.5c3.33301 0 5.33301 0.833008 6 2.5s1 3.5 1 5.5v0zM321.001 836.003c-2 -11.333 -6.00293 -21.835 -12.0029 -31.502s-13.667 -17.834 -23 -24.501c-8.66699 -6.66699 -17.167 -11.167 -25.5 -13.5s-16.166 -3.5 -23.499 -3.5
c-11.333 0 -22.5 2.33301 -33.5 7s-21.833 9.66699 -32.5 15c-0.666992 0.666992 -1.5 1.16699 -2.5 1.5s-1.83301 0.833008 -2.5 1.5l-19 9.5c-6 3 -11 4.5 -15 4.5c-0.666992 0 -1.16699 -0.166992 -1.5 -0.5s-0.833008 -0.5 -1.5 -0.5s-1.16699 -0.166992 -1.5 -0.5
l-0.5 -0.5c-0.666992 0 -1.16699 -0.5 -1.5 -1.5s-0.833008 -1.83301 -1.5 -2.5l-0.5 -0.5c-0.333008 -0.333008 -0.5 -0.833008 -0.5 -1.5c-2 -11.333 -6.66699 -19.833 -14 -25.5s-15.333 -8.5 -24 -8.5h-1.5c-0.333008 0 -0.833008 0.333008 -1.5 1h-1.5h-1.5
c-8.66699 1.33301 -16.167 5.16602 -22.5 11.499s-9.5 14.833 -9.5 25.5v4.5c0 1.66699 0.333008 3.16699 1 4.5c2 11.333 6.16699 21.833 12.5 31.5s13.833 17.834 22.5 24.501c9.33301 6 18 10.333 26 13s15.667 4 23 4c11.333 0 22.5 -2.33301 33.5 -7
s21.833 -9.66699 32.5 -15c0.666992 -0.666992 1.5 -1.16699 2.5 -1.5s1.83301 -0.833008 2.5 -1.5s1.33398 -1.16699 2.00098 -1.5s1.33398 -0.5 2.00098 -0.5c6 -3.33301 11.667 -6.33301 17 -9s9.66602 -3.66699 12.999 -3h3c0.666992 0 1.33398 0.333008 2.00098 1
s1.16699 1.33398 1.5 2.00098s0.833008 1.33398 1.5 2.00098l0.5 1c0.333008 0.666992 0.5 1.33398 0.5 2.00098c2 11.333 6.66699 19.833 14 25.5s15.333 8.5 24 8.5h1.5h1.5c0.666992 -0.666992 1.16699 -1 1.5 -1h1.5c8.66699 -2 16.167 -6 22.5 -12s9.5 -14.333 9.5 -25
v-4.5c0 -1.66699 -0.333008 -3.16699 -1 -4.5v0zM280.998 851.001l0.00292969 0.493164v0.5c0 0.666992 0.166992 1.16699 0.5 1.5s0.166016 0.5 -0.500977 0.5c0 1.33301 -0.333008 2.33301 -1 3s-2.33398 1.33398 -5.00098 2.00098h-1.5h-0.5
c-2.66699 0 -4.33398 -0.666992 -5.00098 -2s-1 -2.66602 -1 -3.99902c-0.666992 -5.33301 -2.5 -10.166 -5.5 -14.499s-6.83301 -8.16602 -11.5 -11.499c-4 -2.66699 -8 -4.66699 -12 -6s-8 -2 -12 -2c-7.33301 0 -15 1.83301 -23 5.5s-16.333 7.83398 -25 12.501
c-0.666992 0.666992 -1.33398 1.16699 -2.00098 1.5s-1.33398 0.5 -2.00098 0.5c-8.66699 4.66699 -17.334 9 -26.001 13s-17.334 5.66699 -26.001 5c-4.66699 0 -9.66699 -0.833008 -15 -2.5s-10.666 -4.16699 -15.999 -7.5c-5.33301 -4.66699 -10 -10 -14 -16
s-6.66699 -12.667 -8 -20v-0.5v-0.5v-1v-1c0 -0.666992 0.333008 -1.5 1 -2.5s2.33398 -1.83301 5.00098 -2.5h1.5h0.5c2 0 3.33301 0.333008 4 1s1.33398 1.66699 2.00098 3v1.5v0.5c1.33301 5.33301 3.33301 10.333 6 15s6.33398 8.33398 11.001 11.001
c4 2.66699 8 4.5 12 5.5s7.66699 1.5 11 1.5c8 0 16 -1.66699 24 -5s16 -7.33301 24 -12c9.33301 -5.33301 18.833 -10.166 28.5 -14.499s19.167 -6.16602 28.5 -5.49902c5.33301 0 10.5 0.833008 15.5 2.5s9.83301 4.16699 14.5 7.5c6 4 11 9.16699 15 15.5
s6.66699 13.166 8 20.499v0z" />
    <glyph glyph-name="Ograve" unicode="&#xd2;" 
 />
    <glyph glyph-name="Oacute" unicode="&#xd3;" horiz-adv-x="427" 
d="M404 189c0 -52 -18.5 -96.5 -55.5 -133.5s-81.5 -55.5 -133.5 -55.5c-51.333 0 -95.666 18.5 -132.999 55.5s-56 81.5 -56 133.5v372c0 51.333 18.667 95.666 56 132.999s81.666 56 132.999 56c52 0 96.5 -18.667 133.5 -56s55.5 -81.666 55.5 -132.999v-372v0zM362 200
v371c0 43.333 -15.5 80.666 -46.5 111.999s-68.167 47 -111.5 47s-80.5 -15.667 -111.5 -47s-46.5 -68.666 -46.5 -111.999v-371c0 -43.333 15.5 -80.666 46.5 -111.999s68.167 -47 111.5 -47s80.5 15.667 111.5 47s46.5 68.666 46.5 111.999v0zM348 200
c0 -39.333 -14.167 -73.166 -42.5 -101.499s-62.166 -42.5 -101.499 -42.5s-73.166 14.167 -101.499 42.5s-42.5 62.166 -42.5 101.499v371c0 39.333 14.167 73.166 42.5 101.499s62.166 42.5 101.499 42.5s73.166 -14.167 101.499 -42.5s42.5 -62.166 42.5 -101.499v-371v0
zM328 189v372c0 30.667 -11 57.167 -33 79.5s-48.667 33.5 -80 33.5c-30.667 0 -57.167 -11.167 -79.5 -33.5s-33.5 -48.833 -33.5 -79.5v-372c0 -30.667 11.167 -57.167 33.5 -79.5s48.833 -33.5 79.5 -33.5c31.333 0 58 11.167 80 33.5s33 48.833 33 79.5v0zM392 886
c0.666992 -1.33301 1.1709 -2.67188 1.50391 -4.00488s0.5 -2.66602 0.5 -3.99902c0.666992 -1.33301 1 -2.66602 1 -3.99902v-4c0 -6.66699 -2 -13.167 -6 -19.5s-10.667 -11.166 -20 -14.499l-164 -65l-8 -2c-2.66699 -0.666992 -5.33398 -1 -8.00098 -1
c-8.66699 0 -16 2.33301 -22 7s-10.333 10.334 -13 17.001c-0.666992 2.66699 -1.33398 5.16699 -2.00098 7.5s-1 4.83301 -1 7.5v2.5v2.5c1.33301 6 4 11.833 8 17.5s10 10.167 18 13.5l164 64c1.33301 0.666992 2.66602 1.16699 3.99902 1.5s3 0.5 5 0.5
c1.33301 0.666992 2.66602 1 3.99902 1h4c8 0 15 -2.16699 21 -6.5s10.333 -10.166 13 -17.499v0zM352.004 883.994c-0.666992 2 -1.33301 3.33203 -2 3.99902s-1.66699 1 -3 1h-1.5h-0.5c-0.666992 -0.666992 -1.16699 -1 -1.5 -1h-0.5l-164 -65l-0.5 -0.5
c-0.333008 -0.333008 -0.833008 -0.5 -1.5 -0.5c-0.666992 -0.666992 -1.5 -1.33398 -2.5 -2.00098s-1.16699 -1.66699 -0.5 -3v-1.5c0 -0.333008 0.333008 -0.833008 1 -1.5c1.33301 -2 2.5 -3.33301 3.5 -4s1.83301 -1 2.5 -1h0.5c0.333008 0 0.833008 0.333008 1.5 1h0.5
h0.5l164 64c1.33301 0.666992 2.5 1.33398 3.5 2.00098s1.5 2 1.5 4v2c0 0.666992 -0.333008 1.33398 -1 2.00098v0z" />
    <glyph glyph-name="Ocircumflex" unicode="&#xd4;" horiz-adv-x="427" 
d="M404 189c0 -52 -18.5 -96.5 -55.5 -133.5s-81.5 -55.5 -133.5 -55.5c-51.333 0 -95.666 18.5 -132.999 55.5s-56 81.5 -56 133.5v372c0 51.333 18.667 95.666 56 132.999s81.666 56 132.999 56c52 0 96.5 -18.667 133.5 -56s55.5 -81.666 55.5 -132.999v-372v0zM362 200
v371c0 43.333 -15.5 80.666 -46.5 111.999s-68.167 47 -111.5 47s-80.5 -15.667 -111.5 -47s-46.5 -68.666 -46.5 -111.999v-371c0 -43.333 15.5 -80.666 46.5 -111.999s68.167 -47 111.5 -47s80.5 15.667 111.5 47s46.5 68.666 46.5 111.999v0zM348 200
c0 -39.333 -14.167 -73.166 -42.5 -101.499s-62.166 -42.5 -101.499 -42.5s-73.166 14.167 -101.499 42.5s-42.5 62.166 -42.5 101.499v371c0 39.333 14.167 73.166 42.5 101.499s62.166 42.5 101.499 42.5s73.166 -14.167 101.499 -42.5s42.5 -62.166 42.5 -101.499v-371v0
zM328 189v372c0 30.667 -11 57.167 -33 79.5s-48.667 33.5 -80 33.5c-30.667 0 -57.167 -11.167 -79.5 -33.5s-33.5 -48.833 -33.5 -79.5v-372c0 -30.667 11.167 -57.167 33.5 -79.5s48.833 -33.5 79.5 -33.5c31.333 0 58 11.167 80 33.5s33 48.833 33 79.5v0zM351 785
c-3.33301 -5.33301 -7.66797 -9.66602 -13.001 -12.999s-11.333 -5 -18 -5c-3.33301 0.666992 -7 1.5 -11 2.5s-8 2.83301 -12 5.5l-86 56l-86 -56c-4 -2.66699 -8 -4.66699 -12 -6s-7.66699 -2 -11 -2c-6.66699 0 -12.667 1.83301 -18 5.5s-9.66602 7.83398 -12.999 12.501
c-2 3.33301 -3.5 6.83301 -4.5 10.5s-1.5 7.5 -1.5 11.5v4c0 1.33301 0.333008 2.66602 1 3.99902c1.33301 4.66699 3.33301 9 6 13s6.66699 7.66699 12 11l127 83l128 -83c6.66699 -4.66699 11.5 -9.83398 14.5 -15.501s4.5 -11.5 4.5 -17.5v-3.5
c0 -1 -0.333008 -2.16699 -1 -3.5c-0.666992 -2.66699 -1.5 -5.16699 -2.5 -7.5s-2.16699 -4.5 -3.5 -6.5v0zM313.998 813c1.33301 1.33301 2.00098 2.33203 2.00098 2.99902v2c0 1.33301 -0.333008 2.33301 -1 3s-1.66699 1.33398 -3 2.00098l-106 69
c-0.666992 0.666992 -1.33398 1 -2.00098 1h-3h-0.5h-0.5c-0.666992 -0.666992 -1.16699 -1 -1.5 -1h-0.5l-107 -69c-0.666992 -0.666992 -1.5 -1.33398 -2.5 -2.00098s-1.5 -1.66699 -1.5 -3v-1.5c0 -0.333008 0.333008 -0.5 1 -0.5
c0 -0.666992 0.166992 -1.16699 0.5 -1.5s0.5 -0.833008 0.5 -1.5c1.33301 -1.33301 2.5 -2.33301 3.5 -3s1.83301 -1 2.5 -1h0.5c0.333008 0 0.833008 0.333008 1.5 1c0.666992 0 1.16699 0.166992 1.5 0.5l0.5 0.5l103 67l103 -67c0.666992 0 1.16699 -0.166992 1.5 -0.5
s0.833008 -0.5 1.5 -0.5c0 -0.666992 0.166992 -1 0.5 -1h1.5h0.5c0.333008 0 0.833008 0.333008 1.5 1c0.666992 0 1.16699 0.333008 1.5 1s0.5 1.33398 0.5 2.00098v0z" />
    <glyph glyph-name="Otilde" unicode="&#xd5;" horiz-adv-x="427" 
d="M404 189c0 -52 -18.5 -96.5 -55.5 -133.5s-81.5 -55.5 -133.5 -55.5c-51.333 0 -95.666 18.5 -132.999 55.5s-56 81.5 -56 133.5v372c0 51.333 18.667 95.666 56 132.999s81.666 56 132.999 56c52 0 96.5 -18.667 133.5 -56s55.5 -81.666 55.5 -132.999v-372v0zM362 200
v371c0 43.333 -15.5 80.666 -46.5 111.999s-68.167 47 -111.5 47s-80.5 -15.667 -111.5 -47s-46.5 -68.666 -46.5 -111.999v-371c0 -43.333 15.5 -80.666 46.5 -111.999s68.167 -47 111.5 -47s80.5 15.667 111.5 47s46.5 68.666 46.5 111.999v0zM348 200
c0 -39.333 -14.167 -73.166 -42.5 -101.499s-62.166 -42.5 -101.499 -42.5s-73.166 14.167 -101.499 42.5s-42.5 62.166 -42.5 101.499v371c0 39.333 14.167 73.166 42.5 101.499s62.166 42.5 101.499 42.5s73.166 -14.167 101.499 -42.5s42.5 -62.166 42.5 -101.499v-371v0
zM328 189v372c0 30.667 -11 57.167 -33 79.5s-48.667 33.5 -80 33.5c-30.667 0 -57.167 -11.167 -79.5 -33.5s-33.5 -48.833 -33.5 -79.5v-372c0 -30.667 11.167 -57.167 33.5 -79.5s48.833 -33.5 79.5 -33.5c31.333 0 58 11.167 80 33.5s33 48.833 33 79.5v0zM351 836
c-2 -11.333 -6.00293 -21.835 -12.0029 -31.502s-13.667 -17.834 -23 -24.501c-8.66699 -6.66699 -17.167 -11.167 -25.5 -13.5s-16.166 -3.5 -23.499 -3.5c-11.333 0 -22.5 2.33301 -33.5 7s-21.833 9.66699 -32.5 15c-0.666992 0.666992 -1.5 1.16699 -2.5 1.5
s-1.83301 0.833008 -2.5 1.5l-19 9.5c-6 3 -11 4.5 -15 4.5c-0.666992 0 -1.16699 -0.166992 -1.5 -0.5s-0.833008 -0.5 -1.5 -0.5s-1.16699 -0.166992 -1.5 -0.5l-0.5 -0.5c-0.666992 0 -1.16699 -0.5 -1.5 -1.5s-0.833008 -1.83301 -1.5 -2.5l-0.5 -0.5
c-0.333008 -0.333008 -0.5 -0.833008 -0.5 -1.5c-2 -11.333 -6.66699 -19.833 -14 -25.5s-15.333 -8.5 -24 -8.5h-1.5c-0.333008 0 -0.833008 0.333008 -1.5 1h-1.5h-1.5c-8.66699 1.33301 -16.167 5.16602 -22.5 11.499s-9.5 14.833 -9.5 25.5v4.5
c0 1.66699 0.333008 3.16699 1 4.5c2 11.333 6.16699 21.833 12.5 31.5s13.833 17.834 22.5 24.501c9.33301 6 18 10.333 26 13s15.667 4 23 4c11.333 0 22.5 -2.33301 33.5 -7s21.833 -9.66699 32.5 -15c0.666992 -0.666992 1.5 -1.16699 2.5 -1.5
s1.83301 -0.833008 2.5 -1.5s1.33398 -1.16699 2.00098 -1.5s1.33398 -0.5 2.00098 -0.5c6 -3.33301 11.667 -6.33301 17 -9s9.66602 -3.66699 12.999 -3h3c0.666992 0 1.33398 0.333008 2.00098 1s1.16699 1.33398 1.5 2.00098s0.833008 1.33398 1.5 2.00098l0.5 1
c0.333008 0.666992 0.5 1.33398 0.5 2.00098c2 11.333 6.66699 19.833 14 25.5s15.333 8.5 24 8.5h1.5h1.5c0.666992 -0.666992 1.16699 -1 1.5 -1h1.5c8.66699 -2 16.167 -6 22.5 -12s9.5 -14.333 9.5 -25v-4.5c0 -1.66699 -0.333008 -3.16699 -1 -4.5v0zM310.997 850.998
l0.00292969 0.493164v0.5c0 0.666992 0.166992 1.16699 0.5 1.5s0.166016 0.5 -0.500977 0.5c0 1.33301 -0.333008 2.33301 -1 3s-2.33398 1.33398 -5.00098 2.00098h-1.5h-0.5c-2.66699 0 -4.33398 -0.666992 -5.00098 -2s-1 -2.66602 -1 -3.99902
c-0.666992 -5.33301 -2.5 -10.166 -5.5 -14.499s-6.83301 -8.16602 -11.5 -11.499c-4 -2.66699 -8 -4.66699 -12 -6s-8 -2 -12 -2c-7.33301 0 -15 1.83301 -23 5.5s-16.333 7.83398 -25 12.501c-0.666992 0.666992 -1.33398 1.16699 -2.00098 1.5s-1.33398 0.5 -2.00098 0.5
c-8.66699 4.66699 -17.334 9 -26.001 13s-17.334 5.66699 -26.001 5c-4.66699 0 -9.66699 -0.833008 -15 -2.5s-10.666 -4.16699 -15.999 -7.5c-5.33301 -4.66699 -10 -10 -14 -16s-6.66699 -12.667 -8 -20v-0.5v-0.5v-1v-1c0 -0.666992 0.333008 -1.5 1 -2.5
s2.33398 -1.83301 5.00098 -2.5h1.5h0.5c2 0 3.33301 0.333008 4 1s1.33398 1.66699 2.00098 3v1.5v0.5c1.33301 5.33301 3.33301 10.333 6 15s6.33398 8.33398 11.001 11.001c4 2.66699 8 4.5 12 5.5s7.66699 1.5 11 1.5c8 0 16 -1.66699 24 -5s16 -7.33301 24 -12
c9.33301 -5.33301 18.833 -10.166 28.5 -14.499s19.167 -6.16602 28.5 -5.49902c5.33301 0 10.5 0.833008 15.5 2.5s9.83301 4.16699 14.5 7.5c6 4 11 9.16699 15 15.5s6.66699 13.166 8 20.499v0z" />
    <glyph glyph-name="Odieresis" unicode="&#xd6;" horiz-adv-x="427" 
d="M404 189c0 -52 -18.5 -96.5 -55.5 -133.5s-81.5 -55.5 -133.5 -55.5c-51.333 0 -95.666 18.5 -132.999 55.5s-56 81.5 -56 133.5v372c0 51.333 18.667 95.666 56 132.999s81.666 56 132.999 56c52 0 96.5 -18.667 133.5 -56s55.5 -81.666 55.5 -132.999v-372v0zM362 200
v371c0 43.333 -15.5 80.666 -46.5 111.999s-68.167 47 -111.5 47s-80.5 -15.667 -111.5 -47s-46.5 -68.666 -46.5 -111.999v-371c0 -43.333 15.5 -80.666 46.5 -111.999s68.167 -47 111.5 -47s80.5 15.667 111.5 47s46.5 68.666 46.5 111.999v0zM348 200
c0 -39.333 -14.167 -73.166 -42.5 -101.499s-62.166 -42.5 -101.499 -42.5s-73.166 14.167 -101.499 42.5s-42.5 62.166 -42.5 101.499v371c0 39.333 14.167 73.166 42.5 101.499s62.166 42.5 101.499 42.5s73.166 -14.167 101.499 -42.5s42.5 -62.166 42.5 -101.499v-371v0
zM328 189v372c0 30.667 -11 57.167 -33 79.5s-48.667 33.5 -80 33.5c-30.667 0 -57.167 -11.167 -79.5 -33.5s-33.5 -48.833 -33.5 -79.5v-372c0 -30.667 11.167 -57.167 33.5 -79.5s48.833 -33.5 79.5 -33.5c31.333 0 58 11.167 80 33.5s33 48.833 33 79.5v0zM211 806
c0 -11.333 -4.16699 -21.166 -12.5 -29.499s-18.166 -12.5 -29.499 -12.5s-21.166 4.16699 -29.499 12.5s-12.5 18.166 -12.5 29.499s4.16699 21.166 12.5 29.499s18.166 12.5 29.499 12.5s21.166 -4.16699 29.499 -12.5s12.5 -18.166 12.5 -29.499v0zM170 816
c0 3.33301 -1.16699 6.33301 -3.5 9s-5.16602 4 -8.49902 4s-6.33301 -1.33301 -9 -4s-4 -5.66699 -4 -9s1.33301 -6.16602 4 -8.49902s5.66699 -3.5 9 -3.5s6.16602 1.16699 8.49902 3.5s3.5 5.16602 3.5 8.49902v0zM312 806c0 -11.333 -4.16699 -21.166 -12.5 -29.499
s-18.166 -12.5 -29.499 -12.5s-21.166 4.16699 -29.499 12.5s-12.5 18.166 -12.5 29.499s4.16699 21.166 12.5 29.499s18.166 12.5 29.499 12.5s21.166 -4.16699 29.499 -12.5s12.5 -18.166 12.5 -29.499v0zM268 816c0 3.33301 -1.33301 6.33301 -4 9s-5.66699 4 -9 4
s-6.16602 -1.33301 -8.49902 -4s-3.5 -5.66699 -3.5 -9s1.16699 -6.16602 3.5 -8.49902s5.16602 -3.5 8.49902 -3.5s6.33301 1.16699 9 3.5s4 5.16602 4 8.49902v0z" />
    <glyph glyph-name="multiply" unicode="&#xd7;" horiz-adv-x="500" 
 />
    <glyph glyph-name="Oslash" unicode="&#xd8;" horiz-adv-x="456" 
d="M431 709l-32.0029 -67.001c6 -12.667 10.5 -25.667 13.5 -39s4.5 -27.333 4.5 -42v-372c0 -52 -18.5 -96.5 -55.5 -133.5s-81.5 -55.5 -133.5 -55.5c-22 0 -43 3.66699 -63 11s-38.333 17.333 -55 30l-16 -33c-4 -8 -9 -13.833 -15 -17.5s-12.667 -5.5 -20 -5.5
c-1.33301 0 -2.66602 0.166992 -3.99902 0.5s-2.66602 0.5 -3.99902 0.5c-1.33301 0.666992 -2.66602 1.16699 -3.99902 1.5s-2.66602 0.833008 -3.99902 1.5c-6.66699 3.33301 -12.167 7.83301 -16.5 13.5s-6.16602 12.5 -5.49902 20.5c0 3.33301 0.333008 6.5 1 9.5
s1.66699 5.83301 3 8.5l33 67c-6 12 -10.667 24.833 -14 38.5s-5 27.834 -5 42.501v372c0 51.333 18.667 95.666 56 132.999s81.666 56 132.999 56c22 0 43 -3.66699 63 -11s38.333 -17.666 55 -30.999l16 34c4 8 9 14 15 18s12.333 5.66699 19 5
c3.33301 0 6.5 -0.333008 9.5 -1s5.83301 -1.66699 8.5 -3c6 -2.66699 11.167 -7 15.5 -13s6.16602 -13 5.49902 -21c0 -2.66699 -0.333008 -5.5 -1 -8.5s-1.66699 -6.16699 -3 -9.5v0zM387.997 731.999c0.666992 0.666992 1.16699 1.5 1.5 2.5s0.5 1.83301 0.5 2.5
s-0.333008 1.5 -1 2.5s-2 1.83301 -4 2.5l-0.5 0.5c-0.333008 0.333008 -0.833008 0.5 -1.5 0.5h-1.5h-0.5c-1.33301 0 -2.33301 -0.333008 -3 -1s-1 -1.33398 -1 -2.00098s-0.166992 -1.16699 -0.5 -1.5l-0.5 -0.5l-34 -70c-14.667 18.667 -32.834 33.667 -54.501 45
s-45.167 17 -70.5 17c-42.667 0 -79.667 -15.667 -111 -47s-47 -68.666 -47 -111.999v-371c0 -14.667 1.83301 -28.5 5.5 -41.5s8.83398 -25.167 15.501 -36.5l-41 -85l-0.5 -0.5c-0.333008 -0.333008 -0.5 -0.833008 -0.5 -1.5c-0.666992 -0.666992 -1 -1.16699 -1 -1.5
v-0.5c0 -0.666992 0.5 -1.5 1.5 -2.5l3.5 -3.5c1.33301 -0.666992 2.16602 -1 2.49902 -1h1.5c1.33301 0 2.5 0.333008 3.5 1s1.5 1.33398 1.5 2.00098s0.166992 1.16699 0.5 1.5l0.5 0.5l37 77c14.667 -20 33.167 -36.167 55.5 -48.5s46.5 -18.5 72.5 -18.5
c43.333 0 80.5 15.667 111.5 47s46.5 68.666 46.5 111.999v371c0 15.333 -2.16699 30 -6.5 44s-10.166 27 -17.499 39l37 78v0zM360.997 199.999c0 -39.333 -14.1689 -73.167 -42.502 -101.5s-62.166 -42.5 -101.499 -42.5c-24.667 0 -47.667 6.16699 -69 18.5
s-38.666 28.5 -51.999 48.5l248 516c5.33301 -10 9.5 -20.667 12.5 -32s4.5 -23.333 4.5 -36v-371v0zM340.995 188.998v333l-196 -409c10.667 -10.667 23 -19.5 37 -26.5s29.333 -10.5 46 -10.5c31.333 0 58 11.167 80 33.5s33 48.833 33 79.5v0zM334.995 652.998
l-247.999 -515c-4.66699 9.33301 -8.16699 19.333 -10.5 30s-3.5 21.334 -3.5 32.001v371c0 39.333 14.167 73.166 42.5 101.499s62.166 42.5 101.499 42.5c24 0 46.5 -5.5 67.5 -16.5s37.833 -26.167 50.5 -45.5v0zM310.996 635.998c-10 11.333 -22.167 20.5 -36.5 27.5
s-29.833 10.5 -46.5 10.5c-30.667 0 -57.167 -11.167 -79.5 -33.5s-33.5 -48.833 -33.5 -79.5v-333l196 408v0z" />
    <glyph glyph-name="Ugrave" unicode="&#xd9;" horiz-adv-x="419" 
d="M398 188c0 -51.333 -18.5 -95.5 -55.5 -132.5s-81.167 -55.5 -132.5 -55.5s-95.5 18.5 -132.5 55.5s-55.5 81.167 -55.5 132.5v524c0 13.333 4 23.333 12 30s16.667 10 26 10s18 -3.33301 26 -10s12 -16.667 12 -30v-524c0 -30.667 11 -57 33 -79s48.333 -33 79 -33
s57 11 79 33s33 48.333 33 79v524c0 13.333 4 23.333 12 30s16.667 10 26 10s18 -3.33301 26 -10s12 -16.667 12 -30v-524v0zM356 199v523c0 2 -0.333008 3.83301 -1 5.5s-2.66699 2.5 -6 2.5s-5.33301 -0.833008 -6 -2.5s-1 -3.5 -1 -5.5v-523
c0 -38.667 -14 -72.167 -42 -100.5s-61.667 -42.5 -101 -42.5c-38.667 0 -72.167 14.167 -100.5 42.5s-42.5 61.833 -42.5 100.5v523c0 2 -0.333008 3.83301 -1 5.5s-2.66699 2.5 -6 2.5s-5.33301 -0.833008 -6 -2.5s-1 -3.5 -1 -5.5v-523c0 -42.667 15.5 -79.667 46.5 -111
s67.833 -47 110.5 -47c43.333 0 80.333 15.667 111 47s46 68.333 46 111v0zM274 792c-2.66699 -6.66699 -7.16895 -12.335 -13.502 -17.002s-13.5 -7 -21.5 -7h-4c-1.33301 0 -2.66602 0.333008 -3.99902 1c-1.33301 0 -2.66602 0.166992 -3.99902 0.5
s-2.66602 0.833008 -3.99902 1.5l-164 65c-9.33301 3.33301 -16.166 8.33301 -20.499 15s-6.5 13.667 -6.5 21v3.5c0 1 0.333008 2.16699 1 3.5c0 1.33301 0.166992 2.5 0.5 3.5s0.833008 2.16699 1.5 3.5c2.66699 6.66699 7.16699 12.334 13.5 17.001s13.833 7 22.5 7
c2.66699 0 5.16699 -0.166992 7.5 -0.5s4.83301 -1.16602 7.5 -2.49902l164 -65c9.33301 -3.33301 16.166 -8.5 20.499 -15.5s6.16602 -14.167 5.49902 -21.5v-3c0 -1.33301 -0.333008 -2.33301 -1 -3c0 -1.33301 -0.166992 -2.5 -0.5 -3.5s-0.5 -2.16699 -0.5 -3.5v0z
M237.998 818.999c0 0.666992 0.165039 1.16895 0.498047 1.50195s0.5 0.833008 0.5 1.5v0.5v1.5c0 1.33301 -0.5 2.16602 -1.5 2.49902s-2.16699 0.833008 -3.5 1.5l-164 64h-0.5c-0.333008 0 -0.833008 0.333008 -1.5 1h-1.5h-0.5c-0.666992 0 -1.5 -0.333008 -2.5 -1
s-1.83301 -2 -2.5 -4c-0.666992 -0.666992 -1 -1.33398 -1 -2.00098v-2c0 -1.33301 0.333008 -2.33301 1 -3s1.33398 -1 2.00098 -1h0.5h0.5c0 -0.666992 0.166992 -1 0.5 -1h0.5l164 -64l0.5 -0.5c0.333008 -0.333008 0.833008 -0.5 1.5 -0.5h1.5h0.5
c1.33301 0 2.33301 0.333008 3 1s1.33398 2 2.00098 4v0z" />
    <glyph glyph-name="Uacute" unicode="&#xda;" horiz-adv-x="419" 
d="M398 188c0 -51.333 -18.5 -95.5 -55.5 -132.5s-81.167 -55.5 -132.5 -55.5s-95.5 18.5 -132.5 55.5s-55.5 81.167 -55.5 132.5v524c0 13.333 4 23.333 12 30s16.667 10 26 10s18 -3.33301 26 -10s12 -16.667 12 -30v-524c0 -30.667 11 -57 33 -79s48.333 -33 79 -33
s57 11 79 33s33 48.333 33 79v524c0 13.333 4 23.333 12 30s16.667 10 26 10s18 -3.33301 26 -10s12 -16.667 12 -30v-524v0zM356 199v523c0 2 -0.333008 3.83301 -1 5.5s-2.66699 2.5 -6 2.5s-5.33301 -0.833008 -6 -2.5s-1 -3.5 -1 -5.5v-523
c0 -38.667 -14 -72.167 -42 -100.5s-61.667 -42.5 -101 -42.5c-38.667 0 -72.167 14.167 -100.5 42.5s-42.5 61.833 -42.5 100.5v523c0 2 -0.333008 3.83301 -1 5.5s-2.66699 2.5 -6 2.5s-5.33301 -0.833008 -6 -2.5s-1 -3.5 -1 -5.5v-523c0 -42.667 15.5 -79.667 46.5 -111
s67.833 -47 110.5 -47c43.333 0 80.333 15.667 111 47s46 68.333 46 111v0zM362 886c0.666992 -1.33301 1.1709 -2.67188 1.50391 -4.00488s0.5 -2.66602 0.5 -3.99902c0.666992 -1.33301 1 -2.66602 1 -3.99902v-4c0 -6.66699 -2 -13.167 -6 -19.5
s-10.667 -11.166 -20 -14.499l-164 -65l-8 -2c-2.66699 -0.666992 -5.33398 -1 -8.00098 -1c-8.66699 0 -16 2.33301 -22 7s-10.333 10.334 -13 17.001c-0.666992 2.66699 -1.33398 5.16699 -2.00098 7.5s-1 4.83301 -1 7.5v2.5v2.5c1.33301 6 4 11.833 8 17.5
s10 10.167 18 13.5l164 64c1.33301 0.666992 2.66602 1.16699 3.99902 1.5s3 0.5 5 0.5c1.33301 0.666992 2.66602 1 3.99902 1h4c8 0 15 -2.16699 21 -6.5s10.333 -10.166 13 -17.499v0zM322.004 883.994c-0.666992 2 -1.33301 3.33203 -2 3.99902s-1.66699 1 -3 1h-1.5
h-0.5c-0.666992 -0.666992 -1.16699 -1 -1.5 -1h-0.5l-164 -65l-0.5 -0.5c-0.333008 -0.333008 -0.833008 -0.5 -1.5 -0.5c-0.666992 -0.666992 -1.5 -1.33398 -2.5 -2.00098s-1.16699 -1.66699 -0.5 -3v-1.5c0 -0.333008 0.333008 -0.833008 1 -1.5
c1.33301 -2 2.5 -3.33301 3.5 -4s1.83301 -1 2.5 -1h0.5c0.333008 0 0.833008 0.333008 1.5 1h0.5h0.5l164 64c1.33301 0.666992 2.5 1.33398 3.5 2.00098s1.5 2 1.5 4v2c0 0.666992 -0.333008 1.33398 -1 2.00098v0z" />
    <glyph glyph-name="Ucircumflex" unicode="&#xdb;" horiz-adv-x="419" 
d="M398 188c0 -51.333 -18.5 -95.5 -55.5 -132.5s-81.167 -55.5 -132.5 -55.5s-95.5 18.5 -132.5 55.5s-55.5 81.167 -55.5 132.5v524c0 13.333 4 23.333 12 30s16.667 10 26 10s18 -3.33301 26 -10s12 -16.667 12 -30v-524c0 -30.667 11 -57 33 -79s48.333 -33 79 -33
s57 11 79 33s33 48.333 33 79v524c0 13.333 4 23.333 12 30s16.667 10 26 10s18 -3.33301 26 -10s12 -16.667 12 -30v-524v0zM356 199v523c0 2 -0.333008 3.83301 -1 5.5s-2.66699 2.5 -6 2.5s-5.33301 -0.833008 -6 -2.5s-1 -3.5 -1 -5.5v-523
c0 -38.667 -14 -72.167 -42 -100.5s-61.667 -42.5 -101 -42.5c-38.667 0 -72.167 14.167 -100.5 42.5s-42.5 61.833 -42.5 100.5v523c0 2 -0.333008 3.83301 -1 5.5s-2.66699 2.5 -6 2.5s-5.33301 -0.833008 -6 -2.5s-1 -3.5 -1 -5.5v-523c0 -42.667 15.5 -79.667 46.5 -111
s67.833 -47 110.5 -47c43.333 0 80.333 15.667 111 47s46 68.333 46 111v0zM351 785c-3.33301 -5.33301 -7.66797 -9.66602 -13.001 -12.999s-11.333 -5 -18 -5c-3.33301 0.666992 -7 1.5 -11 2.5s-8 2.83301 -12 5.5l-86 56l-86 -56c-4 -2.66699 -8 -4.66699 -12 -6
s-7.66699 -2 -11 -2c-6.66699 0 -12.667 1.83301 -18 5.5s-9.66602 7.83398 -12.999 12.501c-2 3.33301 -3.5 6.83301 -4.5 10.5s-1.5 7.5 -1.5 11.5v4c0 1.33301 0.333008 2.66602 1 3.99902c1.33301 4.66699 3.33301 9 6 13s6.66699 7.66699 12 11l127 83l128 -83
c6.66699 -4.66699 11.5 -9.83398 14.5 -15.501s4.5 -11.5 4.5 -17.5v-3.5c0 -1 -0.333008 -2.16699 -1 -3.5c-0.666992 -2.66699 -1.5 -5.16699 -2.5 -7.5s-2.16699 -4.5 -3.5 -6.5v0zM313.998 813c1.33301 1.33301 2.00098 2.33203 2.00098 2.99902v2
c0 1.33301 -0.333008 2.33301 -1 3s-1.66699 1.33398 -3 2.00098l-106 69c-0.666992 0.666992 -1.33398 1 -2.00098 1h-3h-0.5h-0.5c-0.666992 -0.666992 -1.16699 -1 -1.5 -1h-0.5l-107 -69c-0.666992 -0.666992 -1.5 -1.33398 -2.5 -2.00098s-1.5 -1.66699 -1.5 -3v-1.5
c0 -0.333008 0.333008 -0.5 1 -0.5c0 -0.666992 0.166992 -1.16699 0.5 -1.5s0.5 -0.833008 0.5 -1.5c1.33301 -1.33301 2.5 -2.33301 3.5 -3s1.83301 -1 2.5 -1h0.5c0.333008 0 0.833008 0.333008 1.5 1c0.666992 0 1.16699 0.166992 1.5 0.5l0.5 0.5l103 67l103 -67
c0.666992 0 1.16699 -0.166992 1.5 -0.5s0.833008 -0.5 1.5 -0.5c0 -0.666992 0.166992 -1 0.5 -1h1.5h0.5c0.333008 0 0.833008 0.333008 1.5 1c0.666992 0 1.16699 0.333008 1.5 1s0.5 1.33398 0.5 2.00098v0z" />
    </font>
</defs>
</svg>
